<svg width="278" height="365" viewBox="0 0 278 365" fill="none" xmlns="http://www.w3.org/2000/svg">
<path d="M266.88 0H11.12C4.97859 0 0 4.66903 0 10.4286V354.571C0 360.331 4.97859 365 11.12 365H266.88C273.021 365 278 360.331 278 354.571V10.4286C278 4.66903 273.021 0 266.88 0Z" fill="white"/>
<path d="M42.3413 133.341C41.1861 132.253 40.041 130.961 38.9199 129.448C37.922 130.578 35.8407 132.938 35.4985 133.341C37.0666 140.043 37.4658 154.042 26.5168 156.429H38.9199H51.3228C40.3739 154.042 40.7731 140.043 42.3413 133.341Z" fill="#202020"/>
<path d="M51.3232 136.266C59.8268 136.266 66.7202 129.398 66.7202 120.926C66.7202 112.454 59.8268 105.586 51.3232 105.586C42.8197 105.586 35.9263 112.454 35.9263 120.926C35.9263 129.398 42.8197 136.266 51.3232 136.266Z" fill="black"/>
<path d="M26.5171 136.266C35.0206 136.266 41.9141 129.398 41.9141 120.926C41.9141 112.454 35.0206 105.586 26.5171 105.586C18.0136 105.586 11.1201 112.454 11.1201 120.926C11.1201 129.398 18.0136 136.266 26.5171 136.266Z" fill="black"/>
<path d="M38.4922 114.108C46.9957 114.108 53.8892 107.24 53.8892 98.7685C53.8892 90.2966 46.9957 83.4287 38.4922 83.4287C29.9887 83.4287 23.0952 90.2966 23.0952 98.7685C23.0952 107.24 29.9887 114.108 38.4922 114.108Z" fill="black"/>
<path d="M51.2703 132.856C58.858 132.856 65.009 126.764 65.009 119.248C65.009 111.733 58.858 105.641 51.2703 105.641C43.6825 105.641 37.5315 111.733 37.5315 119.248C37.5315 126.764 43.6825 132.856 51.2703 132.856Z" fill="#202020"/>
<path d="M29.1355 132.856C36.7232 132.856 42.8743 126.764 42.8743 119.248C42.8743 111.733 36.7232 105.641 29.1355 105.641C21.5478 105.641 15.3967 111.733 15.3967 119.248C15.3967 126.764 21.5478 132.856 29.1355 132.856Z" fill="#202020"/>
<path d="M39.8215 113.201C47.4092 113.201 53.5603 107.109 53.5603 99.5932C53.5603 92.0778 47.4092 85.9854 39.8215 85.9854C32.2338 85.9854 26.0828 92.0778 26.0828 99.5932C26.0828 107.109 32.2338 113.201 39.8215 113.201Z" fill="#202020"/>
<path d="M235.658 231.659C236.814 232.747 237.959 234.039 239.08 235.552C240.079 234.422 242.159 232.062 242.502 231.659C240.934 224.957 240.535 210.957 251.483 208.571H239.08H226.677C237.627 210.957 237.227 224.957 235.658 231.659Z" fill="#202020"/>
<path d="M226.677 228.734C218.173 228.734 211.28 235.602 211.28 244.074C211.28 252.546 218.173 259.414 226.677 259.414C235.18 259.414 242.074 252.546 242.074 244.074C242.074 235.602 235.18 228.734 226.677 228.734Z" fill="black"/>
<path d="M251.483 228.734C242.98 228.734 236.086 235.602 236.086 244.074C236.086 252.546 242.98 259.414 251.483 259.414C259.987 259.414 266.88 252.546 266.88 244.074C266.88 235.602 259.987 228.734 251.483 228.734Z" fill="black"/>
<path d="M239.508 250.892C231.005 250.892 224.111 257.76 224.111 266.232C224.111 274.704 231.005 281.572 239.508 281.572C248.012 281.572 254.905 274.704 254.905 266.232C254.905 257.76 248.012 250.892 239.508 250.892Z" fill="black"/>
<path d="M226.73 232.144C219.142 232.144 212.991 238.236 212.991 245.752C212.991 253.267 219.142 259.359 226.73 259.359C234.318 259.359 240.469 253.267 240.469 245.752C240.469 238.236 234.318 232.144 226.73 232.144Z" fill="#202020"/>
<path d="M248.865 232.144C241.277 232.144 235.126 238.236 235.126 245.752C235.126 253.267 241.277 259.359 248.865 259.359C256.452 259.359 262.603 253.267 262.603 245.752C262.603 238.236 256.452 232.144 248.865 232.144Z" fill="#202020"/>
<path d="M238.178 251.799C230.591 251.799 224.439 257.892 224.439 265.407C224.439 272.923 230.591 279.015 238.178 279.015C245.766 279.015 251.917 272.923 251.917 265.407C251.917 257.892 245.766 251.799 238.178 251.799Z" fill="#202020"/>
<path d="M244.83 317.545H238.648L233.466 310.727L232.102 308.909L224.375 298.636H230.557L235.648 305.455L236.92 307.182L244.83 317.545ZM222.466 326.273C222.466 321.364 223.352 317.121 225.125 313.545C226.898 309.97 229.33 307.212 232.42 305.273C235.511 303.333 239.042 302.364 243.011 302.364C246.981 302.364 250.511 303.333 253.602 305.273C256.693 307.212 259.125 309.97 260.898 313.545C262.67 317.121 263.557 321.364 263.557 326.273C263.557 331.182 262.67 335.424 260.898 339C259.125 342.576 256.693 345.333 253.602 347.273C250.511 349.212 246.981 350.182 243.011 350.182C239.042 350.182 235.511 349.212 232.42 347.273C229.33 345.333 226.898 342.576 225.125 339C223.352 335.424 222.466 331.182 222.466 326.273ZM227.92 326.273C227.92 330.303 228.595 333.705 229.943 336.477C231.277 339.25 233.087 341.348 235.375 342.773C237.648 344.197 240.193 344.909 243.011 344.909C245.83 344.909 248.383 344.197 250.67 342.773C252.943 341.348 254.754 339.25 256.102 336.477C257.436 333.705 258.102 330.303 258.102 326.273C258.102 322.242 257.436 318.841 256.102 316.068C254.754 313.295 252.943 311.197 250.67 309.773C248.383 308.348 245.83 307.636 243.011 307.636C240.193 307.636 237.648 308.348 235.375 309.773C233.087 311.197 231.277 313.295 229.943 316.068C228.595 318.841 227.92 322.242 227.92 326.273Z" fill="black"/>
<path d="M33.1705 47.4545H39.3523L44.5341 54.2727L45.8977 56.0909L53.625 66.3636H47.4432L42.3523 59.5455L41.0795 57.8182L33.1705 47.4545ZM55.5341 38.7273C55.5341 43.6364 54.6477 47.8788 52.875 51.4545C51.1023 55.0303 48.6705 57.7879 45.5795 59.7273C42.4886 61.6667 38.9583 62.6364 34.9886 62.6364C31.0189 62.6364 27.4886 61.6667 24.3977 59.7273C21.3068 57.7879 18.875 55.0303 17.1023 51.4545C15.3295 47.8788 14.4432 43.6364 14.4432 38.7273C14.4432 33.8182 15.3295 29.5758 17.1023 26C18.875 22.4242 21.3068 19.6667 24.3977 17.7273C27.4886 15.7879 31.0189 14.8182 34.9886 14.8182C38.9583 14.8182 42.4886 15.7879 45.5795 17.7273C48.6705 19.6667 51.1023 22.4242 52.875 26C54.6477 29.5758 55.5341 33.8182 55.5341 38.7273ZM50.0795 38.7273C50.0795 34.697 49.4053 31.2955 48.0568 28.5227C46.7235 25.75 44.9129 23.6515 42.625 22.2273C40.3523 20.803 37.8068 20.0909 34.9886 20.0909C32.1705 20.0909 29.6174 20.803 27.3295 22.2273C25.0568 23.6515 23.2462 25.75 21.8977 28.5227C20.5644 31.2955 19.8977 34.697 19.8977 38.7273C19.8977 42.7576 20.5644 46.1591 21.8977 48.9318C23.2462 51.7045 25.0568 53.803 27.3295 55.2273C29.6174 56.6515 32.1705 57.3636 34.9886 57.3636C37.8068 57.3636 40.3523 56.6515 42.625 55.2273C44.9129 53.803 46.7235 51.7045 48.0568 48.9318C49.4053 46.1591 50.0795 42.7576 50.0795 38.7273Z" fill="black"/>
</svg>
