<svg width="278" height="365" viewBox="0 0 278 365" fill="none" xmlns="http://www.w3.org/2000/svg">
<g clip-path="url(#clip0_22_1894)">
<path d="M266.88 0H11.12C4.97859 0 0 4.66903 0 10.4286V354.571C0 360.331 4.97859 365 11.12 365H266.88C273.021 365 278 360.331 278 354.571V10.4286C278 4.66903 273.021 0 266.88 0Z" fill="white"/>
<path d="M42.3412 133.341C41.186 132.253 40.0409 130.961 38.9197 129.448C37.9218 130.578 35.8406 132.938 35.4983 133.341C37.0665 140.043 37.4657 154.042 26.5167 156.429H38.9197H51.3227C40.3738 154.042 40.773 140.043 42.3412 133.341Z" fill="#202020"/>
<path d="M51.3231 136.266C59.8266 136.266 66.7201 129.398 66.7201 120.926C66.7201 112.454 59.8266 105.586 51.3231 105.586C42.8196 105.586 35.9261 112.454 35.9261 120.926C35.9261 129.398 42.8196 136.266 51.3231 136.266Z" fill="black"/>
<path d="M26.517 136.266C35.0205 136.266 41.9139 129.398 41.9139 120.926C41.9139 112.454 35.0205 105.586 26.517 105.586C18.0135 105.586 11.12 112.454 11.12 120.926C11.12 129.398 18.0135 136.266 26.517 136.266Z" fill="black"/>
<path d="M38.4921 114.108C46.9956 114.108 53.889 107.24 53.889 98.7685C53.889 90.2966 46.9956 83.4287 38.4921 83.4287C29.9886 83.4287 23.0951 90.2966 23.0951 98.7685C23.0951 107.24 29.9886 114.108 38.4921 114.108Z" fill="black"/>
<path d="M51.2703 132.856C58.858 132.856 65.009 126.764 65.009 119.248C65.009 111.733 58.858 105.641 51.2703 105.641C43.6825 105.641 37.5315 111.733 37.5315 119.248C37.5315 126.764 43.6825 132.856 51.2703 132.856Z" fill="#202020"/>
<path d="M29.1354 132.856C36.7231 132.856 42.8741 126.764 42.8741 119.248C42.8741 111.733 36.7231 105.641 29.1354 105.641C21.5477 105.641 15.3966 111.733 15.3966 119.248C15.3966 126.764 21.5477 132.856 29.1354 132.856Z" fill="#202020"/>
<path d="M39.8216 113.201C47.4094 113.201 53.5604 107.109 53.5604 99.5932C53.5604 92.0778 47.4094 85.9854 39.8216 85.9854C32.2339 85.9854 26.0829 92.0778 26.0829 99.5932C26.0829 107.109 32.2339 113.201 39.8216 113.201Z" fill="#202020"/>
<path d="M235.658 231.659C236.814 232.747 237.959 234.039 239.08 235.552C240.079 234.422 242.159 232.062 242.502 231.659C240.934 224.957 240.535 210.957 251.483 208.571H239.08H226.677C237.627 210.957 237.227 224.957 235.658 231.659Z" fill="#202020"/>
<path d="M226.677 228.734C218.173 228.734 211.28 235.602 211.28 244.074C211.28 252.546 218.173 259.414 226.677 259.414C235.18 259.414 242.074 252.546 242.074 244.074C242.074 235.602 235.18 228.734 226.677 228.734Z" fill="black"/>
<path d="M251.483 228.734C242.98 228.734 236.086 235.602 236.086 244.074C236.086 252.546 242.98 259.414 251.483 259.414C259.987 259.414 266.88 252.546 266.88 244.074C266.88 235.602 259.987 228.734 251.483 228.734Z" fill="black"/>
<path d="M239.508 250.892C231.005 250.892 224.111 257.76 224.111 266.232C224.111 274.704 231.005 281.572 239.508 281.572C248.012 281.572 254.905 274.704 254.905 266.232C254.905 257.76 248.012 250.892 239.508 250.892Z" fill="black"/>
<path d="M226.73 232.144C219.142 232.144 212.991 238.236 212.991 245.752C212.991 253.267 219.142 259.359 226.73 259.359C234.318 259.359 240.469 253.267 240.469 245.752C240.469 238.236 234.318 232.144 226.73 232.144Z" fill="#202020"/>
<path d="M248.865 232.144C241.277 232.144 235.126 238.236 235.126 245.752C235.126 253.267 241.277 259.359 248.865 259.359C256.452 259.359 262.603 253.267 262.603 245.752C262.603 238.236 256.452 232.144 248.865 232.144Z" fill="#202020"/>
<path d="M238.178 251.799C230.591 251.799 224.439 257.892 224.439 265.407C224.439 272.923 230.591 279.015 238.178 279.015C245.766 279.015 251.917 272.923 251.917 265.407C251.917 257.892 245.766 251.799 238.178 251.799Z" fill="#202020"/>
<path d="M227.92 346.545H222.284V313.273C222.284 310.303 222.83 307.78 223.92 305.705C225.011 303.629 226.549 302.053 228.534 300.977C230.519 299.902 232.86 299.364 235.557 299.364C238.102 299.364 240.367 299.826 242.352 300.75C244.337 301.689 245.898 303.023 247.034 304.75C248.17 306.477 248.739 308.53 248.739 310.909H243.193C243.193 309.591 242.867 308.439 242.216 307.455C241.549 306.485 240.64 305.727 239.489 305.182C238.337 304.636 237.027 304.364 235.557 304.364C233.936 304.364 232.557 304.705 231.42 305.386C230.284 306.068 229.42 307.068 228.83 308.386C228.223 309.72 227.92 311.348 227.92 313.273V346.545Z" fill="black"/>
<path d="M38.0795 15.4545H43.7159V48.7273C43.7159 51.697 43.1705 54.2197 42.0795 56.2955C40.9886 58.3712 39.4508 59.947 37.4659 61.0227C35.4811 62.0985 33.1402 62.6364 30.4432 62.6364C27.8977 62.6364 25.6326 62.1742 23.6477 61.25C21.6629 60.3106 20.1023 58.9773 18.9659 57.25C17.8295 55.5227 17.2614 53.4697 17.2614 51.0909H22.8068C22.8068 52.4091 23.1326 53.5606 23.7841 54.5455C24.4508 55.5152 25.3598 56.2727 26.5114 56.8182C27.6629 57.3636 28.9735 57.6364 30.4432 57.6364C32.0644 57.6364 33.4432 57.2955 34.5795 56.6136C35.7159 55.9318 36.5795 54.9318 37.1705 53.6136C37.7765 52.2803 38.0795 50.6515 38.0795 48.7273V15.4545Z" fill="black"/>
</g>
<defs>
<clipPath id="clip0_22_1894">
<rect width="278" height="365" fill="white"/>
</clipPath>
</defs>
</svg>
