<svg width="278" height="365" viewBox="0 0 278 365" fill="none" xmlns="http://www.w3.org/2000/svg">
<g clip-path="url(#clip0_22_1814)">
<path d="M266.88 0H11.12C4.97859 0 0 4.66903 0 10.4286V354.571C0 360.331 4.97859 365 11.12 365H266.88C273.021 365 278 360.331 278 354.571V10.4286C278 4.66903 273.021 0 266.88 0Z" fill="white"/>
<path d="M42.3413 133.341C41.1861 132.253 40.041 130.961 38.9199 129.448C37.922 130.578 35.8407 132.938 35.4985 133.341C37.0666 140.043 37.4658 154.042 26.5168 156.429H38.9199H51.3228C40.3739 154.042 40.7731 140.043 42.3413 133.341Z" fill="#202020"/>
<path d="M51.3232 136.266C59.8268 136.266 66.7202 129.398 66.7202 120.926C66.7202 112.454 59.8268 105.586 51.3232 105.586C42.8197 105.586 35.9263 112.454 35.9263 120.926C35.9263 129.398 42.8197 136.266 51.3232 136.266Z" fill="black"/>
<path d="M26.5171 136.266C35.0206 136.266 41.9141 129.398 41.9141 120.926C41.9141 112.454 35.0206 105.586 26.5171 105.586C18.0136 105.586 11.1201 112.454 11.1201 120.926C11.1201 129.398 18.0136 136.266 26.5171 136.266Z" fill="black"/>
<path d="M38.4922 114.108C46.9957 114.108 53.8892 107.24 53.8892 98.7685C53.8892 90.2966 46.9957 83.4287 38.4922 83.4287C29.9887 83.4287 23.0952 90.2966 23.0952 98.7685C23.0952 107.24 29.9887 114.108 38.4922 114.108Z" fill="black"/>
<path d="M51.2703 132.856C58.858 132.856 65.009 126.764 65.009 119.248C65.009 111.733 58.858 105.641 51.2703 105.641C43.6825 105.641 37.5315 111.733 37.5315 119.248C37.5315 126.764 43.6825 132.856 51.2703 132.856Z" fill="#202020"/>
<path d="M29.1355 132.856C36.7232 132.856 42.8743 126.764 42.8743 119.248C42.8743 111.733 36.7232 105.641 29.1355 105.641C21.5478 105.641 15.3967 111.733 15.3967 119.248C15.3967 126.764 21.5478 132.856 29.1355 132.856Z" fill="#202020"/>
<path d="M39.8215 113.201C47.4092 113.201 53.5603 107.109 53.5603 99.5932C53.5603 92.0778 47.4092 85.9854 39.8215 85.9854C32.2338 85.9854 26.0828 92.0778 26.0828 99.5932C26.0828 107.109 32.2338 113.201 39.8215 113.201Z" fill="#202020"/>
<path d="M235.658 231.659C236.814 232.747 237.959 234.039 239.08 235.552C240.079 234.422 242.159 232.062 242.502 231.659C240.934 224.957 240.535 210.957 251.483 208.571H239.08H226.677C237.627 210.957 237.227 224.957 235.658 231.659Z" fill="#202020"/>
<path d="M226.677 228.734C218.173 228.734 211.28 235.602 211.28 244.074C211.28 252.546 218.173 259.414 226.677 259.414C235.18 259.414 242.074 252.546 242.074 244.074C242.074 235.602 235.18 228.734 226.677 228.734Z" fill="black"/>
<path d="M251.483 228.734C242.98 228.734 236.086 235.602 236.086 244.074C236.086 252.546 242.98 259.414 251.483 259.414C259.987 259.414 266.88 252.546 266.88 244.074C266.88 235.602 259.987 228.734 251.483 228.734Z" fill="black"/>
<path d="M239.508 250.892C231.005 250.892 224.111 257.76 224.111 266.232C224.111 274.704 231.005 281.572 239.508 281.572C248.012 281.572 254.905 274.704 254.905 266.232C254.905 257.76 248.012 250.892 239.508 250.892Z" fill="black"/>
<path d="M226.73 232.144C219.142 232.144 212.991 238.236 212.991 245.752C212.991 253.267 219.142 259.359 226.73 259.359C234.318 259.359 240.469 253.267 240.469 245.752C240.469 238.236 234.318 232.144 226.73 232.144Z" fill="#202020"/>
<path d="M248.865 232.144C241.277 232.144 235.126 238.236 235.126 245.752C235.126 253.267 241.277 259.359 248.865 259.359C256.452 259.359 262.603 253.267 262.603 245.752C262.603 238.236 256.452 232.144 248.865 232.144Z" fill="#202020"/>
<path d="M238.178 251.799C230.591 251.799 224.439 257.892 224.439 265.407C224.439 272.923 230.591 279.015 238.178 279.015C245.766 279.015 251.917 272.923 251.917 265.407C251.917 257.892 245.766 251.799 238.178 251.799Z" fill="#202020"/>
<path d="M234.696 299.364C236.605 299.394 238.514 299.758 240.423 300.455C242.332 301.152 244.075 302.326 245.651 303.977C247.226 305.644 248.491 307.894 249.446 310.727C250.401 313.576 250.878 317.152 250.878 321.455C250.878 325.576 250.491 329.227 249.719 332.409C248.946 335.606 247.825 338.295 246.355 340.477C244.885 342.674 243.113 344.341 241.037 345.477C238.946 346.614 236.59 347.182 233.969 347.182C231.363 347.182 229.045 346.659 227.014 345.614C224.969 344.583 223.302 343.144 222.014 341.295C220.726 339.447 219.893 337.318 219.514 334.909H225.06C225.575 337 226.575 338.735 228.06 340.114C229.545 341.492 231.514 342.182 233.969 342.182C237.575 342.182 240.416 340.614 242.491 337.477C244.552 334.341 245.59 329.939 245.605 324.273H245.241C244.393 325.561 243.385 326.659 242.219 327.568C241.037 328.492 239.734 329.205 238.31 329.705C236.885 330.205 235.378 330.455 233.787 330.455C231.12 330.455 228.681 329.788 226.469 328.455C224.257 327.136 222.484 325.311 221.151 322.977C219.817 320.659 219.151 318 219.151 315C219.151 312.121 219.795 309.485 221.082 307.091C222.37 304.712 224.181 302.818 226.514 301.409C228.832 300.015 231.56 299.333 234.696 299.364ZM234.696 304.364C232.787 304.364 231.075 304.841 229.56 305.795C228.029 306.75 226.825 308.03 225.946 309.636C225.052 311.242 224.605 313.03 224.605 315C224.605 316.924 225.037 318.674 225.901 320.25C226.749 321.841 227.923 323.106 229.423 324.045C230.908 324.985 232.605 325.455 234.514 325.455C235.954 325.455 237.295 325.167 238.537 324.591C239.779 324.03 240.87 323.258 241.81 322.273C242.734 321.288 243.461 320.159 243.991 318.886C244.522 317.629 244.787 316.303 244.787 314.909C244.787 313.061 244.355 311.333 243.491 309.727C242.613 308.121 241.416 306.826 239.901 305.841C238.37 304.856 236.635 304.364 234.696 304.364Z" fill="black"/>
<path d="M29.304 62.6364C27.3949 62.6061 25.4858 62.2424 23.5767 61.5455C21.6676 60.8485 19.9252 59.6742 18.3494 58.0227C16.7737 56.3561 15.5085 54.1061 14.554 51.2727C13.5994 48.4242 13.1222 44.8485 13.1222 40.5455C13.1222 36.4242 13.5085 32.7727 14.2812 29.5909C15.054 26.3939 16.1752 23.7045 17.6449 21.5227C19.1146 19.3258 20.8873 17.6591 22.9631 16.5227C25.054 15.3864 27.41 14.8182 30.0312 14.8182C32.6373 14.8182 34.9555 15.3409 36.9858 16.3864C39.0313 17.4167 40.6979 18.8561 41.9858 20.7045C43.2737 22.553 44.107 24.6818 44.4858 27.0909H38.9403C38.4252 25 37.4252 23.2652 35.9403 21.8864C34.4555 20.5076 32.4858 19.8182 30.0312 19.8182C26.4252 19.8182 23.5843 21.3864 21.5085 24.5227C19.4479 27.6591 18.41 32.0606 18.3949 37.7273H18.7585C19.607 36.4394 20.6146 35.3409 21.7812 34.4318C22.9631 33.5076 24.2661 32.7955 25.6903 32.2955C27.1146 31.7955 28.6222 31.5455 30.2131 31.5455C32.8797 31.5455 35.3191 32.2121 37.5312 33.5455C39.7434 34.8636 41.5161 36.6894 42.8494 39.0227C44.1828 41.3409 44.8494 44 44.8494 47C44.8494 49.8788 44.2055 52.5152 42.9176 54.9091C41.6297 57.2879 39.8191 59.1818 37.4858 60.5909C35.1676 61.9848 32.4403 62.6667 29.304 62.6364ZM29.304 57.6364C31.2131 57.6364 32.9252 57.1591 34.4403 56.2045C35.9706 55.25 37.1752 53.9697 38.054 52.3636C38.9479 50.7576 39.3949 48.9697 39.3949 47C39.3949 45.0758 38.9631 43.3258 38.0994 41.75C37.2509 40.1591 36.0767 38.8939 34.5767 37.9545C33.0919 37.0152 31.3949 36.5455 29.4858 36.5455C28.0464 36.5455 26.7055 36.8333 25.4631 37.4091C24.2206 37.9697 23.1297 38.7424 22.1903 39.7273C21.2661 40.7121 20.5388 41.8409 20.0085 43.1136C19.4782 44.3712 19.2131 45.697 19.2131 47.0909C19.2131 48.9394 19.6449 50.6667 20.5085 52.2727C21.3873 53.8788 22.5843 55.1742 24.0994 56.1591C25.6297 57.1439 27.3646 57.6364 29.304 57.6364Z" fill="black"/>
</g>
<defs>
<clipPath id="clip0_22_1814">
<rect width="278" height="365" fill="white"/>
</clipPath>
</defs>
</svg>
