<svg width="278" height="365" viewBox="0 0 278 365" fill="none" xmlns="http://www.w3.org/2000/svg">
<path d="M266.88 0H11.12C4.97859 0 0 4.66903 0 10.4286V354.571C0 360.331 4.97859 365 11.12 365H266.88C273.021 365 278 360.331 278 354.571V10.4286C278 4.66903 273.021 0 266.88 0Z" fill="white"/>
<path d="M42.3412 133.341C41.186 132.253 40.0409 130.961 38.9197 129.448C37.9218 130.578 35.8406 132.938 35.4983 133.341C37.0665 140.043 37.4657 154.042 26.5167 156.429H38.9197H51.3227C40.3738 154.042 40.773 140.043 42.3412 133.341Z" fill="#202020"/>
<path d="M51.3231 136.266C59.8266 136.266 66.7201 129.398 66.7201 120.926C66.7201 112.454 59.8266 105.586 51.3231 105.586C42.8196 105.586 35.9261 112.454 35.9261 120.926C35.9261 129.398 42.8196 136.266 51.3231 136.266Z" fill="black"/>
<path d="M26.517 136.266C35.0205 136.266 41.9139 129.398 41.9139 120.926C41.9139 112.454 35.0205 105.586 26.517 105.586C18.0135 105.586 11.12 112.454 11.12 120.926C11.12 129.398 18.0135 136.266 26.517 136.266Z" fill="black"/>
<path d="M38.4921 114.108C46.9956 114.108 53.889 107.24 53.889 98.7685C53.889 90.2966 46.9956 83.4287 38.4921 83.4287C29.9886 83.4287 23.0951 90.2966 23.0951 98.7685C23.0951 107.24 29.9886 114.108 38.4921 114.108Z" fill="black"/>
<path d="M51.2703 132.856C58.858 132.856 65.009 126.764 65.009 119.248C65.009 111.733 58.858 105.641 51.2703 105.641C43.6825 105.641 37.5315 111.733 37.5315 119.248C37.5315 126.764 43.6825 132.856 51.2703 132.856Z" fill="#202020"/>
<path d="M29.1354 132.856C36.7231 132.856 42.8741 126.764 42.8741 119.248C42.8741 111.733 36.7231 105.641 29.1354 105.641C21.5477 105.641 15.3966 111.733 15.3966 119.248C15.3966 126.764 21.5477 132.856 29.1354 132.856Z" fill="#202020"/>
<path d="M39.8216 113.201C47.4094 113.201 53.5604 107.109 53.5604 99.5932C53.5604 92.0778 47.4094 85.9854 39.8216 85.9854C32.2339 85.9854 26.0829 92.0778 26.0829 99.5932C26.0829 107.109 32.2339 113.201 39.8216 113.201Z" fill="#202020"/>
<path d="M235.658 231.659C236.814 232.747 237.959 234.039 239.08 235.552C240.079 234.422 242.159 232.062 242.502 231.659C240.934 224.957 240.535 210.957 251.483 208.571H239.08H226.677C237.627 210.957 237.227 224.957 235.658 231.659Z" fill="#202020"/>
<path d="M226.677 228.734C218.173 228.734 211.28 235.602 211.28 244.074C211.28 252.546 218.173 259.414 226.677 259.414C235.18 259.414 242.074 252.546 242.074 244.074C242.074 235.602 235.18 228.734 226.677 228.734Z" fill="black"/>
<path d="M251.483 228.734C242.98 228.734 236.086 235.602 236.086 244.074C236.086 252.546 242.98 259.414 251.483 259.414C259.987 259.414 266.88 252.546 266.88 244.074C266.88 235.602 259.987 228.734 251.483 228.734Z" fill="black"/>
<path d="M239.508 250.892C231.005 250.892 224.111 257.76 224.111 266.232C224.111 274.704 231.005 281.572 239.508 281.572C248.012 281.572 254.905 274.704 254.905 266.232C254.905 257.76 248.012 250.892 239.508 250.892Z" fill="black"/>
<path d="M226.73 232.144C219.142 232.144 212.991 238.236 212.991 245.752C212.991 253.267 219.142 259.359 226.73 259.359C234.318 259.359 240.469 253.267 240.469 245.752C240.469 238.236 234.318 232.144 226.73 232.144Z" fill="#202020"/>
<path d="M248.865 232.144C241.277 232.144 235.126 238.236 235.126 245.752C235.126 253.267 241.277 259.359 248.865 259.359C256.452 259.359 262.603 253.267 262.603 245.752C262.603 238.236 256.452 232.144 248.865 232.144Z" fill="#202020"/>
<path d="M238.178 251.799C230.59 251.799 224.439 257.892 224.439 265.407C224.439 272.923 230.59 279.015 238.178 279.015C245.766 279.015 251.917 272.923 251.917 265.407C251.917 257.892 245.766 251.799 238.178 251.799Z" fill="#202020"/>
<path d="M232.332 347.182C230.423 347.167 228.514 346.803 226.605 346.091C224.696 345.379 222.954 344.197 221.378 342.545C219.802 340.909 218.537 338.674 217.582 335.841C216.628 333.008 216.151 329.455 216.151 325.182C216.151 321.045 216.545 317.371 217.332 314.159C218.105 310.962 219.226 308.265 220.696 306.068C222.151 303.871 223.923 302.205 226.014 301.068C228.09 299.932 230.438 299.364 233.06 299.364C235.666 299.364 237.991 299.879 240.037 300.909C242.067 301.955 243.734 303.402 245.037 305.25C246.325 307.114 247.151 309.273 247.514 311.727H241.969C241.469 309.591 240.476 307.826 238.991 306.432C237.491 305.053 235.514 304.364 233.06 304.364C229.469 304.364 226.635 305.932 224.56 309.068C222.469 312.205 221.423 316.636 221.423 322.364H221.787C222.635 321.091 223.643 319.992 224.81 319.068C225.976 318.144 227.272 317.432 228.696 316.932C230.12 316.432 231.635 316.182 233.241 316.182C235.908 316.182 238.355 316.841 240.582 318.159C242.795 319.492 244.567 321.318 245.901 323.636C247.219 325.97 247.878 328.636 247.878 331.636C247.878 334.485 247.241 337.091 245.969 339.455C244.681 341.833 242.878 343.727 240.56 345.136C238.226 346.545 235.484 347.227 232.332 347.182ZM232.332 342.182C234.241 342.182 235.961 341.705 237.491 340.75C239.007 339.811 240.211 338.538 241.105 336.932C241.984 335.341 242.423 333.576 242.423 331.636C242.423 329.697 241.999 327.932 241.151 326.341C240.287 324.765 239.113 323.508 237.628 322.568C236.128 321.644 234.423 321.182 232.514 321.182C231.075 321.182 229.734 321.462 228.491 322.023C227.249 322.598 226.166 323.379 225.241 324.364C224.302 325.364 223.567 326.492 223.037 327.75C222.507 329.023 222.241 330.348 222.241 331.727C222.241 333.545 222.681 335.25 223.56 336.841C224.423 338.432 225.62 339.72 227.151 340.705C228.666 341.689 230.393 342.182 232.332 342.182Z" fill="black"/>
<path d="M35.6676 14.8182C37.5767 14.8333 39.4858 15.197 41.3949 15.9091C43.304 16.6212 45.0464 17.803 46.6222 19.4545C48.1979 21.0909 49.4631 23.3258 50.4176 26.1591C51.3722 28.9924 51.8494 32.5455 51.8494 36.8182C51.8494 40.9545 51.4555 44.6288 50.6676 47.8409C49.8949 51.0379 48.7737 53.7348 47.304 55.9318C45.8494 58.1288 44.0767 59.7955 41.9858 60.9318C39.91 62.0682 37.5616 62.6364 34.9403 62.6364C32.3343 62.6364 30.0085 62.1212 27.9631 61.0909C25.9328 60.0455 24.2661 58.5985 22.9631 56.75C21.6752 54.8864 20.8494 52.7273 20.4858 50.2727H26.0312C26.5312 52.4091 27.5237 54.1742 29.0085 55.5682C30.5085 56.947 32.4858 57.6364 34.9403 57.6364C38.5313 57.6364 41.3646 56.0682 43.4403 52.9318C45.5313 49.7955 46.5767 45.3636 46.5767 39.6364H46.2131C45.3646 40.9091 44.357 42.0076 43.1903 42.9318C42.0237 43.8561 40.7282 44.5682 39.304 45.0682C37.8797 45.5682 36.3646 45.8182 34.7585 45.8182C32.0919 45.8182 29.6449 45.1591 27.4176 43.8409C25.2055 42.5076 23.4328 40.6818 22.0994 38.3636C20.7812 36.0303 20.1222 33.3636 20.1222 30.3636C20.1222 27.5152 20.7585 24.9091 22.0312 22.5455C23.3191 20.1667 25.1222 18.2727 27.4403 16.8636C29.7737 15.4545 32.5161 14.7727 35.6676 14.8182ZM35.6676 19.8182C33.7585 19.8182 32.0388 20.2955 30.5085 21.25C28.9934 22.1894 27.7888 23.4621 26.8949 25.0682C26.0161 26.6591 25.5767 28.4242 25.5767 30.3636C25.5767 32.303 26.0009 34.0682 26.8494 35.6591C27.7131 37.2348 28.8873 38.4924 30.3722 39.4318C31.8722 40.3561 33.5767 40.8182 35.4858 40.8182C36.9252 40.8182 38.2661 40.5379 39.5085 39.9773C40.7509 39.4015 41.8343 38.6212 42.7585 37.6364C43.6979 36.6364 44.4328 35.5076 44.9631 34.25C45.4934 32.9773 45.7585 31.6515 45.7585 30.2727C45.7585 28.4545 45.3191 26.75 44.4403 25.1591C43.5767 23.5682 42.3797 22.2803 40.8494 21.2955C39.3343 20.3106 37.607 19.8182 35.6676 19.8182Z" fill="black"/>
</svg>
