<svg width="278" height="365" viewBox="0 0 278 365" fill="none" xmlns="http://www.w3.org/2000/svg">
<path d="M266.88 0H11.12C4.97859 0 0 4.66903 0 10.4286V354.571C0 360.331 4.97859 365 11.12 365H266.88C273.021 365 278 360.331 278 354.571V10.4286C278 4.66903 273.021 0 266.88 0Z" fill="white"/>
<path d="M22.2401 114.714L38.92 83.4286L55.6 114.714L38.92 156.429L22.2401 114.714Z" fill="#FF0000"/>
<path d="M22.2401 114.714L38.92 83.4286L55.6 114.714L38.92 156.429L22.2401 114.714Z" fill="#FF0000"/>
<path d="M33.36 119.929L38.92 83.4286L55.6 114.714L38.92 156.429L33.36 119.929Z" fill="#8C0000"/>
<path d="M255.76 250.286L239.08 281.571L222.4 250.286L239.08 208.571L255.76 250.286Z" fill="#FF0000"/>
<path d="M255.76 250.286L239.08 281.571L222.4 250.286L239.08 208.571L255.76 250.286Z" fill="#FF0000"/>
<path d="M244.64 245.071L239.08 281.571L222.4 250.286L239.08 208.571L244.64 245.071Z" fill="#8C0000"/>
<path d="M28.7614 62V15.4545H34.3977V38.5455H34.9432L55.8523 15.4545H63.2159L43.6705 36.4545L63.2159 62H56.3977L40.2159 40.3636L34.3977 46.9091V62H28.7614Z" fill="black"/>
<path d="M249.239 303V349.545H243.602V326.455H243.057L222.148 349.545H214.784L234.33 328.545L214.784 303H221.602L237.784 324.636L243.602 318.091V303H249.239Z" fill="black"/>
</svg>
