<svg width="278" height="365" viewBox="0 0 278 365" fill="none" xmlns="http://www.w3.org/2000/svg">
<path d="M266.88 0H11.12C4.97859 0 0 4.66903 0 10.4286V354.571C0 360.331 4.97859 365 11.12 365H266.88C273.021 365 278 360.331 278 354.571V10.4286C278 4.66903 273.021 0 266.88 0Z" fill="white"/>
<path d="M22.2402 114.714L38.9201 83.4286L55.6001 114.714L38.9201 156.429L22.2402 114.714Z" fill="#FF0000"/>
<path d="M22.2402 114.714L38.9201 83.4286L55.6001 114.714L38.9201 156.429L22.2402 114.714Z" fill="#FF0000"/>
<path d="M33.3601 119.929L38.9201 83.4286L55.6001 114.714L38.9201 156.429L33.3601 119.929Z" fill="#8C0000"/>
<path d="M255.76 250.286L239.08 281.571L222.4 250.286L239.08 208.571L255.76 250.286Z" fill="#FF0000"/>
<path d="M255.76 250.286L239.08 281.571L222.4 250.286L239.08 208.571L255.76 250.286Z" fill="#FF0000"/>
<path d="M244.64 245.071L239.08 281.571L222.4 250.286L239.08 208.571L244.64 245.071Z" fill="#8C0000"/>
<path d="M34.6676 14.8182C36.5767 14.8333 38.4858 15.197 40.3949 15.9091C42.304 16.6212 44.0464 17.803 45.6222 19.4545C47.1979 21.0909 48.4631 23.3258 49.4176 26.1591C50.3722 28.9924 50.8494 32.5455 50.8494 36.8182C50.8494 40.9545 50.4555 44.6288 49.6676 47.8409C48.8949 51.0379 47.7737 53.7348 46.304 55.9318C44.8494 58.1288 43.0767 59.7955 40.9858 60.9318C38.91 62.0682 36.5616 62.6364 33.9403 62.6364C31.3343 62.6364 29.0085 62.1212 26.9631 61.0909C24.9328 60.0455 23.2661 58.5985 21.9631 56.75C20.6752 54.8864 19.8494 52.7273 19.4858 50.2727H25.0312C25.5312 52.4091 26.5237 54.1742 28.0085 55.5682C29.5085 56.947 31.4858 57.6364 33.9403 57.6364C37.5313 57.6364 40.3646 56.0682 42.4403 52.9318C44.5313 49.7955 45.5767 45.3636 45.5767 39.6364H45.2131C44.3646 40.9091 43.357 42.0076 42.1903 42.9318C41.0237 43.8561 39.7282 44.5682 38.304 45.0682C36.8797 45.5682 35.3646 45.8182 33.7585 45.8182C31.0919 45.8182 28.6449 45.1591 26.4176 43.8409C24.2055 42.5076 22.4328 40.6818 21.0994 38.3636C19.7812 36.0303 19.1222 33.3636 19.1222 30.3636C19.1222 27.5152 19.7585 24.9091 21.0312 22.5455C22.3191 20.1667 24.1222 18.2727 26.4403 16.8636C28.7737 15.4545 31.5161 14.7727 34.6676 14.8182ZM34.6676 19.8182C32.7585 19.8182 31.0388 20.2955 29.5085 21.25C27.9934 22.1894 26.7888 23.4621 25.8949 25.0682C25.0161 26.6591 24.5767 28.4242 24.5767 30.3636C24.5767 32.303 25.0009 34.0682 25.8494 35.6591C26.7131 37.2348 27.8873 38.4924 29.3722 39.4318C30.8722 40.3561 32.5767 40.8182 34.4858 40.8182C35.9252 40.8182 37.2661 40.5379 38.5085 39.9773C39.7509 39.4015 40.8343 38.6212 41.7585 37.6364C42.6979 36.6364 43.4328 35.5076 43.9631 34.25C44.4934 32.9773 44.7585 31.6515 44.7585 30.2727C44.7585 28.4545 44.3191 26.75 43.4403 25.1591C42.5767 23.5682 41.3797 22.2803 39.8494 21.2955C38.3343 20.3106 36.607 19.8182 34.6676 19.8182Z" fill="black"/>
<path d="M236.332 350.182C234.423 350.167 232.514 349.803 230.605 349.091C228.696 348.379 226.954 347.197 225.378 345.545C223.802 343.909 222.537 341.674 221.582 338.841C220.628 336.008 220.151 332.455 220.151 328.182C220.151 324.045 220.545 320.371 221.332 317.159C222.105 313.962 223.226 311.265 224.696 309.068C226.151 306.871 227.923 305.205 230.014 304.068C232.09 302.932 234.438 302.364 237.06 302.364C239.666 302.364 241.991 302.879 244.037 303.909C246.067 304.955 247.734 306.402 249.037 308.25C250.325 310.114 251.151 312.273 251.514 314.727H245.969C245.469 312.591 244.476 310.826 242.991 309.432C241.491 308.053 239.514 307.364 237.06 307.364C233.469 307.364 230.635 308.932 228.56 312.068C226.469 315.205 225.423 319.636 225.423 325.364H225.787C226.635 324.091 227.643 322.992 228.81 322.068C229.976 321.144 231.272 320.432 232.696 319.932C234.12 319.432 235.635 319.182 237.241 319.182C239.908 319.182 242.355 319.841 244.582 321.159C246.795 322.492 248.567 324.318 249.901 326.636C251.219 328.97 251.878 331.636 251.878 334.636C251.878 337.485 251.241 340.091 249.969 342.455C248.681 344.833 246.878 346.727 244.56 348.136C242.226 349.545 239.484 350.227 236.332 350.182ZM236.332 345.182C238.241 345.182 239.961 344.705 241.491 343.75C243.007 342.811 244.211 341.538 245.105 339.932C245.984 338.341 246.423 336.576 246.423 334.636C246.423 332.697 245.999 330.932 245.151 329.341C244.287 327.765 243.113 326.508 241.628 325.568C240.128 324.644 238.423 324.182 236.514 324.182C235.075 324.182 233.734 324.462 232.491 325.023C231.249 325.598 230.166 326.379 229.241 327.364C228.302 328.364 227.567 329.492 227.037 330.75C226.507 332.023 226.241 333.348 226.241 334.727C226.241 336.545 226.681 338.25 227.56 339.841C228.423 341.432 229.62 342.72 231.151 343.705C232.666 344.689 234.393 345.182 236.332 345.182Z" fill="black"/>
</svg>
