<svg width="25" height="35" viewBox="0 0 25 35" fill="none" xmlns="http://www.w3.org/2000/svg">
<rect width="25" height="35" rx="1" fill="white"/>
<path d="M2.00001 11L3.5 8L5 11L3.5 15L2.00001 11Z" fill="#FF0000"/>
<path d="M2.00001 11L3.5 8L5 11L3.5 15L2.00001 11Z" fill="#FF0000"/>
<path d="M3 11.5L3.5 8.00001L5 11L3.5 15L3 11.5Z" fill="#8C0000"/>
<path d="M23 24L21.5 27L20 24L21.5 20L23 24Z" fill="#FF0000"/>
<path d="M23 24L21.5 27L20 24L21.5 20L23 24Z" fill="#FF0000"/>
<path d="M22 23.5L21.5 27L20 24L21.5 20L22 23.5Z" fill="#8C0000"/>
</svg>
