<svg width="278" height="365" viewBox="0 0 278 365" fill="none" xmlns="http://www.w3.org/2000/svg">
<path d="M266.88 0H11.12C4.97859 0 0 4.66903 0 10.4286V354.571C0 360.331 4.97859 365 11.12 365H266.88C273.021 365 278 360.331 278 354.571V10.4286C278 4.66903 273.021 0 266.88 0Z" fill="white"/>
<path d="M22.2401 114.714L38.92 83.4286L55.6 114.714L38.92 156.429L22.2401 114.714Z" fill="#FF0000"/>
<path d="M22.2401 114.714L38.92 83.4286L55.6 114.714L38.92 156.429L22.2401 114.714Z" fill="#FF0000"/>
<path d="M33.36 119.929L38.92 83.4286L55.6 114.714L38.92 156.429L33.36 119.929Z" fill="#8C0000"/>
<path d="M255.76 250.286L239.08 281.571L222.4 250.286L239.08 208.571L255.76 250.286Z" fill="#FF0000"/>
<path d="M255.76 250.286L239.08 281.571L222.4 250.286L239.08 208.571L255.76 250.286Z" fill="#FF0000"/>
<path d="M244.64 245.071L239.08 281.571L222.4 250.286L239.08 208.571L244.64 245.071Z" fill="#8C0000"/>
<path d="M20.9205 62H15.0114L32.1023 15.4545H37.9205L55.0114 62H49.1023L35.1932 22.8182H34.8295L20.9205 62ZM23.1023 43.8182H46.9205V48.8182H23.1023V43.8182Z" fill="black"/>
<path d="M248.08 303H253.989L236.898 349.545H231.08L213.989 303H219.898L233.807 342.182H234.17L248.08 303ZM245.898 321.182H222.08V316.182H245.898V321.182Z" fill="black"/>
</svg>
