<svg width="278" height="365" viewBox="0 0 278 365" fill="none" xmlns="http://www.w3.org/2000/svg">
<path d="M266.88 0H11.12C4.97859 0 0 4.66903 0 10.4286V354.571C0 360.331 4.97859 365 11.12 365H266.88C273.021 365 278 360.331 278 354.571V10.4286C278 4.66903 273.021 0 266.88 0Z" fill="white"/>
<path d="M22.2402 114.714L38.9201 83.4286L55.6001 114.714L38.9201 156.429L22.2402 114.714Z" fill="#FF0000"/>
<path d="M22.2402 114.714L38.9201 83.4286L55.6001 114.714L38.9201 156.429L22.2402 114.714Z" fill="#FF0000"/>
<path d="M33.3601 119.929L38.9201 83.4286L55.6001 114.714L38.9201 156.429L33.3601 119.929Z" fill="#8C0000"/>
<path d="M255.76 250.286L239.08 281.571L222.4 250.286L239.08 208.571L255.76 250.286Z" fill="#FF0000"/>
<path d="M255.76 250.286L239.08 281.571L222.4 250.286L239.08 208.571L255.76 250.286Z" fill="#FF0000"/>
<path d="M244.64 245.071L239.08 281.571L222.4 250.286L239.08 208.571L244.64 245.071Z" fill="#8C0000"/>
<path d="M21.3068 15.4545V62H15.6705V21.3636H15.3977L4.03409 28.9091V23.1818L15.6705 15.4545H21.3068ZM49.875 62.6364C46.4508 62.6364 43.5341 61.7045 41.125 59.8409C38.7159 57.9621 36.875 55.2424 35.6023 51.6818C34.3295 48.1061 33.6932 43.7879 33.6932 38.7273C33.6932 33.697 34.3295 29.4015 35.6023 25.8409C36.8902 22.2652 38.7386 19.5379 41.1477 17.6591C43.572 15.7651 46.4811 14.8182 49.875 14.8182C53.2689 14.8182 56.1705 15.7651 58.5795 17.6591C61.0038 19.5379 62.8523 22.2652 64.125 25.8409C65.4129 29.4015 66.0568 33.697 66.0568 38.7273C66.0568 43.7879 65.4205 48.1061 64.1477 51.6818C62.875 55.2424 61.0341 57.9621 58.625 59.8409C56.2159 61.7045 53.2992 62.6364 49.875 62.6364ZM49.875 57.6364C53.2689 57.6364 55.9053 56 57.7841 52.7273C59.6629 49.4545 60.6023 44.7879 60.6023 38.7273C60.6023 34.697 60.1705 31.2652 59.3068 28.4318C58.4583 25.5985 57.2311 23.4394 55.625 21.9545C54.0341 20.4697 52.1174 19.7273 49.875 19.7273C46.5114 19.7273 43.8826 21.3864 41.9886 24.7045C40.0947 28.0076 39.1477 32.6818 39.1477 38.7273C39.1477 42.7576 39.572 46.1818 40.4205 49C41.2689 51.8182 42.4886 53.9621 44.0795 55.4318C45.6856 56.9015 47.6174 57.6364 49.875 57.6364Z" fill="black"/>
<path d="M252.693 349.545V303H258.33V343.636H258.602L269.966 336.091V341.818L258.33 349.545H252.693ZM224.125 302.364C227.549 302.364 230.466 303.295 232.875 305.159C235.284 307.038 237.125 309.758 238.398 313.318C239.67 316.894 240.307 321.212 240.307 326.273C240.307 331.303 239.67 335.598 238.398 339.159C237.11 342.735 235.261 345.462 232.852 347.341C230.428 349.235 227.519 350.182 224.125 350.182C220.731 350.182 217.83 349.235 215.42 347.341C212.996 345.462 211.148 342.735 209.875 339.159C208.587 335.598 207.943 331.303 207.943 326.273C207.943 321.212 208.58 316.894 209.852 313.318C211.125 309.758 212.966 307.038 215.375 305.159C217.784 303.295 220.701 302.364 224.125 302.364ZM224.125 307.364C220.731 307.364 218.095 309 216.216 312.273C214.337 315.545 213.398 320.212 213.398 326.273C213.398 330.303 213.83 333.735 214.693 336.568C215.542 339.402 216.769 341.561 218.375 343.045C219.966 344.53 221.883 345.273 224.125 345.273C227.489 345.273 230.117 343.614 232.011 340.295C233.905 336.992 234.852 332.318 234.852 326.273C234.852 322.242 234.428 318.818 233.58 316C232.731 313.182 231.511 311.038 229.92 309.568C228.314 308.098 226.383 307.364 224.125 307.364Z" fill="black"/>
</svg>
