<svg width="278" height="365" viewBox="0 0 278 365" fill="none" xmlns="http://www.w3.org/2000/svg">
<g clip-path="url(#clip0_22_1149)">
<path d="M266.88 0H11.12C4.97859 0 0 4.66903 0 10.4286V354.571C0 360.331 4.97859 365 11.12 365H266.88C273.021 365 278 360.331 278 354.571V10.4286C278 4.66903 273.021 0 266.88 0Z" fill="white"/>
<path d="M22.2402 114.714L38.9201 83.4286L55.6001 114.714L38.9201 156.429L22.2402 114.714Z" fill="#FF0000"/>
<path d="M22.2402 114.714L38.9201 83.4286L55.6001 114.714L38.9201 156.429L22.2402 114.714Z" fill="#FF0000"/>
<path d="M33.3601 119.929L38.9201 83.4287L55.6001 114.714L38.9201 156.429L33.3601 119.929Z" fill="#8C0000"/>
<path d="M255.76 250.286L239.08 281.571L222.4 250.286L239.08 208.571L255.76 250.286Z" fill="#FF0000"/>
<path d="M255.76 250.286L239.08 281.571L222.4 250.286L239.08 208.571L255.76 250.286Z" fill="#FF0000"/>
<path d="M244.64 245.071L239.08 281.571L222.4 250.286L239.08 208.571L244.64 245.071Z" fill="#8C0000"/>
<path d="M18.4432 62V57.9091L33.8068 41.0909C35.6098 39.1212 37.0947 37.4091 38.2614 35.9545C39.428 34.4848 40.2917 33.1061 40.8523 31.8182C41.428 30.5152 41.7159 29.1515 41.7159 27.7273C41.7159 26.0909 41.322 24.6742 40.5341 23.4773C39.7614 22.2803 38.7008 21.3561 37.3523 20.7045C36.0038 20.053 34.4886 19.7273 32.8068 19.7273C31.0189 19.7273 29.4583 20.0985 28.125 20.8409C26.8068 21.5682 25.7841 22.5909 25.0568 23.9091C24.3447 25.2273 23.9886 26.7727 23.9886 28.5455H18.625C18.625 25.8182 19.2538 23.4242 20.5114 21.3636C21.7689 19.303 23.4811 17.697 25.6477 16.5455C27.8295 15.3939 30.2765 14.8182 32.9886 14.8182C35.7159 14.8182 38.1326 15.3939 40.2386 16.5455C42.3447 17.697 43.9962 19.25 45.1932 21.2045C46.3902 23.1591 46.9886 25.3333 46.9886 27.7273C46.9886 29.4394 46.678 31.1136 46.0568 32.75C45.4508 34.3712 44.3902 36.1818 42.875 38.1818C41.375 40.1667 39.2917 42.5909 36.625 45.4545L26.1705 56.6364V57H47.8068V62H18.4432Z" fill="black"/>
<path d="M259.557 303V307.091L244.193 323.909C242.39 325.879 240.905 327.591 239.739 329.045C238.572 330.515 237.708 331.894 237.148 333.182C236.572 334.485 236.284 335.848 236.284 337.273C236.284 338.909 236.678 340.326 237.466 341.523C238.239 342.72 239.299 343.644 240.648 344.295C241.996 344.947 243.511 345.273 245.193 345.273C246.981 345.273 248.542 344.902 249.875 344.159C251.193 343.432 252.216 342.409 252.943 341.091C253.655 339.773 254.011 338.227 254.011 336.455H259.375C259.375 339.182 258.746 341.576 257.489 343.636C256.231 345.697 254.519 347.303 252.352 348.455C250.17 349.606 247.723 350.182 245.011 350.182C242.284 350.182 239.867 349.606 237.761 348.455C235.655 347.303 234.004 345.75 232.807 343.795C231.61 341.841 231.011 339.667 231.011 337.273C231.011 335.561 231.322 333.886 231.943 332.25C232.549 330.629 233.61 328.818 235.125 326.818C236.625 324.833 238.708 322.409 241.375 319.545L251.83 308.364V308H230.193V303H259.557Z" fill="black"/>
</g>
<defs>
<clipPath id="clip0_22_1149">
<rect width="278" height="365" fill="white"/>
</clipPath>
</defs>
</svg>
