<svg width="278" height="365" viewBox="0 0 278 365" fill="none" xmlns="http://www.w3.org/2000/svg">
<path d="M266.88 0H11.12C4.97859 0 0 4.66903 0 10.4286V354.571C0 360.331 4.97859 365 11.12 365H266.88C273.021 365 278 360.331 278 354.571V10.4286C278 4.66903 273.021 0 266.88 0Z" fill="white"/>
<path d="M22.2402 114.714L38.9201 83.4286L55.6001 114.714L38.9201 156.429L22.2402 114.714Z" fill="#FF0000"/>
<path d="M22.2402 114.714L38.9201 83.4286L55.6001 114.714L38.9201 156.429L22.2402 114.714Z" fill="#FF0000"/>
<path d="M33.3601 119.929L38.9201 83.4286L55.6001 114.714L38.9201 156.429L33.3601 119.929Z" fill="#8C0000"/>
<path d="M255.76 250.286L239.08 281.571L222.4 250.286L239.08 208.571L255.76 250.286Z" fill="#FF0000"/>
<path d="M255.76 250.286L239.08 281.571L222.4 250.286L239.08 208.571L255.76 250.286Z" fill="#FF0000"/>
<path d="M244.64 245.071L239.08 281.571L222.4 250.286L239.08 208.571L244.64 245.071Z" fill="#8C0000"/>
<path d="M42.0085 62.6364C38.8873 62.6364 36.1297 62.0833 33.7358 60.9773C31.357 59.8561 29.5009 58.3182 28.1676 56.3636C26.8343 54.3939 26.1752 52.1515 26.1903 49.6364C26.1752 47.6667 26.5616 45.8485 27.3494 44.1818C28.1373 42.5 29.2131 41.0985 30.5767 39.9773C31.9555 38.8409 33.4934 38.1212 35.1903 37.8182V37.5455C32.9631 36.9697 31.1903 35.7197 29.8722 33.7955C28.554 31.8561 27.9025 29.6515 27.9176 27.1818C27.9025 24.8182 28.5009 22.7045 29.7131 20.8409C30.9252 18.9773 32.5919 17.5076 34.7131 16.4318C36.8494 15.3561 39.2813 14.8182 42.0085 14.8182C44.7055 14.8182 47.1146 15.3561 49.2358 16.4318C51.357 17.5076 53.0237 18.9773 54.2358 20.8409C55.4631 22.7045 56.0843 24.8182 56.0994 27.1818C56.0843 29.6515 55.41 31.8561 54.0767 33.7955C52.7585 35.7197 51.0085 36.9697 48.8267 37.5455V37.8182C50.5085 38.1212 52.0237 38.8409 53.3722 39.9773C54.7206 41.0985 55.7964 42.5 56.5994 44.1818C57.4025 45.8485 57.8116 47.6667 57.8267 49.6364C57.8116 52.1515 57.1297 54.3939 55.7812 56.3636C54.4479 58.3182 52.5919 59.8561 50.2131 60.9773C47.8494 62.0833 45.1146 62.6364 42.0085 62.6364ZM42.0085 57.6364C44.1146 57.6364 45.9328 57.2955 47.4631 56.6136C48.9934 55.9318 50.1752 54.9697 51.0085 53.7273C51.8419 52.4848 52.2661 51.0303 52.2812 49.3636C52.2661 47.6061 51.8116 46.053 50.9176 44.7045C50.0237 43.3561 48.804 42.2955 47.2585 41.5227C45.7282 40.75 43.9782 40.3636 42.0085 40.3636C40.0237 40.3636 38.2509 40.75 36.6903 41.5227C35.1449 42.2955 33.9252 43.3561 33.0312 44.7045C32.1525 46.053 31.7206 47.6061 31.7358 49.3636C31.7206 51.0303 32.1222 52.4848 32.9403 53.7273C33.7737 54.9697 34.9631 55.9318 36.5085 56.6136C38.054 57.2955 39.8873 57.6364 42.0085 57.6364ZM42.0085 35.5455C43.6752 35.5455 45.1525 35.2121 46.4403 34.5455C47.7434 33.8788 48.7661 32.947 49.5085 31.75C50.2509 30.553 50.6297 29.1515 50.6449 27.5455C50.6297 25.9697 50.2585 24.5985 49.5312 23.4318C48.804 22.25 47.7964 21.3409 46.5085 20.7045C45.2206 20.053 43.7206 19.7273 42.0085 19.7273C40.2661 19.7273 38.7434 20.053 37.4403 20.7045C36.1373 21.3409 35.1297 22.25 34.4176 23.4318C33.7055 24.5985 33.357 25.9697 33.3722 27.5455C33.357 29.1515 33.7131 30.553 34.4403 31.75C35.1828 32.947 36.2055 33.8788 37.5085 34.5455C38.8116 35.2121 40.3116 35.5455 42.0085 35.5455Z" fill="black"/>
<path d="M241.991 302.364C245.113 302.364 247.87 302.917 250.264 304.023C252.643 305.144 254.499 306.682 255.832 308.636C257.166 310.606 257.825 312.848 257.81 315.364C257.825 317.333 257.438 319.152 256.651 320.818C255.863 322.5 254.787 323.902 253.423 325.023C252.045 326.159 250.507 326.879 248.81 327.182V327.455C251.037 328.03 252.81 329.28 254.128 331.205C255.446 333.144 256.098 335.348 256.082 337.818C256.098 340.182 255.499 342.295 254.287 344.159C253.075 346.023 251.408 347.492 249.287 348.568C247.151 349.644 244.719 350.182 241.991 350.182C239.295 350.182 236.885 349.644 234.764 348.568C232.643 347.492 230.976 346.023 229.764 344.159C228.537 342.295 227.916 340.182 227.901 337.818C227.916 335.348 228.59 333.144 229.923 331.205C231.241 329.28 232.991 328.03 235.173 327.455V327.182C233.491 326.879 231.976 326.159 230.628 325.023C229.279 323.902 228.204 322.5 227.401 320.818C226.598 319.152 226.188 317.333 226.173 315.364C226.188 312.848 226.87 310.606 228.219 308.636C229.552 306.682 231.408 305.144 233.787 304.023C236.151 302.917 238.885 302.364 241.991 302.364ZM241.991 307.364C239.885 307.364 238.067 307.705 236.537 308.386C235.007 309.068 233.825 310.03 232.991 311.273C232.158 312.515 231.734 313.97 231.719 315.636C231.734 317.394 232.188 318.947 233.082 320.295C233.976 321.644 235.196 322.705 236.741 323.477C238.272 324.25 240.022 324.636 241.991 324.636C243.976 324.636 245.749 324.25 247.31 323.477C248.855 322.705 250.075 321.644 250.969 320.295C251.848 318.947 252.279 317.394 252.264 315.636C252.279 313.97 251.878 312.515 251.06 311.273C250.226 310.03 249.037 309.068 247.491 308.386C245.946 307.705 244.113 307.364 241.991 307.364ZM241.991 329.455C240.325 329.455 238.848 329.788 237.56 330.455C236.257 331.121 235.234 332.053 234.491 333.25C233.749 334.447 233.37 335.848 233.355 337.455C233.37 339.03 233.741 340.402 234.469 341.568C235.196 342.75 236.204 343.659 237.491 344.295C238.779 344.947 240.279 345.273 241.991 345.273C243.734 345.273 245.257 344.947 246.56 344.295C247.863 343.659 248.87 342.75 249.582 341.568C250.295 340.402 250.643 339.03 250.628 337.455C250.643 335.848 250.287 334.447 249.56 333.25C248.817 332.053 247.795 331.121 246.491 330.455C245.188 329.788 243.688 329.455 241.991 329.455Z" fill="black"/>
</svg>
