<svg width="278" height="365" viewBox="0 0 278 365" fill="none" xmlns="http://www.w3.org/2000/svg">
<g clip-path="url(#clip0_22_1124)">
<path d="M266.88 0H11.12C4.97859 0 0 4.66903 0 10.4286V354.571C0 360.331 4.97859 365 11.12 365H266.88C273.021 365 278 360.331 278 354.571V10.4286C278 4.66903 273.021 0 266.88 0Z" fill="white"/>
<path d="M66.5388 84.9327C64.4093 73.6586 50.4278 66.6556 38.9198 81.2774C27.4119 66.6556 13.4307 73.6588 11.3011 84.9329C8.50954 99.7118 38.9198 114.261 38.9198 125.143C38.9198 114.261 69.3303 99.7117 66.5388 84.9327Z" fill="#FF0000"/>
<path d="M66.5387 84.9328C64.4092 73.6586 50.4276 69.7845 38.9198 84.4063C36.3134 74.2221 17.6154 74.4022 15.029 84.9328C11.3563 99.8863 38.9198 101.108 38.9198 125.143C38.9198 114.261 69.3303 99.7117 66.5387 84.9328Z" fill="#8C0000"/>
<path d="M211.461 280.068C213.591 291.341 227.572 298.345 239.08 283.723C250.588 298.345 264.569 291.341 266.699 280.068C269.491 265.288 239.08 250.739 239.08 239.857C239.08 250.739 208.67 265.288 211.461 280.068Z" fill="#FF0000"/>
<path d="M211.461 280.068C213.591 291.341 227.572 295.215 239.08 280.593C241.687 290.778 260.385 290.597 262.971 280.068C266.644 265.114 239.08 263.892 239.08 239.857C239.08 250.739 208.67 265.288 211.461 280.068Z" fill="#8C0000"/>
<path d="M255.223 310.978H261.133L244.042 357.524H238.223L221.133 310.978H227.042L240.951 350.16H241.314L255.223 310.978ZM253.042 329.16H229.223V324.16H253.042V329.16Z" fill="black"/>
<path d="M24.9205 62H19.0114L36.1023 15.4545H41.9205L59.0114 62H53.1023L39.1932 22.8182H38.8295L24.9205 62ZM27.1023 43.8182H50.9205V48.8182H27.1023V43.8182Z" fill="black"/>
</g>
<defs>
<clipPath id="clip0_22_1124">
<rect width="278" height="365" fill="white"/>
</clipPath>
</defs>
</svg>
