<svg width="278" height="365" viewBox="0 0 278 365" fill="none" xmlns="http://www.w3.org/2000/svg">
<path d="M266.88 0H11.12C4.97859 0 0 4.66903 0 10.4286V354.571C0 360.331 4.97859 365 11.12 365H266.88C273.021 365 278 360.331 278 354.571V10.4286C278 4.66903 273.021 0 266.88 0Z" fill="white"/>
<path d="M66.5388 84.9327C64.4093 73.6586 50.4278 66.6556 38.9198 81.2774C27.4119 66.6556 13.4307 73.6588 11.3011 84.9329C8.50954 99.7118 38.9198 114.261 38.9198 125.143C38.9198 114.261 69.3303 99.7117 66.5388 84.9327Z" fill="#FF0000"/>
<path d="M66.5387 84.9329C64.4091 73.6588 50.4276 69.7846 38.9197 84.4064C36.3133 74.2222 17.6154 74.4023 15.029 84.9329C11.3562 99.8864 38.9197 101.109 38.9197 125.143C38.9197 114.261 69.3303 99.7118 66.5387 84.9329Z" fill="#8C0000"/>
<path d="M211.461 280.068C213.591 291.341 227.572 298.345 239.08 283.723C250.588 298.345 264.569 291.341 266.699 280.068C269.491 265.288 239.08 250.739 239.08 239.857C239.08 250.739 208.67 265.288 211.461 280.068Z" fill="#FF0000"/>
<path d="M211.461 280.068C213.591 291.341 227.572 295.215 239.08 280.593C241.687 290.778 260.385 290.597 262.971 280.068C266.644 265.114 239.08 263.892 239.08 239.857C239.08 250.739 208.67 265.288 211.461 280.068Z" fill="#8C0000"/>
<path d="M232.711 302.364C235.832 302.364 238.59 302.917 240.984 304.023C243.363 305.144 245.219 306.682 246.552 308.636C247.885 310.606 248.544 312.848 248.529 315.364C248.544 317.333 248.158 319.152 247.37 320.818C246.582 322.5 245.507 323.902 244.143 325.023C242.764 326.159 241.226 326.879 239.529 327.182V327.455C241.757 328.03 243.529 329.28 244.847 331.205C246.166 333.144 246.817 335.348 246.802 337.818C246.817 340.182 246.219 342.295 245.007 344.159C243.794 346.023 242.128 347.492 240.007 348.568C237.87 349.644 235.438 350.182 232.711 350.182C230.014 350.182 227.605 349.644 225.484 348.568C223.363 347.492 221.696 346.023 220.484 344.159C219.257 342.295 218.635 340.182 218.62 337.818C218.635 335.348 219.31 333.144 220.643 331.205C221.961 329.28 223.711 328.03 225.893 327.455V327.182C224.211 326.879 222.696 326.159 221.347 325.023C219.999 323.902 218.923 322.5 218.12 320.818C217.317 319.152 216.908 317.333 216.893 315.364C216.908 312.848 217.59 310.606 218.938 308.636C220.272 306.682 222.128 305.144 224.507 304.023C226.87 302.917 229.605 302.364 232.711 302.364ZM232.711 307.364C230.605 307.364 228.787 307.705 227.257 308.386C225.726 309.068 224.544 310.03 223.711 311.273C222.878 312.515 222.454 313.97 222.438 315.636C222.454 317.394 222.908 318.947 223.802 320.295C224.696 321.644 225.916 322.705 227.461 323.477C228.991 324.25 230.741 324.636 232.711 324.636C234.696 324.636 236.469 324.25 238.029 323.477C239.575 322.705 240.794 321.644 241.688 320.295C242.567 318.947 242.999 317.394 242.984 315.636C242.999 313.97 242.597 312.515 241.779 311.273C240.946 310.03 239.757 309.068 238.211 308.386C236.666 307.705 234.832 307.364 232.711 307.364ZM232.711 329.455C231.044 329.455 229.567 329.788 228.279 330.455C226.976 331.121 225.954 332.053 225.211 333.25C224.469 334.447 224.09 335.848 224.075 337.455C224.09 339.03 224.461 340.402 225.188 341.568C225.916 342.75 226.923 343.659 228.211 344.295C229.499 344.947 230.999 345.273 232.711 345.273C234.454 345.273 235.976 344.947 237.279 344.295C238.582 343.659 239.59 342.75 240.302 341.568C241.014 340.402 241.363 339.03 241.347 337.455C241.363 335.848 241.007 334.447 240.279 333.25C239.537 332.053 238.514 331.121 237.211 330.455C235.908 329.788 234.408 329.455 232.711 329.455Z" fill="black"/>
<path d="M39.0085 62.6364C35.8873 62.6364 33.1297 62.0833 30.7358 60.9773C28.357 59.8561 26.5009 58.3182 25.1676 56.3636C23.8343 54.3939 23.1752 52.1515 23.1903 49.6364C23.1752 47.6667 23.5616 45.8485 24.3494 44.1818C25.1373 42.5 26.2131 41.0985 27.5767 39.9773C28.9555 38.8409 30.4934 38.1212 32.1903 37.8182V37.5455C29.9631 36.9697 28.1903 35.7197 26.8722 33.7955C25.554 31.8561 24.9025 29.6515 24.9176 27.1818C24.9025 24.8182 25.5009 22.7045 26.7131 20.8409C27.9252 18.9773 29.5919 17.5076 31.7131 16.4318C33.8494 15.3561 36.2813 14.8182 39.0085 14.8182C41.7055 14.8182 44.1146 15.3561 46.2358 16.4318C48.357 17.5076 50.0237 18.9773 51.2358 20.8409C52.4631 22.7045 53.0843 24.8182 53.0994 27.1818C53.0843 29.6515 52.41 31.8561 51.0767 33.7955C49.7585 35.7197 48.0085 36.9697 45.8267 37.5455V37.8182C47.5085 38.1212 49.0237 38.8409 50.3722 39.9773C51.7206 41.0985 52.7964 42.5 53.5994 44.1818C54.4025 45.8485 54.8116 47.6667 54.8267 49.6364C54.8116 52.1515 54.1297 54.3939 52.7812 56.3636C51.4479 58.3182 49.5919 59.8561 47.2131 60.9773C44.8494 62.0833 42.1146 62.6364 39.0085 62.6364ZM39.0085 57.6364C41.1146 57.6364 42.9328 57.2955 44.4631 56.6136C45.9934 55.9318 47.1752 54.9697 48.0085 53.7273C48.8419 52.4848 49.2661 51.0303 49.2812 49.3636C49.2661 47.6061 48.8116 46.053 47.9176 44.7045C47.0237 43.3561 45.804 42.2955 44.2585 41.5227C42.7282 40.75 40.9782 40.3636 39.0085 40.3636C37.0237 40.3636 35.2509 40.75 33.6903 41.5227C32.1449 42.2955 30.9252 43.3561 30.0312 44.7045C29.1525 46.053 28.7206 47.6061 28.7358 49.3636C28.7206 51.0303 29.1222 52.4848 29.9403 53.7273C30.7737 54.9697 31.9631 55.9318 33.5085 56.6136C35.054 57.2955 36.8873 57.6364 39.0085 57.6364ZM39.0085 35.5455C40.6752 35.5455 42.1525 35.2121 43.4403 34.5455C44.7434 33.8788 45.7661 32.947 46.5085 31.75C47.2509 30.553 47.6297 29.1515 47.6449 27.5455C47.6297 25.9697 47.2585 24.5985 46.5312 23.4318C45.804 22.25 44.7964 21.3409 43.5085 20.7045C42.2206 20.053 40.7206 19.7273 39.0085 19.7273C37.2661 19.7273 35.7434 20.053 34.4403 20.7045C33.1373 21.3409 32.1297 22.25 31.4176 23.4318C30.7055 24.5985 30.357 25.9697 30.3722 27.5455C30.357 29.1515 30.7131 30.553 31.4403 31.75C32.1828 32.947 33.2055 33.8788 34.5085 34.5455C35.8116 35.2121 37.3116 35.5455 39.0085 35.5455Z" fill="black"/>
</svg>
