<svg width="278" height="365" viewBox="0 0 278 365" fill="none" xmlns="http://www.w3.org/2000/svg">
<g clip-path="url(#clip0_22_1427)">
<path d="M266.88 0H11.12C4.97859 0 0 4.66903 0 10.4286V354.571C0 360.331 4.97859 365 11.12 365H266.88C273.021 365 278 360.331 278 354.571V10.4286C278 4.66903 273.021 0 266.88 0Z" fill="white"/>
<path d="M66.5386 84.9327C64.4092 73.6586 50.4277 66.6556 38.9197 81.2774C27.4118 66.6556 13.4305 73.6588 11.3009 84.9329C8.50942 99.7118 38.9197 114.261 38.9197 125.143C38.9197 114.261 69.3302 99.7117 66.5386 84.9327Z" fill="#FF0000"/>
<path d="M66.5388 84.9329C64.4092 73.6588 50.4277 69.7846 38.9198 84.4064C36.3134 74.2222 17.6155 74.4023 15.0291 84.9329C11.3564 99.8864 38.9198 101.109 38.9198 125.143C38.9198 114.261 69.3304 99.7118 66.5388 84.9329Z" fill="#8C0000"/>
<path d="M211.461 280.068C213.591 291.341 227.572 298.345 239.08 283.723C250.588 298.345 264.569 291.341 266.699 280.068C269.491 265.288 239.08 250.739 239.08 239.857C239.08 250.739 208.67 265.288 211.461 280.068Z" fill="#FF0000"/>
<path d="M211.461 280.068C213.591 291.341 227.572 295.215 239.08 280.593C241.687 290.778 260.385 290.597 262.971 280.068C266.644 265.114 239.08 263.892 239.08 239.857C239.08 250.739 208.67 265.288 211.461 280.068Z" fill="#8C0000"/>
<path d="M230.852 359.518H225.216V326.245C225.216 323.276 225.761 320.753 226.852 318.677C227.943 316.601 229.481 315.026 231.466 313.95C233.451 312.874 235.792 312.336 238.489 312.336C241.034 312.336 243.299 312.798 245.284 313.723C247.269 314.662 248.83 315.995 249.966 317.723C251.102 319.45 251.67 321.503 251.67 323.882H246.125C246.125 322.564 245.799 321.412 245.148 320.427C244.481 319.458 243.572 318.7 242.42 318.154C241.269 317.609 239.958 317.336 238.489 317.336C236.867 317.336 235.489 317.677 234.352 318.359C233.216 319.041 232.352 320.041 231.761 321.359C231.155 322.692 230.852 324.321 230.852 326.245V359.518Z" fill="black"/>
<path d="M47.1478 7.47652H52.7841V40.7492C52.7841 43.7189 52.2387 46.2417 51.1478 48.3174C50.0569 50.3932 48.519 51.9689 46.5341 53.0447C44.5493 54.1205 42.2084 54.6583 39.5114 54.6583C36.9659 54.6583 34.7008 54.1962 32.7159 53.272C30.7311 52.3326 29.1705 50.9992 28.0341 49.272C26.8978 47.5447 26.3296 45.4917 26.3296 43.1129H31.875C31.875 44.4311 32.2008 45.5826 32.8523 46.5674C33.519 47.5371 34.4281 48.2947 35.5796 48.8402C36.7311 49.3856 38.0417 49.6583 39.5114 49.6583C41.1326 49.6583 42.5114 49.3174 43.6478 48.6356C44.7841 47.9538 45.6478 46.9538 46.2387 45.6356C46.8447 44.3023 47.1478 42.6735 47.1478 40.7492V7.47652Z" fill="black"/>
</g>
<defs>
<clipPath id="clip0_22_1427">
<rect width="278" height="365" fill="white"/>
</clipPath>
</defs>
</svg>
