<svg width="278" height="365" viewBox="0 0 278 365" fill="none" xmlns="http://www.w3.org/2000/svg">
<g clip-path="url(#clip0_23_1966)">
<path d="M266.88 0H11.12C4.97859 0 0 4.66903 0 10.4286V354.571C0 360.331 4.97859 365 11.12 365H266.88C273.021 365 278 360.331 278 354.571V10.4286C278 4.66903 273.021 0 266.88 0Z" fill="white"/>
<path d="M66.5388 84.9327C64.4093 73.6586 50.4278 66.6556 38.9198 81.2774C27.4119 66.6556 13.4307 73.6588 11.3011 84.9329C8.50954 99.7118 38.9198 114.261 38.9198 125.143C38.9198 114.261 69.3303 99.7117 66.5388 84.9327Z" fill="#FF0000"/>
<path d="M66.5387 84.9328C64.4091 73.6586 50.4276 69.7845 38.9197 84.4063C36.3133 74.2221 17.6154 74.4022 15.029 84.9328C11.3562 99.8863 38.9197 101.108 38.9197 125.143C38.9197 114.261 69.3303 99.7117 66.5387 84.9328Z" fill="#8C0000"/>
<path d="M211.461 280.068C213.591 291.341 227.572 298.345 239.08 283.723C250.588 298.345 264.569 291.341 266.699 280.068C269.491 265.288 239.08 250.739 239.08 239.857C239.08 250.739 208.67 265.288 211.461 280.068Z" fill="#FF0000"/>
<path d="M211.461 280.068C213.591 291.341 227.572 295.215 239.08 280.593C241.687 290.778 260.385 290.597 262.971 280.068C266.644 265.114 239.08 263.892 239.08 239.857C239.08 250.739 208.67 265.288 211.461 280.068Z" fill="#8C0000"/>
<path d="M255.701 310.978V315.069L240.337 331.887C238.534 333.857 237.049 335.569 235.883 337.024C234.716 338.493 233.852 339.872 233.292 341.16C232.716 342.463 232.428 343.827 232.428 345.251C232.428 346.887 232.822 348.304 233.61 349.501C234.383 350.698 235.443 351.622 236.792 352.274C238.14 352.925 239.655 353.251 241.337 353.251C243.125 353.251 244.686 352.88 246.019 352.137C247.337 351.41 248.36 350.387 249.087 349.069C249.799 347.751 250.155 346.205 250.155 344.433H255.519C255.519 347.16 254.89 349.554 253.633 351.615C252.375 353.675 250.663 355.281 248.496 356.433C246.314 357.584 243.867 358.16 241.155 358.16C238.428 358.16 236.011 357.584 233.905 356.433C231.799 355.281 230.148 353.728 228.951 351.774C227.754 349.819 227.155 347.645 227.155 345.251C227.155 343.539 227.466 341.865 228.087 340.228C228.693 338.607 229.754 336.796 231.269 334.796C232.769 332.811 234.852 330.387 237.519 327.524L247.973 316.342V315.978H226.337V310.978H255.701Z" fill="black"/>
<path d="M24.4432 62V57.9091L39.8068 41.0909C41.6098 39.1212 43.0947 37.4091 44.2614 35.9545C45.428 34.4848 46.2917 33.1061 46.8523 31.8182C47.428 30.5152 47.7159 29.1515 47.7159 27.7273C47.7159 26.0909 47.322 24.6742 46.5341 23.4773C45.7614 22.2803 44.7008 21.3561 43.3523 20.7045C42.0038 20.053 40.4886 19.7273 38.8068 19.7273C37.0189 19.7273 35.4583 20.0985 34.125 20.8409C32.8068 21.5682 31.7841 22.5909 31.0568 23.9091C30.3447 25.2273 29.9886 26.7727 29.9886 28.5455H24.625C24.625 25.8182 25.2538 23.4242 26.5114 21.3636C27.7689 19.303 29.4811 17.697 31.6477 16.5455C33.8295 15.3939 36.2765 14.8182 38.9886 14.8182C41.7159 14.8182 44.1326 15.3939 46.2386 16.5455C48.3447 17.697 49.9962 19.25 51.1932 21.2045C52.3902 23.1591 52.9886 25.3333 52.9886 27.7273C52.9886 29.4394 52.678 31.1136 52.0568 32.75C51.4508 34.3712 50.3902 36.1818 48.875 38.1818C47.375 40.1667 45.2917 42.5909 42.625 45.4545L32.1705 56.6364V57H53.8068V62H24.4432Z" fill="black"/>
</g>
<defs>
<clipPath id="clip0_23_1966">
<rect width="278" height="365" fill="white"/>
</clipPath>
</defs>
</svg>
