<svg width="278" height="365" viewBox="0 0 278 365" fill="none" xmlns="http://www.w3.org/2000/svg">
<g clip-path="url(#clip0_22_1493)">
<path d="M266.88 0H11.12C4.97859 0 0 4.66903 0 10.4286V354.571C0 360.331 4.97859 365 11.12 365H266.88C273.021 365 278 360.331 278 354.571V10.4286C278 4.66903 273.021 0 266.88 0Z" fill="white"/>
<path d="M242.555 231.702C253.239 221.776 264.781 228.787 266.699 239.433C269.491 254.92 239.08 270.167 239.08 281.572C239.08 270.167 208.669 254.921 211.461 239.434C213.38 228.787 224.921 221.776 235.605 231.702C237.197 224.988 237.603 210.962 226.483 208.572H239.08H251.677C240.557 210.962 240.963 224.988 242.555 231.702Z" fill="black"/>
<path d="M211.558 239.433C213.687 227.618 227.67 223.558 239.177 238.881C241.783 228.208 260.482 228.397 263.068 239.433C266.741 255.104 239.177 256.384 239.177 281.571C239.177 270.167 208.767 254.92 211.558 239.433Z" fill="#202020"/>
<path d="M235.605 231.702C236.778 232.792 237.941 234.086 239.08 235.602C240.093 234.471 242.207 232.106 242.555 231.702C240.962 224.988 240.557 210.962 251.677 208.572H239.08H226.483C237.603 210.962 237.197 224.988 235.605 231.702Z" fill="#202020"/>
<path d="M35.4452 133.298C24.7613 143.224 13.2199 136.213 11.3011 125.567C8.50953 110.08 38.9201 94.8327 38.9201 83.4285C38.9201 94.8327 69.3306 110.079 66.539 125.566C64.6201 136.213 53.0789 143.224 42.395 133.298C40.8023 140.012 40.3969 154.038 51.5169 156.428H38.9201H26.3234C37.4434 154.038 37.038 140.012 35.4452 133.298Z" fill="black"/>
<path d="M66.4416 125.567C64.3122 137.382 50.3305 141.442 38.8227 126.119C36.2163 136.792 17.5183 136.603 14.9319 125.567C11.2592 109.896 38.8227 108.616 38.8227 83.4287C38.8227 94.833 69.2332 110.08 66.4416 125.567Z" fill="#202020"/>
<path d="M42.3951 133.298C41.2218 132.208 40.0589 130.914 38.9202 129.398C37.9067 130.529 35.7929 132.894 35.4453 133.298C37.0379 140.012 37.4434 154.038 26.3234 156.429H38.9202H51.5169C40.3969 154.038 40.8024 140.012 42.3951 133.298Z" fill="#202020"/>
<path d="M230.991 302.364C234.113 302.364 236.87 302.917 239.264 304.023C241.643 305.144 243.499 306.682 244.832 308.636C246.166 310.606 246.825 312.848 246.81 315.364C246.825 317.333 246.438 319.152 245.651 320.818C244.863 322.5 243.787 323.902 242.423 325.023C241.045 326.159 239.507 326.879 237.81 327.182V327.455C240.037 328.03 241.81 329.28 243.128 331.205C244.446 333.144 245.098 335.348 245.082 337.818C245.098 340.182 244.499 342.295 243.287 344.159C242.075 346.023 240.408 347.492 238.287 348.568C236.151 349.644 233.719 350.182 230.991 350.182C228.295 350.182 225.885 349.644 223.764 348.568C221.643 347.492 219.976 346.023 218.764 344.159C217.537 342.295 216.916 340.182 216.901 337.818C216.916 335.348 217.59 333.144 218.923 331.205C220.241 329.28 221.991 328.03 224.173 327.455V327.182C222.491 326.879 220.976 326.159 219.628 325.023C218.279 323.902 217.204 322.5 216.401 320.818C215.598 319.152 215.188 317.333 215.173 315.364C215.188 312.848 215.87 310.606 217.219 308.636C218.552 306.682 220.408 305.144 222.787 304.023C225.151 302.917 227.885 302.364 230.991 302.364ZM230.991 307.364C228.885 307.364 227.067 307.705 225.537 308.386C224.007 309.068 222.825 310.03 221.991 311.273C221.158 312.515 220.734 313.97 220.719 315.636C220.734 317.394 221.188 318.947 222.082 320.295C222.976 321.644 224.196 322.705 225.741 323.477C227.272 324.25 229.022 324.636 230.991 324.636C232.976 324.636 234.749 324.25 236.31 323.477C237.855 322.705 239.075 321.644 239.969 320.295C240.848 318.947 241.279 317.394 241.264 315.636C241.279 313.97 240.878 312.515 240.06 311.273C239.226 310.03 238.037 309.068 236.491 308.386C234.946 307.705 233.113 307.364 230.991 307.364ZM230.991 329.455C229.325 329.455 227.848 329.788 226.56 330.455C225.257 331.121 224.234 332.053 223.491 333.25C222.749 334.447 222.37 335.848 222.355 337.455C222.37 339.03 222.741 340.402 223.469 341.568C224.196 342.75 225.204 343.659 226.491 344.295C227.779 344.947 229.279 345.273 230.991 345.273C232.734 345.273 234.257 344.947 235.56 344.295C236.863 343.659 237.87 342.75 238.582 341.568C239.295 340.402 239.643 339.03 239.628 337.455C239.643 335.848 239.287 334.447 238.56 333.25C237.817 332.053 236.795 331.121 235.491 330.455C234.188 329.788 232.688 329.455 230.991 329.455Z" fill="black"/>
<path d="M32.0085 62.6364C28.8873 62.6364 26.1297 62.0833 23.7358 60.9773C21.357 59.8561 19.5009 58.3182 18.1676 56.3636C16.8343 54.3939 16.1752 52.1515 16.1903 49.6364C16.1752 47.6667 16.5616 45.8485 17.3494 44.1818C18.1373 42.5 19.2131 41.0985 20.5767 39.9773C21.9555 38.8409 23.4934 38.1212 25.1903 37.8182V37.5455C22.9631 36.9697 21.1903 35.7197 19.8722 33.7955C18.554 31.8561 17.9025 29.6515 17.9176 27.1818C17.9025 24.8182 18.5009 22.7045 19.7131 20.8409C20.9252 18.9773 22.5919 17.5076 24.7131 16.4318C26.8494 15.3561 29.2813 14.8182 32.0085 14.8182C34.7055 14.8182 37.1146 15.3561 39.2358 16.4318C41.357 17.5076 43.0237 18.9773 44.2358 20.8409C45.4631 22.7045 46.0843 24.8182 46.0994 27.1818C46.0843 29.6515 45.41 31.8561 44.0767 33.7955C42.7585 35.7197 41.0085 36.9697 38.8267 37.5455V37.8182C40.5085 38.1212 42.0237 38.8409 43.3722 39.9773C44.7206 41.0985 45.7964 42.5 46.5994 44.1818C47.4025 45.8485 47.8116 47.6667 47.8267 49.6364C47.8116 52.1515 47.1297 54.3939 45.7812 56.3636C44.4479 58.3182 42.5919 59.8561 40.2131 60.9773C37.8494 62.0833 35.1146 62.6364 32.0085 62.6364ZM32.0085 57.6364C34.1146 57.6364 35.9328 57.2955 37.4631 56.6136C38.9934 55.9318 40.1752 54.9697 41.0085 53.7273C41.8419 52.4848 42.2661 51.0303 42.2812 49.3636C42.2661 47.6061 41.8116 46.053 40.9176 44.7045C40.0237 43.3561 38.804 42.2955 37.2585 41.5227C35.7282 40.75 33.9782 40.3636 32.0085 40.3636C30.0237 40.3636 28.2509 40.75 26.6903 41.5227C25.1449 42.2955 23.9252 43.3561 23.0312 44.7045C22.1525 46.053 21.7206 47.6061 21.7358 49.3636C21.7206 51.0303 22.1222 52.4848 22.9403 53.7273C23.7737 54.9697 24.9631 55.9318 26.5085 56.6136C28.054 57.2955 29.8873 57.6364 32.0085 57.6364ZM32.0085 35.5455C33.6752 35.5455 35.1525 35.2121 36.4403 34.5455C37.7434 33.8788 38.7661 32.947 39.5085 31.75C40.2509 30.553 40.6297 29.1515 40.6449 27.5455C40.6297 25.9697 40.2585 24.5985 39.5312 23.4318C38.804 22.25 37.7964 21.3409 36.5085 20.7045C35.2206 20.053 33.7206 19.7273 32.0085 19.7273C30.2661 19.7273 28.7434 20.053 27.4403 20.7045C26.1373 21.3409 25.1297 22.25 24.4176 23.4318C23.7055 24.5985 23.357 25.9697 23.3722 27.5455C23.357 29.1515 23.7131 30.553 24.4403 31.75C25.1828 32.947 26.2055 33.8788 27.5085 34.5455C28.8116 35.2121 30.3116 35.5455 32.0085 35.5455Z" fill="black"/>
</g>
<defs>
<clipPath id="clip0_22_1493">
<rect width="278" height="365" fill="white"/>
</clipPath>
</defs>
</svg>
