<svg width="278" height="365" viewBox="0 0 278 365" fill="none" xmlns="http://www.w3.org/2000/svg">
<g clip-path="url(#clip0_22_1533)">
<path d="M266.88 0H11.12C4.97859 0 0 4.66903 0 10.4286V354.571C0 360.331 4.97859 365 11.12 365H266.88C273.021 365 278 360.331 278 354.571V10.4286C278 4.66903 273.021 0 266.88 0Z" fill="white"/>
<path d="M242.555 231.702C253.239 221.776 264.78 228.787 266.699 239.433C269.491 254.92 239.08 270.167 239.08 281.572C239.08 270.167 208.669 254.921 211.461 239.434C213.379 228.787 224.921 221.776 235.605 231.702C237.197 224.988 237.603 210.962 226.483 208.572H239.08H251.677C240.557 210.962 240.963 224.988 242.555 231.702Z" fill="black"/>
<path d="M211.558 239.433C213.687 227.618 227.67 223.558 239.177 238.881C241.783 228.208 260.482 228.397 263.068 239.433C266.741 255.104 239.177 256.384 239.177 281.571C239.177 270.167 208.767 254.92 211.558 239.433Z" fill="#202020"/>
<path d="M235.605 231.702C236.778 232.792 237.941 234.086 239.08 235.602C240.093 234.471 242.207 232.106 242.555 231.702C240.961 224.988 240.557 210.962 251.677 208.572H239.08H226.483C237.603 210.962 237.197 224.988 235.605 231.702Z" fill="#202020"/>
<path d="M35.4451 133.298C24.7611 143.224 13.2198 136.213 11.3009 125.567C8.50941 110.08 38.92 94.8327 38.92 83.4285C38.92 94.8327 69.3304 110.079 66.5389 125.566C64.62 136.213 53.0788 143.224 42.3949 133.298C40.8022 140.012 40.3968 154.038 51.5168 156.428H38.92H26.3233C37.4433 154.038 37.0378 140.012 35.4451 133.298Z" fill="black"/>
<path d="M66.4416 125.567C64.3122 137.382 50.3305 141.442 38.8227 126.119C36.2163 136.792 17.5183 136.603 14.9319 125.567C11.2592 109.896 38.8227 108.616 38.8227 83.4287C38.8227 94.833 69.2332 110.08 66.4416 125.567Z" fill="#202020"/>
<path d="M42.3952 133.298C41.222 132.208 40.059 130.914 38.9203 129.398C37.9069 130.529 35.7931 132.894 35.4454 133.298C37.0381 140.012 37.4435 154.038 26.3235 156.429H38.9203H51.5171C40.3971 154.038 40.8025 140.012 42.3952 133.298Z" fill="#202020"/>
<path d="M10.7614 62V15.4545H16.3977V38.5455H16.9432L37.8523 15.4545H45.2159L25.6705 36.4545L45.2159 62H38.3977L22.2159 40.3636L16.3977 46.9091V62H10.7614Z" fill="black"/>
<path d="M257.239 303V349.545H251.602V326.455H251.057L230.148 349.545H222.784L242.33 328.545L222.784 303H229.602L245.784 324.636L251.602 318.091V303H257.239Z" fill="black"/>
</g>
<defs>
<clipPath id="clip0_22_1533">
<rect width="278" height="365" fill="white"/>
</clipPath>
</defs>
</svg>
