<svg width="278" height="365" viewBox="0 0 278 365" fill="none" xmlns="http://www.w3.org/2000/svg">
<path d="M266.88 0H11.12C4.97859 0 0 4.66903 0 10.4286V354.571C0 360.331 4.97859 365 11.12 365H266.88C273.021 365 278 360.331 278 354.571V10.4286C278 4.66903 273.021 0 266.88 0Z" fill="white"/>
<path d="M242.555 231.702C253.239 221.776 264.781 228.787 266.699 239.433C269.491 254.92 239.08 270.167 239.08 281.572C239.08 270.167 208.669 254.921 211.461 239.434C213.38 228.787 224.921 221.776 235.605 231.702C237.197 224.988 237.603 210.962 226.483 208.572H239.08H251.677C240.557 210.962 240.963 224.988 242.555 231.702Z" fill="black"/>
<path d="M211.558 239.433C213.687 227.618 227.67 223.558 239.177 238.881C241.783 228.208 260.482 228.397 263.068 239.433C266.741 255.104 239.177 256.384 239.177 281.571C239.177 270.167 208.767 254.92 211.558 239.433Z" fill="#202020"/>
<path d="M235.605 231.702C236.778 232.792 237.941 234.086 239.08 235.602C240.093 234.471 242.207 232.106 242.555 231.702C240.962 224.988 240.557 210.962 251.677 208.572H239.08H226.483C237.603 210.962 237.197 224.988 235.605 231.702Z" fill="#202020"/>
<path d="M35.4452 133.298C24.7613 143.224 13.2199 136.213 11.3011 125.567C8.50953 110.08 38.9201 94.8327 38.9201 83.4285C38.9201 94.8327 69.3306 110.079 66.539 125.566C64.6201 136.213 53.0789 143.224 42.395 133.298C40.8023 140.012 40.3969 154.038 51.5169 156.428H38.9201H26.3234C37.4434 154.038 37.038 140.012 35.4452 133.298Z" fill="black"/>
<path d="M66.4416 125.567C64.3122 137.382 50.3305 141.442 38.8227 126.119C36.2163 136.792 17.5183 136.603 14.9319 125.567C11.2592 109.896 38.8227 108.616 38.8227 83.4287C38.8227 94.833 69.2332 110.08 66.4416 125.567Z" fill="#202020"/>
<path d="M42.3951 133.298C41.2218 132.208 40.0589 130.914 38.9202 129.398C37.9067 130.529 35.7929 132.894 35.4453 133.298C37.0379 140.012 37.4434 154.038 26.3234 156.429H38.9202H51.5169C40.3969 154.038 40.8024 140.012 42.3951 133.298Z" fill="#202020"/>
<path d="M251.557 303V307.091L236.193 323.909C234.39 325.879 232.905 327.591 231.739 329.045C230.572 330.515 229.708 331.894 229.148 333.182C228.572 334.485 228.284 335.848 228.284 337.273C228.284 338.909 228.678 340.326 229.466 341.523C230.239 342.72 231.299 343.644 232.648 344.295C233.996 344.947 235.511 345.273 237.193 345.273C238.981 345.273 240.542 344.902 241.875 344.159C243.193 343.432 244.216 342.409 244.943 341.091C245.655 339.773 246.011 338.227 246.011 336.455H251.375C251.375 339.182 250.746 341.576 249.489 343.636C248.231 345.697 246.519 347.303 244.352 348.455C242.17 349.606 239.723 350.182 237.011 350.182C234.284 350.182 231.867 349.606 229.761 348.455C227.655 347.303 226.004 345.75 224.807 343.795C223.61 341.841 223.011 339.667 223.011 337.273C223.011 335.561 223.322 333.886 223.943 332.25C224.549 330.629 225.61 328.818 227.125 326.818C228.625 324.833 230.708 322.409 233.375 319.545L243.83 308.364V308H222.193V303H251.557Z" fill="black"/>
<path d="M26.4432 62V57.9091L41.8068 41.0909C43.6098 39.1212 45.0947 37.4091 46.2614 35.9545C47.428 34.4848 48.2917 33.1061 48.8523 31.8182C49.428 30.5152 49.7159 29.1515 49.7159 27.7273C49.7159 26.0909 49.322 24.6742 48.5341 23.4773C47.7614 22.2803 46.7008 21.3561 45.3523 20.7045C44.0038 20.053 42.4886 19.7273 40.8068 19.7273C39.0189 19.7273 37.4583 20.0985 36.125 20.8409C34.8068 21.5682 33.7841 22.5909 33.0568 23.9091C32.3447 25.2273 31.9886 26.7727 31.9886 28.5455H26.625C26.625 25.8182 27.2538 23.4242 28.5114 21.3636C29.7689 19.303 31.4811 17.697 33.6477 16.5455C35.8295 15.3939 38.2765 14.8182 40.9886 14.8182C43.7159 14.8182 46.1326 15.3939 48.2386 16.5455C50.3447 17.697 51.9962 19.25 53.1932 21.2045C54.3902 23.1591 54.9886 25.3333 54.9886 27.7273C54.9886 29.4394 54.678 31.1136 54.0568 32.75C53.4508 34.3712 52.3902 36.1818 50.875 38.1818C49.375 40.1667 47.2917 42.5909 44.625 45.4545L34.1705 56.6364V57H55.8068V62H26.4432Z" fill="black"/>
</svg>
