<svg width="278" height="365" viewBox="0 0 278 365" fill="none" xmlns="http://www.w3.org/2000/svg">
<path d="M266.88 0H11.12C4.97859 0 0 4.66903 0 10.4286V354.571C0 360.331 4.97859 365 11.12 365H266.88C273.021 365 278 360.331 278 354.571V10.4286C278 4.66903 273.021 0 266.88 0Z" fill="white"/>
<path d="M242.555 231.702C253.239 221.776 264.78 228.787 266.699 239.433C269.491 254.92 239.08 270.167 239.08 281.572C239.08 270.167 208.669 254.921 211.461 239.434C213.379 228.787 224.921 221.776 235.605 231.702C237.197 224.988 237.603 210.962 226.483 208.572H239.08H251.677C240.557 210.962 240.963 224.988 242.555 231.702Z" fill="black"/>
<path d="M211.558 239.433C213.687 227.618 227.67 223.558 239.177 238.881C241.783 228.208 260.482 228.397 263.068 239.433C266.741 255.104 239.177 256.384 239.177 281.571C239.177 270.167 208.767 254.92 211.558 239.433Z" fill="#202020"/>
<path d="M235.605 231.702C236.778 232.792 237.941 234.086 239.08 235.602C240.093 234.471 242.207 232.106 242.555 231.702C240.961 224.988 240.557 210.962 251.677 208.572H239.08H226.483C237.603 210.962 237.197 224.988 235.605 231.702Z" fill="#202020"/>
<path d="M35.4451 133.298C24.7611 143.224 13.2198 136.213 11.3009 125.567C8.50941 110.08 38.92 94.8327 38.92 83.4285C38.92 94.8327 69.3304 110.079 66.5389 125.566C64.62 136.213 53.0788 143.224 42.3949 133.298C40.8022 140.012 40.3968 154.038 51.5168 156.428H38.92H26.3233C37.4433 154.038 37.0378 140.012 35.4451 133.298Z" fill="black"/>
<path d="M66.4416 125.567C64.3122 137.382 50.3305 141.442 38.8227 126.119C36.2163 136.792 17.5183 136.603 14.9319 125.567C11.2592 109.896 38.8227 108.616 38.8227 83.4287C38.8227 94.833 69.2332 110.08 66.4416 125.567Z" fill="#202020"/>
<path d="M42.3952 133.298C41.222 132.208 40.059 130.914 38.9203 129.398C37.9069 130.529 35.7931 132.894 35.4454 133.298C37.0381 140.012 37.4435 154.038 26.3235 156.429H38.9203H51.5171C40.3971 154.038 40.8025 140.012 42.3952 133.298Z" fill="#202020"/>
<path d="M240.83 317.545H234.648L229.466 310.727L228.102 308.909L220.375 298.636H226.557L231.648 305.455L232.92 307.182L240.83 317.545ZM218.466 326.273C218.466 321.364 219.352 317.121 221.125 313.545C222.898 309.97 225.33 307.212 228.42 305.273C231.511 303.333 235.042 302.364 239.011 302.364C242.981 302.364 246.511 303.333 249.602 305.273C252.693 307.212 255.125 309.97 256.898 313.545C258.67 317.121 259.557 321.364 259.557 326.273C259.557 331.182 258.67 335.424 256.898 339C255.125 342.576 252.693 345.333 249.602 347.273C246.511 349.212 242.981 350.182 239.011 350.182C235.042 350.182 231.511 349.212 228.42 347.273C225.33 345.333 222.898 342.576 221.125 339C219.352 335.424 218.466 331.182 218.466 326.273ZM223.92 326.273C223.92 330.303 224.595 333.705 225.943 336.477C227.277 339.25 229.087 341.348 231.375 342.773C233.648 344.197 236.193 344.909 239.011 344.909C241.83 344.909 244.383 344.197 246.67 342.773C248.943 341.348 250.754 339.25 252.102 336.477C253.436 333.705 254.102 330.303 254.102 326.273C254.102 322.242 253.436 318.841 252.102 316.068C250.754 313.295 248.943 311.197 246.67 309.773C244.383 308.348 241.83 307.636 239.011 307.636C236.193 307.636 233.648 308.348 231.375 309.773C229.087 311.197 227.277 313.295 225.943 316.068C224.595 318.841 223.92 322.242 223.92 326.273Z" fill="black"/>
<path d="M33.1705 47.4545H39.3523L44.5341 54.2727L45.8977 56.0909L53.625 66.3636H47.4432L42.3523 59.5455L41.0795 57.8182L33.1705 47.4545ZM55.5341 38.7273C55.5341 43.6364 54.6477 47.8788 52.875 51.4545C51.1023 55.0303 48.6705 57.7879 45.5795 59.7273C42.4886 61.6667 38.9583 62.6364 34.9886 62.6364C31.0189 62.6364 27.4886 61.6667 24.3977 59.7273C21.3068 57.7879 18.875 55.0303 17.1023 51.4545C15.3295 47.8788 14.4432 43.6364 14.4432 38.7273C14.4432 33.8182 15.3295 29.5758 17.1023 26C18.875 22.4242 21.3068 19.6667 24.3977 17.7273C27.4886 15.7879 31.0189 14.8182 34.9886 14.8182C38.9583 14.8182 42.4886 15.7879 45.5795 17.7273C48.6705 19.6667 51.1023 22.4242 52.875 26C54.6477 29.5758 55.5341 33.8182 55.5341 38.7273ZM50.0795 38.7273C50.0795 34.697 49.4053 31.2955 48.0568 28.5227C46.7235 25.75 44.9129 23.6515 42.625 22.2273C40.3523 20.803 37.8068 20.0909 34.9886 20.0909C32.1705 20.0909 29.6174 20.803 27.3295 22.2273C25.0568 23.6515 23.2462 25.75 21.8977 28.5227C20.5644 31.2955 19.8977 34.697 19.8977 38.7273C19.8977 42.7576 20.5644 46.1591 21.8977 48.9318C23.2462 51.7045 25.0568 53.803 27.3295 55.2273C29.6174 56.6515 32.1705 57.3636 34.9886 57.3636C37.8068 57.3636 40.3523 56.6515 42.625 55.2273C44.9129 53.803 46.7235 51.7045 48.0568 48.9318C49.4053 46.1591 50.0795 42.7576 50.0795 38.7273Z" fill="black"/>
</svg>
