<svg width="278" height="365" viewBox="0 0 278 365" fill="none" xmlns="http://www.w3.org/2000/svg">
<path d="M266.88 0H11.12C4.97859 0 0 4.66903 0 10.4286V354.571C0 360.331 4.97859 365 11.12 365H266.88C273.021 365 278 360.331 278 354.571V10.4286C278 4.66903 273.021 0 266.88 0Z" fill="white"/>
<path d="M242.555 231.702C253.239 221.776 264.78 228.787 266.699 239.433C269.491 254.92 239.08 270.167 239.08 281.572C239.08 270.167 208.669 254.921 211.461 239.434C213.379 228.787 224.921 221.776 235.605 231.702C237.197 224.988 237.603 210.962 226.483 208.572H239.08H251.677C240.557 210.962 240.963 224.988 242.555 231.702Z" fill="black"/>
<path d="M211.558 239.433C213.687 227.618 227.67 223.558 239.177 238.881C241.783 228.208 260.482 228.397 263.068 239.433C266.741 255.104 239.177 256.384 239.177 281.571C239.177 270.167 208.767 254.92 211.558 239.433Z" fill="#202020"/>
<path d="M235.605 231.702C236.778 232.792 237.941 234.086 239.08 235.602C240.093 234.471 242.207 232.106 242.555 231.702C240.961 224.988 240.557 210.962 251.677 208.572H239.08H226.483C237.603 210.962 237.197 224.988 235.605 231.702Z" fill="#202020"/>
<path d="M35.4452 133.298C24.7613 143.224 13.2199 136.213 11.3011 125.567C8.50953 110.08 38.9201 94.8327 38.9201 83.4285C38.9201 94.8327 69.3306 110.079 66.539 125.566C64.6201 136.213 53.0789 143.224 42.395 133.298C40.8023 140.012 40.3969 154.038 51.5169 156.428H38.9201H26.3234C37.4434 154.038 37.038 140.012 35.4452 133.298Z" fill="black"/>
<path d="M66.4416 125.567C64.3122 137.382 50.3305 141.442 38.8227 126.119C36.2163 136.792 17.5183 136.603 14.9319 125.567C11.2592 109.896 38.8227 108.616 38.8227 83.4287C38.8227 94.833 69.2332 110.08 66.4416 125.567Z" fill="#202020"/>
<path d="M42.3951 133.298C41.2218 132.208 40.0589 130.914 38.9202 129.398C37.9067 130.529 35.7929 132.894 35.4453 133.298C37.0379 140.012 37.4434 154.038 26.3234 156.429H38.9202H51.5169C40.3969 154.038 40.8024 140.012 42.3951 133.298Z" fill="#202020"/>
<path d="M255.804 312.545V317.182L235.349 349.545H231.986V342.364H234.259L249.713 317.909V317.545H222.168V312.545H255.804ZM233.895 303V313.955V316.114V349.545H228.531V303H233.895Z" fill="black"/>
<path d="M19.196 52.4545V47.8182L39.6506 15.4545H43.0142V22.6364H40.7415L25.2869 47.0909V47.4545H52.8324V52.4545H19.196ZM41.1051 62V51.0455V48.8864V15.4545H46.4688V62H41.1051Z" fill="black"/>
</svg>
