<svg width="278" height="365" viewBox="0 0 278 365" fill="none" xmlns="http://www.w3.org/2000/svg">
<g clip-path="url(#clip0_22_1798)">
<path d="M266.88 0H11.12C4.97859 0 0 4.66903 0 10.4286V354.571C0 360.331 4.97859 365 11.12 365H266.88C273.021 365 278 360.331 278 354.571V10.4286C278 4.66903 273.021 0 266.88 0Z" fill="white"/>
<path d="M42.3413 133.341C41.1861 132.253 40.041 130.961 38.9199 129.448C37.922 130.578 35.8407 132.938 35.4985 133.341C37.0666 140.043 37.4658 154.042 26.5168 156.429H38.9199H51.3228C40.3739 154.042 40.7731 140.043 42.3413 133.341Z" fill="#202020"/>
<path d="M51.3232 136.266C59.8268 136.266 66.7202 129.398 66.7202 120.926C66.7202 112.454 59.8268 105.586 51.3232 105.586C42.8197 105.586 35.9263 112.454 35.9263 120.926C35.9263 129.398 42.8197 136.266 51.3232 136.266Z" fill="black"/>
<path d="M26.517 136.266C35.0205 136.266 41.9139 129.398 41.9139 120.926C41.9139 112.454 35.0205 105.586 26.517 105.586C18.0135 105.586 11.12 112.454 11.12 120.926C11.12 129.398 18.0135 136.266 26.517 136.266Z" fill="black"/>
<path d="M38.4921 114.108C46.9956 114.108 53.889 107.24 53.889 98.7685C53.889 90.2966 46.9956 83.4287 38.4921 83.4287C29.9886 83.4287 23.0951 90.2966 23.0951 98.7685C23.0951 107.24 29.9886 114.108 38.4921 114.108Z" fill="black"/>
<path d="M51.2703 132.856C58.858 132.856 65.009 126.764 65.009 119.248C65.009 111.733 58.858 105.641 51.2703 105.641C43.6825 105.641 37.5315 111.733 37.5315 119.248C37.5315 126.764 43.6825 132.856 51.2703 132.856Z" fill="#202020"/>
<path d="M29.1354 132.856C36.7231 132.856 42.8741 126.764 42.8741 119.248C42.8741 111.733 36.7231 105.641 29.1354 105.641C21.5477 105.641 15.3966 111.733 15.3966 119.248C15.3966 126.764 21.5477 132.856 29.1354 132.856Z" fill="#202020"/>
<path d="M39.8215 113.201C47.4092 113.201 53.5603 107.109 53.5603 99.5932C53.5603 92.0778 47.4092 85.9854 39.8215 85.9854C32.2338 85.9854 26.0828 92.0778 26.0828 99.5932C26.0828 107.109 32.2338 113.201 39.8215 113.201Z" fill="#202020"/>
<path d="M235.658 231.659C236.814 232.747 237.959 234.039 239.08 235.552C240.079 234.422 242.159 232.062 242.502 231.659C240.934 224.957 240.535 210.957 251.483 208.571H239.08H226.677C237.627 210.957 237.227 224.957 235.658 231.659Z" fill="#202020"/>
<path d="M226.677 228.734C218.173 228.734 211.28 235.602 211.28 244.074C211.28 252.546 218.173 259.414 226.677 259.414C235.18 259.414 242.074 252.546 242.074 244.074C242.074 235.602 235.18 228.734 226.677 228.734Z" fill="black"/>
<path d="M251.483 228.734C242.98 228.734 236.086 235.602 236.086 244.074C236.086 252.546 242.98 259.414 251.483 259.414C259.987 259.414 266.88 252.546 266.88 244.074C266.88 235.602 259.987 228.734 251.483 228.734Z" fill="black"/>
<path d="M239.508 250.892C231.005 250.892 224.111 257.76 224.111 266.232C224.111 274.704 231.005 281.572 239.508 281.572C248.012 281.572 254.905 274.704 254.905 266.232C254.905 257.76 248.012 250.892 239.508 250.892Z" fill="black"/>
<path d="M226.73 232.144C219.142 232.144 212.991 238.236 212.991 245.752C212.991 253.267 219.142 259.359 226.73 259.359C234.318 259.359 240.469 253.267 240.469 245.752C240.469 238.236 234.318 232.144 226.73 232.144Z" fill="#202020"/>
<path d="M248.865 232.144C241.277 232.144 235.126 238.236 235.126 245.752C235.126 253.267 241.277 259.359 248.865 259.359C256.452 259.359 262.603 253.267 262.603 245.752C262.603 238.236 256.452 232.144 248.865 232.144Z" fill="#202020"/>
<path d="M238.178 251.799C230.591 251.799 224.439 257.892 224.439 265.407C224.439 272.923 230.591 279.015 238.178 279.015C245.766 279.015 251.917 272.923 251.917 265.407C251.917 257.892 245.766 251.799 238.178 251.799Z" fill="#202020"/>
<path d="M33.8949 62.6364C31.2282 62.6364 28.8267 62.1061 26.6903 61.0455C24.554 59.9848 22.8419 58.5303 21.554 56.6818C20.2661 54.8333 19.5616 52.7273 19.4403 50.3636H24.8949C25.107 52.4697 26.0616 54.2121 27.7585 55.5909C29.4706 56.9545 31.5161 57.6364 33.8949 57.6364C35.804 57.6364 37.5009 57.1894 38.9858 56.2955C40.4858 55.4015 41.66 54.1742 42.5085 52.6136C43.3722 51.0379 43.804 49.2576 43.804 47.2727C43.804 45.2424 43.357 43.4318 42.4631 41.8409C41.5843 40.2348 40.3722 38.9697 38.8267 38.0455C37.2813 37.1212 35.5161 36.6515 33.5312 36.6364C32.107 36.6212 30.6449 36.8409 29.1449 37.2955C27.6449 37.7348 26.41 38.303 25.4403 39L20.1676 38.3636L22.9858 15.4545H47.1676V20.4545H27.7131L26.0767 34.1818H26.3494C27.304 33.4242 28.5009 32.7955 29.9403 32.2955C31.3797 31.7955 32.8797 31.5455 34.4403 31.5455C37.2888 31.5455 39.8267 32.2273 42.054 33.5909C44.2964 34.9394 46.054 36.7879 47.3267 39.1364C48.6146 41.4848 49.2585 44.1667 49.2585 47.1818C49.2585 50.1515 48.5919 52.803 47.2585 55.1364C45.9403 57.4545 44.1222 59.2879 41.804 60.6364C39.4858 61.9697 36.8494 62.6364 33.8949 62.6364Z" fill="black"/>
<path d="M238.105 302.364C240.772 302.364 243.173 302.894 245.31 303.955C247.446 305.015 249.158 306.47 250.446 308.318C251.734 310.167 252.438 312.273 252.56 314.636H247.105C246.893 312.53 245.938 310.788 244.241 309.409C242.529 308.045 240.484 307.364 238.105 307.364C236.196 307.364 234.499 307.811 233.014 308.705C231.514 309.598 230.34 310.826 229.491 312.386C228.628 313.962 228.196 315.742 228.196 317.727C228.196 319.758 228.643 321.568 229.537 323.159C230.416 324.765 231.628 326.03 233.173 326.955C234.719 327.879 236.484 328.348 238.469 328.364C239.893 328.379 241.355 328.159 242.855 327.705C244.355 327.265 245.59 326.697 246.56 326L251.832 326.636L249.014 349.545H224.832V344.545H244.287L245.923 330.818H245.651C244.696 331.576 243.499 332.205 242.06 332.705C240.62 333.205 239.12 333.455 237.56 333.455C234.711 333.455 232.173 332.773 229.946 331.409C227.704 330.061 225.946 328.212 224.673 325.864C223.385 323.515 222.741 320.833 222.741 317.818C222.741 314.848 223.408 312.197 224.741 309.864C226.06 307.545 227.878 305.712 230.196 304.364C232.514 303.03 235.151 302.364 238.105 302.364Z" fill="black"/>
</g>
<defs>
<clipPath id="clip0_22_1798">
<rect width="278" height="365" fill="white"/>
</clipPath>
</defs>
</svg>
