<svg width="278" height="365" viewBox="0 0 278 365" fill="none" xmlns="http://www.w3.org/2000/svg">
<g clip-path="url(#clip0_22_1766)">
<path d="M266.88 0H11.12C4.97859 0 0 4.66903 0 10.4286V354.571C0 360.331 4.97859 365 11.12 365H266.88C273.021 365 278 360.331 278 354.571V10.4286C278 4.66903 273.021 0 266.88 0Z" fill="white"/>
<path d="M42.3412 133.341C41.186 132.253 40.0409 130.961 38.9197 129.448C37.9218 130.578 35.8406 132.938 35.4983 133.341C37.0665 140.043 37.4657 154.042 26.5167 156.429H38.9197H51.3227C40.3738 154.042 40.773 140.043 42.3412 133.341Z" fill="#202020"/>
<path d="M51.3231 136.266C59.8266 136.266 66.7201 129.398 66.7201 120.926C66.7201 112.454 59.8266 105.586 51.3231 105.586C42.8196 105.586 35.9261 112.454 35.9261 120.926C35.9261 129.398 42.8196 136.266 51.3231 136.266Z" fill="black"/>
<path d="M26.517 136.266C35.0205 136.266 41.9139 129.398 41.9139 120.926C41.9139 112.454 35.0205 105.586 26.517 105.586C18.0135 105.586 11.12 112.454 11.12 120.926C11.12 129.398 18.0135 136.266 26.517 136.266Z" fill="black"/>
<path d="M38.4921 114.108C46.9956 114.108 53.889 107.24 53.889 98.7685C53.889 90.2966 46.9956 83.4287 38.4921 83.4287C29.9886 83.4287 23.0951 90.2966 23.0951 98.7685C23.0951 107.24 29.9886 114.108 38.4921 114.108Z" fill="black"/>
<path d="M51.2703 132.856C58.858 132.856 65.009 126.764 65.009 119.248C65.009 111.733 58.858 105.641 51.2703 105.641C43.6825 105.641 37.5315 111.733 37.5315 119.248C37.5315 126.764 43.6825 132.856 51.2703 132.856Z" fill="#202020"/>
<path d="M29.1354 132.856C36.7231 132.856 42.8741 126.764 42.8741 119.248C42.8741 111.733 36.7231 105.641 29.1354 105.641C21.5477 105.641 15.3966 111.733 15.3966 119.248C15.3966 126.764 21.5477 132.856 29.1354 132.856Z" fill="#202020"/>
<path d="M39.8216 113.201C47.4094 113.201 53.5604 107.109 53.5604 99.5932C53.5604 92.0778 47.4094 85.9854 39.8216 85.9854C32.2339 85.9854 26.0829 92.0778 26.0829 99.5932C26.0829 107.109 32.2339 113.201 39.8216 113.201Z" fill="#202020"/>
<path d="M235.658 231.659C236.814 232.747 237.959 234.039 239.08 235.552C240.079 234.422 242.159 232.062 242.502 231.659C240.934 224.957 240.535 210.957 251.483 208.571H239.08H226.677C237.627 210.957 237.227 224.957 235.658 231.659Z" fill="#202020"/>
<path d="M226.677 228.734C218.173 228.734 211.28 235.602 211.28 244.074C211.28 252.546 218.173 259.414 226.677 259.414C235.18 259.414 242.074 252.546 242.074 244.074C242.074 235.602 235.18 228.734 226.677 228.734Z" fill="black"/>
<path d="M251.483 228.734C242.98 228.734 236.086 235.602 236.086 244.074C236.086 252.546 242.98 259.414 251.483 259.414C259.987 259.414 266.88 252.546 266.88 244.074C266.88 235.602 259.987 228.734 251.483 228.734Z" fill="black"/>
<path d="M239.508 250.892C231.005 250.892 224.111 257.76 224.111 266.232C224.111 274.704 231.005 281.572 239.508 281.572C248.012 281.572 254.905 274.704 254.905 266.232C254.905 257.76 248.012 250.892 239.508 250.892Z" fill="black"/>
<path d="M226.73 232.144C219.142 232.144 212.991 238.236 212.991 245.752C212.991 253.267 219.142 259.359 226.73 259.359C234.318 259.359 240.469 253.267 240.469 245.752C240.469 238.236 234.318 232.144 226.73 232.144Z" fill="#202020"/>
<path d="M248.865 232.144C241.277 232.144 235.126 238.236 235.126 245.752C235.126 253.267 241.277 259.359 248.865 259.359C256.452 259.359 262.603 253.267 262.603 245.752C262.603 238.236 256.452 232.144 248.865 232.144Z" fill="#202020"/>
<path d="M238.178 251.799C230.59 251.799 224.439 257.892 224.439 265.407C224.439 272.923 230.59 279.015 238.178 279.015C245.766 279.015 251.917 272.923 251.917 265.407C251.917 257.892 245.766 251.799 238.178 251.799Z" fill="#202020"/>
<path d="M34.1705 62.6364C31.1705 62.6364 28.4962 62.1212 26.1477 61.0909C23.8144 60.0606 21.9583 58.6288 20.5795 56.7955C19.2159 54.947 18.4735 52.803 18.3523 50.3636H24.0795C24.2008 51.8636 24.7159 53.1591 25.625 54.25C26.5341 55.3258 27.7235 56.1591 29.1932 56.75C30.6629 57.3409 32.2917 57.6364 34.0795 57.6364C36.0795 57.6364 37.8523 57.2879 39.3977 56.5909C40.9432 55.8939 42.1553 54.9242 43.0341 53.6818C43.9129 52.4394 44.3523 51 44.3523 49.3636C44.3523 47.6515 43.928 46.1439 43.0795 44.8409C42.2311 43.5227 40.9886 42.4924 39.3523 41.75C37.7159 41.0076 35.7159 40.6364 33.3523 40.6364H29.625V35.6364H33.3523C35.2008 35.6364 36.822 35.303 38.2159 34.6364C39.625 33.9697 40.7235 33.0303 41.5114 31.8182C42.3144 30.6061 42.7159 29.1818 42.7159 27.5455C42.7159 25.9697 42.3674 24.5985 41.6705 23.4318C40.9735 22.2651 39.9886 21.3561 38.7159 20.7045C37.4583 20.053 35.9735 19.7273 34.2614 19.7273C32.6553 19.7273 31.1402 20.0227 29.7159 20.6136C28.3068 21.1894 27.1553 22.0303 26.2614 23.1364C25.3674 24.2273 24.8826 25.5455 24.8068 27.0909H19.3523C19.4432 24.6515 20.178 22.5151 21.5568 20.6818C22.9356 18.8333 24.7386 17.3939 26.9659 16.3636C29.2083 15.3333 31.6705 14.8182 34.3523 14.8182C37.2311 14.8182 39.7008 15.4015 41.7614 16.5682C43.822 17.7197 45.4053 19.2424 46.5114 21.1364C47.6174 23.0303 48.1705 25.0758 48.1705 27.2727C48.1705 29.8939 47.4811 32.1288 46.1023 33.9773C44.7386 35.8258 42.8826 37.1061 40.5341 37.8182V38.1818C43.4735 38.6667 45.7689 39.9167 47.4205 41.9318C49.072 43.9318 49.8977 46.4091 49.8977 49.3636C49.8977 51.8939 49.2083 54.1667 47.8295 56.1818C46.4659 58.1818 44.6023 59.7576 42.2386 60.9091C39.875 62.0606 37.1856 62.6364 34.1705 62.6364Z" fill="black"/>
<path d="M241.83 299.364C244.83 299.364 247.504 299.879 249.852 300.909C252.186 301.939 254.042 303.371 255.42 305.205C256.784 307.053 257.527 309.197 257.648 311.636H251.92C251.799 310.136 251.284 308.841 250.375 307.75C249.466 306.674 248.277 305.841 246.807 305.25C245.337 304.659 243.708 304.364 241.92 304.364C239.92 304.364 238.148 304.712 236.602 305.409C235.057 306.106 233.845 307.076 232.966 308.318C232.087 309.561 231.648 311 231.648 312.636C231.648 314.348 232.072 315.856 232.92 317.159C233.769 318.477 235.011 319.508 236.648 320.25C238.284 320.992 240.284 321.364 242.648 321.364H246.375V326.364H242.648C240.799 326.364 239.178 326.697 237.784 327.364C236.375 328.03 235.277 328.97 234.489 330.182C233.686 331.394 233.284 332.818 233.284 334.455C233.284 336.03 233.633 337.402 234.33 338.568C235.027 339.735 236.011 340.644 237.284 341.295C238.542 341.947 240.027 342.273 241.739 342.273C243.345 342.273 244.86 341.977 246.284 341.386C247.693 340.811 248.845 339.97 249.739 338.864C250.633 337.773 251.117 336.455 251.193 334.909H256.648C256.557 337.348 255.822 339.485 254.443 341.318C253.064 343.167 251.261 344.606 249.034 345.636C246.792 346.667 244.33 347.182 241.648 347.182C238.769 347.182 236.299 346.598 234.239 345.432C232.178 344.28 230.595 342.758 229.489 340.864C228.383 338.97 227.83 336.924 227.83 334.727C227.83 332.106 228.519 329.871 229.898 328.023C231.261 326.174 233.117 324.894 235.466 324.182V323.818C232.527 323.333 230.231 322.083 228.58 320.068C226.928 318.068 226.102 315.591 226.102 312.636C226.102 310.106 226.792 307.833 228.17 305.818C229.534 303.818 231.398 302.242 233.761 301.091C236.125 299.939 238.814 299.364 241.83 299.364Z" fill="black"/>
</g>
<defs>
<clipPath id="clip0_22_1766">
<rect width="278" height="365" fill="white"/>
</clipPath>
</defs>
</svg>
