<svg width="278" height="365" viewBox="0 0 278 365" fill="none" xmlns="http://www.w3.org/2000/svg">
<path d="M266.88 0H11.12C4.97859 0 0 4.66903 0 10.4286V354.571C0 360.331 4.97859 365 11.12 365H266.88C273.021 365 278 360.331 278 354.571V10.4286C278 4.66903 273.021 0 266.88 0Z" fill="white"/>
<path d="M42.3412 133.341C41.186 132.253 40.0409 130.961 38.9197 129.448C37.9218 130.578 35.8406 132.938 35.4983 133.341C37.0665 140.043 37.4657 154.042 26.5167 156.429H38.9197H51.3227C40.3738 154.042 40.773 140.043 42.3412 133.341Z" fill="#202020"/>
<path d="M51.3231 136.266C59.8266 136.266 66.7201 129.398 66.7201 120.926C66.7201 112.454 59.8266 105.586 51.3231 105.586C42.8196 105.586 35.9261 112.454 35.9261 120.926C35.9261 129.398 42.8196 136.266 51.3231 136.266Z" fill="black"/>
<path d="M26.517 136.266C35.0205 136.266 41.9139 129.398 41.9139 120.926C41.9139 112.454 35.0205 105.586 26.517 105.586C18.0135 105.586 11.12 112.454 11.12 120.926C11.12 129.398 18.0135 136.266 26.517 136.266Z" fill="black"/>
<path d="M38.4921 114.108C46.9956 114.108 53.889 107.24 53.889 98.7685C53.889 90.2966 46.9956 83.4287 38.4921 83.4287C29.9886 83.4287 23.0951 90.2966 23.0951 98.7685C23.0951 107.24 29.9886 114.108 38.4921 114.108Z" fill="black"/>
<path d="M51.2703 132.856C58.858 132.856 65.009 126.764 65.009 119.248C65.009 111.733 58.858 105.641 51.2703 105.641C43.6825 105.641 37.5315 111.733 37.5315 119.248C37.5315 126.764 43.6825 132.856 51.2703 132.856Z" fill="#202020"/>
<path d="M29.1354 132.856C36.7231 132.856 42.8741 126.764 42.8741 119.248C42.8741 111.733 36.7231 105.641 29.1354 105.641C21.5477 105.641 15.3966 111.733 15.3966 119.248C15.3966 126.764 21.5477 132.856 29.1354 132.856Z" fill="#202020"/>
<path d="M39.8216 113.201C47.4094 113.201 53.5604 107.109 53.5604 99.5932C53.5604 92.0778 47.4094 85.9854 39.8216 85.9854C32.2339 85.9854 26.0829 92.0778 26.0829 99.5932C26.0829 107.109 32.2339 113.201 39.8216 113.201Z" fill="#202020"/>
<path d="M235.658 231.659C236.814 232.747 237.959 234.039 239.08 235.552C240.079 234.422 242.159 232.062 242.502 231.659C240.934 224.957 240.535 210.957 251.483 208.571H239.08H226.677C237.627 210.957 237.227 224.957 235.658 231.659Z" fill="#202020"/>
<path d="M226.677 228.734C218.173 228.734 211.28 235.602 211.28 244.074C211.28 252.546 218.173 259.414 226.677 259.414C235.18 259.414 242.074 252.546 242.074 244.074C242.074 235.602 235.18 228.734 226.677 228.734Z" fill="black"/>
<path d="M251.483 228.734C242.98 228.734 236.086 235.602 236.086 244.074C236.086 252.546 242.98 259.414 251.483 259.414C259.987 259.414 266.88 252.546 266.88 244.074C266.88 235.602 259.987 228.734 251.483 228.734Z" fill="black"/>
<path d="M239.508 250.892C231.005 250.892 224.111 257.76 224.111 266.232C224.111 274.704 231.005 281.572 239.508 281.572C248.012 281.572 254.905 274.704 254.905 266.232C254.905 257.76 248.012 250.892 239.508 250.892Z" fill="black"/>
<path d="M226.73 232.144C219.142 232.144 212.991 238.236 212.991 245.752C212.991 253.267 219.142 259.359 226.73 259.359C234.318 259.359 240.469 253.267 240.469 245.752C240.469 238.236 234.318 232.144 226.73 232.144Z" fill="#202020"/>
<path d="M248.865 232.144C241.277 232.144 235.126 238.236 235.126 245.752C235.126 253.267 241.277 259.359 248.865 259.359C256.452 259.359 262.603 253.267 262.603 245.752C262.603 238.236 256.452 232.144 248.865 232.144Z" fill="#202020"/>
<path d="M238.178 251.799C230.59 251.799 224.439 257.892 224.439 265.407C224.439 272.923 230.59 279.015 238.178 279.015C245.766 279.015 251.917 272.923 251.917 265.407C251.917 257.892 245.766 251.799 238.178 251.799Z" fill="#202020"/>
<path d="M252.693 346.545V300H258.33V340.636H258.602L269.966 333.091V338.818L258.33 346.545H252.693ZM224.125 299.364C227.549 299.364 230.466 300.295 232.875 302.159C235.284 304.038 237.125 306.758 238.398 310.318C239.67 313.894 240.307 318.212 240.307 323.273C240.307 328.303 239.67 332.598 238.398 336.159C237.11 339.735 235.261 342.462 232.852 344.341C230.428 346.235 227.519 347.182 224.125 347.182C220.731 347.182 217.83 346.235 215.42 344.341C212.996 342.462 211.148 339.735 209.875 336.159C208.587 332.598 207.943 328.303 207.943 323.273C207.943 318.212 208.58 313.894 209.852 310.318C211.125 306.758 212.966 304.038 215.375 302.159C217.784 300.295 220.701 299.364 224.125 299.364ZM224.125 304.364C220.731 304.364 218.095 306 216.216 309.273C214.337 312.545 213.398 317.212 213.398 323.273C213.398 327.303 213.83 330.735 214.693 333.568C215.542 336.402 216.769 338.561 218.375 340.045C219.966 341.53 221.883 342.273 224.125 342.273C227.489 342.273 230.117 340.614 232.011 337.295C233.905 333.992 234.852 329.318 234.852 323.273C234.852 319.242 234.428 315.818 233.58 313C232.731 310.182 231.511 308.038 229.92 306.568C228.314 305.098 226.383 304.364 224.125 304.364Z" fill="black"/>
<path d="M26.3068 15.4545V62H20.6705V21.3636H20.3977L9.03409 28.9091V23.1818L20.6705 15.4545H26.3068ZM54.875 62.6364C51.4508 62.6364 48.5341 61.7045 46.125 59.8409C43.7159 57.9621 41.875 55.2424 40.6023 51.6818C39.3295 48.1061 38.6932 43.7879 38.6932 38.7273C38.6932 33.697 39.3295 29.4015 40.6023 25.8409C41.8902 22.2652 43.7386 19.5379 46.1477 17.6591C48.572 15.7651 51.4811 14.8182 54.875 14.8182C58.2689 14.8182 61.1705 15.7651 63.5795 17.6591C66.0038 19.5379 67.8523 22.2652 69.125 25.8409C70.4129 29.4015 71.0568 33.697 71.0568 38.7273C71.0568 43.7879 70.4205 48.1061 69.1477 51.6818C67.875 55.2424 66.0341 57.9621 63.625 59.8409C61.2159 61.7045 58.2992 62.6364 54.875 62.6364ZM54.875 57.6364C58.2689 57.6364 60.9053 56 62.7841 52.7273C64.6629 49.4545 65.6023 44.7879 65.6023 38.7273C65.6023 34.697 65.1705 31.2652 64.3068 28.4318C63.4583 25.5985 62.2311 23.4394 60.625 21.9545C59.0341 20.4697 57.1174 19.7273 54.875 19.7273C51.5114 19.7273 48.8826 21.3864 46.9886 24.7045C45.0947 28.0076 44.1477 32.6818 44.1477 38.7273C44.1477 42.7576 44.572 46.1818 45.4205 49C46.2689 51.8182 47.4886 53.9621 49.0795 55.4318C50.6856 56.9015 52.6174 57.6364 54.875 57.6364Z" fill="black"/>
</svg>
