<svg width="278" height="365" viewBox="0 0 278 365" fill="none" xmlns="http://www.w3.org/2000/svg">
<path d="M266.88 0H11.12C4.97859 0 0 4.66903 0 10.4286V354.571C0 360.331 4.97859 365 11.12 365H266.88C273.021 365 278 360.331 278 354.571V10.4286C278 4.66903 273.021 0 266.88 0Z" fill="white"/>
<path d="M22.2401 114.714L38.92 83.4286L55.6 114.714L38.92 156.429L22.2401 114.714Z" fill="#FF0000"/>
<path d="M22.2401 114.714L38.92 83.4286L55.6 114.714L38.92 156.429L22.2401 114.714Z" fill="#FF0000"/>
<path d="M33.36 119.929L38.92 83.4286L55.6 114.714L38.92 156.429L33.36 119.929Z" fill="#8C0000"/>
<path d="M255.76 250.286L239.08 281.571L222.4 250.286L239.08 208.571L255.76 250.286Z" fill="#FF0000"/>
<path d="M255.76 250.286L239.08 281.571L222.4 250.286L239.08 208.571L255.76 250.286Z" fill="#FF0000"/>
<path d="M244.64 245.071L239.08 281.571L222.4 250.286L239.08 208.571L244.64 245.071Z" fill="#8C0000"/>
<path d="M37.1705 47.4545H43.3523L48.5341 54.2727L49.8977 56.0909L57.625 66.3636H51.4432L46.3523 59.5455L45.0795 57.8182L37.1705 47.4545ZM59.5341 38.7273C59.5341 43.6364 58.6477 47.8788 56.875 51.4545C55.1023 55.0303 52.6705 57.7879 49.5795 59.7273C46.4886 61.6667 42.9583 62.6364 38.9886 62.6364C35.0189 62.6364 31.4886 61.6667 28.3977 59.7273C25.3068 57.7879 22.875 55.0303 21.1023 51.4545C19.3295 47.8788 18.4432 43.6364 18.4432 38.7273C18.4432 33.8182 19.3295 29.5758 21.1023 26C22.875 22.4242 25.3068 19.6667 28.3977 17.7273C31.4886 15.7879 35.0189 14.8182 38.9886 14.8182C42.9583 14.8182 46.4886 15.7879 49.5795 17.7273C52.6705 19.6667 55.1023 22.4242 56.875 26C58.6477 29.5758 59.5341 33.8182 59.5341 38.7273ZM54.0795 38.7273C54.0795 34.697 53.4053 31.2955 52.0568 28.5227C50.7235 25.75 48.9129 23.6515 46.625 22.2273C44.3523 20.803 41.8068 20.0909 38.9886 20.0909C36.1705 20.0909 33.6174 20.803 31.3295 22.2273C29.0568 23.6515 27.2462 25.75 25.8977 28.5227C24.5644 31.2955 23.8977 34.697 23.8977 38.7273C23.8977 42.7576 24.5644 46.1591 25.8977 48.9318C27.2462 51.7045 29.0568 53.803 31.3295 55.2273C33.6174 56.6515 36.1705 57.3636 38.9886 57.3636C41.8068 57.3636 44.3523 56.6515 46.625 55.2273C48.9129 53.803 50.7235 51.7045 52.0568 48.9318C53.4053 46.1591 54.0795 42.7576 54.0795 38.7273Z" fill="black"/>
<path d="M235.83 317.545H229.648L224.466 310.727L223.102 308.909L215.375 298.636H221.557L226.648 305.455L227.92 307.182L235.83 317.545ZM213.466 326.273C213.466 321.364 214.352 317.121 216.125 313.545C217.898 309.97 220.33 307.212 223.42 305.273C226.511 303.333 230.042 302.364 234.011 302.364C237.981 302.364 241.511 303.333 244.602 305.273C247.693 307.212 250.125 309.97 251.898 313.545C253.67 317.121 254.557 321.364 254.557 326.273C254.557 331.182 253.67 335.424 251.898 339C250.125 342.576 247.693 345.333 244.602 347.273C241.511 349.212 237.981 350.182 234.011 350.182C230.042 350.182 226.511 349.212 223.42 347.273C220.33 345.333 217.898 342.576 216.125 339C214.352 335.424 213.466 331.182 213.466 326.273ZM218.92 326.273C218.92 330.303 219.595 333.705 220.943 336.477C222.277 339.25 224.087 341.348 226.375 342.773C228.648 344.197 231.193 344.909 234.011 344.909C236.83 344.909 239.383 344.197 241.67 342.773C243.943 341.348 245.754 339.25 247.102 336.477C248.436 333.705 249.102 330.303 249.102 326.273C249.102 322.242 248.436 318.841 247.102 316.068C245.754 313.295 243.943 311.197 241.67 309.773C239.383 308.348 236.83 307.636 234.011 307.636C231.193 307.636 228.648 308.348 226.375 309.773C224.087 311.197 222.277 313.295 220.943 316.068C219.595 318.841 218.92 322.242 218.92 326.273Z" fill="black"/>
</svg>
