<svg width="278" height="365" viewBox="0 0 278 365" fill="none" xmlns="http://www.w3.org/2000/svg">
<path d="M266.88 0H11.12C4.97859 0 0 4.66903 0 10.4286V354.571C0 360.331 4.97859 365 11.12 365H266.88C273.021 365 278 360.331 278 354.571V10.4286C278 4.66903 273.021 0 266.88 0Z" fill="white"/>
<path d="M22.2401 114.714L38.92 83.4286L55.6 114.714L38.92 156.429L22.2401 114.714Z" fill="#FF0000"/>
<path d="M22.2401 114.714L38.92 83.4286L55.6 114.714L38.92 156.429L22.2401 114.714Z" fill="#FF0000"/>
<path d="M33.36 119.929L38.92 83.4287L55.6 114.714L38.92 156.429L33.36 119.929Z" fill="#8C0000"/>
<path d="M255.76 250.286L239.08 281.571L222.4 250.286L239.08 208.571L255.76 250.286Z" fill="#FF0000"/>
<path d="M255.76 250.286L239.08 281.571L222.4 250.286L239.08 208.571L255.76 250.286Z" fill="#FF0000"/>
<path d="M244.64 245.071L239.08 281.571L222.4 250.286L239.08 208.571L244.64 245.071Z" fill="#8C0000"/>
<path d="M36.304 62.6364C34.3949 62.6061 32.4858 62.2424 30.5767 61.5455C28.6676 60.8485 26.9252 59.6742 25.3494 58.0227C23.7737 56.3561 22.5085 54.1061 21.554 51.2727C20.5994 48.4242 20.1222 44.8485 20.1222 40.5455C20.1222 36.4242 20.5085 32.7727 21.2812 29.5909C22.054 26.3939 23.1752 23.7045 24.6449 21.5227C26.1146 19.3258 27.8873 17.6591 29.9631 16.5227C32.054 15.3864 34.41 14.8182 37.0312 14.8182C39.6373 14.8182 41.9555 15.3409 43.9858 16.3864C46.0313 17.4167 47.6979 18.8561 48.9858 20.7045C50.2737 22.553 51.107 24.6818 51.4858 27.0909H45.9403C45.4252 25 44.4252 23.2652 42.9403 21.8864C41.4555 20.5076 39.4858 19.8182 37.0312 19.8182C33.4252 19.8182 30.5843 21.3864 28.5085 24.5227C26.4479 27.6591 25.41 32.0606 25.3949 37.7273H25.7585C26.607 36.4394 27.6146 35.3409 28.7812 34.4318C29.9631 33.5076 31.2661 32.7955 32.6903 32.2955C34.1146 31.7955 35.6222 31.5455 37.2131 31.5455C39.8797 31.5455 42.3191 32.2121 44.5312 33.5455C46.7434 34.8636 48.5161 36.6894 49.8494 39.0227C51.1828 41.3409 51.8494 44 51.8494 47C51.8494 49.8788 51.2055 52.5152 49.9176 54.9091C48.6297 57.2879 46.8191 59.1818 44.4858 60.5909C42.1676 61.9848 39.4403 62.6667 36.304 62.6364ZM36.304 57.6364C38.2131 57.6364 39.9252 57.1591 41.4403 56.2045C42.9706 55.25 44.1752 53.9697 45.054 52.3636C45.9479 50.7576 46.3949 48.9697 46.3949 47C46.3949 45.0758 45.9631 43.3258 45.0994 41.75C44.2509 40.1591 43.0767 38.8939 41.5767 37.9545C40.0919 37.0152 38.3949 36.5455 36.4858 36.5455C35.0464 36.5455 33.7055 36.8333 32.4631 37.4091C31.2206 37.9697 30.1297 38.7424 29.1903 39.7273C28.2661 40.7121 27.5388 41.8409 27.0085 43.1136C26.4782 44.3712 26.2131 45.697 26.2131 47.0909C26.2131 48.9394 26.6449 50.6667 27.5085 52.2727C28.3873 53.8788 29.5843 55.1742 31.0994 56.1591C32.6297 57.1439 34.3646 57.6364 36.304 57.6364Z" fill="black"/>
<path d="M241.696 302.364C243.605 302.394 245.514 302.758 247.423 303.455C249.332 304.152 251.075 305.326 252.651 306.977C254.226 308.644 255.491 310.894 256.446 313.727C257.401 316.576 257.878 320.152 257.878 324.455C257.878 328.576 257.491 332.227 256.719 335.409C255.946 338.606 254.825 341.295 253.355 343.477C251.885 345.674 250.113 347.341 248.037 348.477C245.946 349.614 243.59 350.182 240.969 350.182C238.363 350.182 236.045 349.659 234.014 348.614C231.969 347.583 230.302 346.144 229.014 344.295C227.726 342.447 226.893 340.318 226.514 337.909H232.06C232.575 340 233.575 341.735 235.06 343.114C236.545 344.492 238.514 345.182 240.969 345.182C244.575 345.182 247.416 343.614 249.491 340.477C251.552 337.341 252.59 332.939 252.605 327.273H252.241C251.393 328.561 250.385 329.659 249.219 330.568C248.037 331.492 246.734 332.205 245.31 332.705C243.885 333.205 242.378 333.455 240.787 333.455C238.12 333.455 235.681 332.788 233.469 331.455C231.257 330.136 229.484 328.311 228.151 325.977C226.817 323.659 226.151 321 226.151 318C226.151 315.121 226.795 312.485 228.082 310.091C229.37 307.712 231.181 305.818 233.514 304.409C235.832 303.015 238.56 302.333 241.696 302.364ZM241.696 307.364C239.787 307.364 238.075 307.841 236.56 308.795C235.029 309.75 233.825 311.03 232.946 312.636C232.052 314.242 231.605 316.03 231.605 318C231.605 319.924 232.037 321.674 232.901 323.25C233.749 324.841 234.923 326.106 236.423 327.045C237.908 327.985 239.605 328.455 241.514 328.455C242.954 328.455 244.295 328.167 245.537 327.591C246.779 327.03 247.87 326.258 248.81 325.273C249.734 324.288 250.461 323.159 250.991 321.886C251.522 320.629 251.787 319.303 251.787 317.909C251.787 316.061 251.355 314.333 250.491 312.727C249.613 311.121 248.416 309.826 246.901 308.841C245.37 307.856 243.635 307.364 241.696 307.364Z" fill="black"/>
</svg>
