<svg width="278" height="365" viewBox="0 0 278 365" fill="none" xmlns="http://www.w3.org/2000/svg">
<g clip-path="url(#clip0_22_1179)">
<path d="M266.88 0H11.12C4.97859 0 0 4.66903 0 10.4286V354.571C0 360.331 4.97859 365 11.12 365H266.88C273.021 365 278 360.331 278 354.571V10.4286C278 4.66903 273.021 0 266.88 0Z" fill="white"/>
<path d="M22.2401 114.714L38.92 83.4286L55.6 114.714L38.92 156.429L22.2401 114.714Z" fill="#FF0000"/>
<path d="M22.2401 114.714L38.92 83.4286L55.6 114.714L38.92 156.429L22.2401 114.714Z" fill="#FF0000"/>
<path d="M33.36 119.929L38.92 83.4287L55.6 114.714L38.92 156.429L33.36 119.929Z" fill="#8C0000"/>
<path d="M255.76 250.286L239.08 281.571L222.4 250.286L239.08 208.571L255.76 250.286Z" fill="#FF0000"/>
<path d="M255.76 250.286L239.08 281.571L222.4 250.286L239.08 208.571L255.76 250.286Z" fill="#FF0000"/>
<path d="M244.64 245.071L239.08 281.571L222.4 250.286L239.08 208.571L244.64 245.071Z" fill="#8C0000"/>
<path d="M32.8949 62.6364C30.2282 62.6364 27.8267 62.1061 25.6903 61.0455C23.554 59.9848 21.8419 58.5303 20.554 56.6818C19.2661 54.8333 18.5616 52.7273 18.4403 50.3636H23.8949C24.107 52.4697 25.0616 54.2121 26.7585 55.5909C28.4706 56.9545 30.5161 57.6364 32.8949 57.6364C34.804 57.6364 36.5009 57.1894 37.9858 56.2955C39.4858 55.4015 40.66 54.1742 41.5085 52.6136C42.3722 51.0379 42.804 49.2576 42.804 47.2727C42.804 45.2424 42.357 43.4318 41.4631 41.8409C40.5843 40.2348 39.3722 38.9697 37.8267 38.0455C36.2813 37.1212 34.5161 36.6515 32.5312 36.6364C31.107 36.6212 29.6449 36.8409 28.1449 37.2955C26.6449 37.7348 25.41 38.303 24.4403 39L19.1676 38.3636L21.9858 15.4545H46.1676V20.4545H26.7131L25.0767 34.1818H25.3494C26.304 33.4242 27.5009 32.7955 28.9403 32.2955C30.3797 31.7955 31.8797 31.5455 33.4403 31.5455C36.2888 31.5455 38.8267 32.2273 41.054 33.5909C43.2964 34.9394 45.054 36.7879 46.3267 39.1364C47.6146 41.4848 48.2585 44.1667 48.2585 47.1818C48.2585 50.1515 47.5919 52.803 46.2585 55.1364C44.9403 57.4545 43.1222 59.2879 40.804 60.6364C38.4858 61.9697 35.8494 62.6364 32.8949 62.6364Z" fill="black"/>
<path d="M245.105 302.364C247.772 302.364 250.173 302.894 252.31 303.955C254.446 305.015 256.158 306.47 257.446 308.318C258.734 310.167 259.438 312.273 259.56 314.636H254.105C253.893 312.53 252.938 310.788 251.241 309.409C249.529 308.045 247.484 307.364 245.105 307.364C243.196 307.364 241.499 307.811 240.014 308.705C238.514 309.598 237.34 310.826 236.491 312.386C235.628 313.962 235.196 315.742 235.196 317.727C235.196 319.758 235.643 321.568 236.537 323.159C237.416 324.765 238.628 326.03 240.173 326.955C241.719 327.879 243.484 328.348 245.469 328.364C246.893 328.379 248.355 328.159 249.855 327.705C251.355 327.265 252.59 326.697 253.56 326L258.832 326.636L256.014 349.545H231.832V344.545H251.287L252.923 330.818H252.651C251.696 331.576 250.499 332.205 249.06 332.705C247.62 333.205 246.12 333.455 244.56 333.455C241.711 333.455 239.173 332.773 236.946 331.409C234.704 330.061 232.946 328.212 231.673 325.864C230.385 323.515 229.741 320.833 229.741 317.818C229.741 314.848 230.408 312.197 231.741 309.864C233.06 307.545 234.878 305.712 237.196 304.364C239.514 303.03 242.151 302.364 245.105 302.364Z" fill="black"/>
</g>
<defs>
<clipPath id="clip0_22_1179">
<rect width="278" height="365" fill="white"/>
</clipPath>
</defs>
</svg>
