<svg width="278" height="365" viewBox="0 0 278 365" fill="none" xmlns="http://www.w3.org/2000/svg">
<path d="M266.88 0H11.12C4.97859 0 0 4.66903 0 10.4286V354.571C0 360.331 4.97859 365 11.12 365H266.88C273.021 365 278 360.331 278 354.571V10.4286C278 4.66903 273.021 0 266.88 0Z" fill="white"/>
<path d="M22.2401 114.714L38.92 83.4286L55.6 114.714L38.92 156.429L22.2401 114.714Z" fill="#FF0000"/>
<path d="M22.2401 114.714L38.92 83.4286L55.6 114.714L38.92 156.429L22.2401 114.714Z" fill="#FF0000"/>
<path d="M33.36 119.929L38.92 83.4286L55.6 114.714L38.92 156.429L33.36 119.929Z" fill="#8C0000"/>
<path d="M255.76 250.286L239.08 281.571L222.4 250.286L239.08 208.571L255.76 250.286Z" fill="#FF0000"/>
<path d="M255.76 250.286L239.08 281.571L222.4 250.286L239.08 208.571L255.76 250.286Z" fill="#FF0000"/>
<path d="M244.64 245.071L239.08 281.571L222.4 250.286L239.08 208.571L244.64 245.071Z" fill="#8C0000"/>
<path d="M45.0795 15.4545H50.7159V48.7273C50.7159 51.697 50.1705 54.2197 49.0795 56.2955C47.9886 58.3712 46.4508 59.947 44.4659 61.0227C42.4811 62.0985 40.1402 62.6364 37.4432 62.6364C34.8977 62.6364 32.6326 62.1742 30.6477 61.25C28.6629 60.3106 27.1023 58.9773 25.9659 57.25C24.8295 55.5227 24.2614 53.4697 24.2614 51.0909H29.8068C29.8068 52.4091 30.1326 53.5606 30.7841 54.5455C31.4508 55.5152 32.3598 56.2727 33.5114 56.8182C34.6629 57.3636 35.9735 57.6364 37.4432 57.6364C39.0644 57.6364 40.4432 57.2955 41.5795 56.6136C42.7159 55.9318 43.5795 54.9318 44.1705 53.6136C44.7765 52.2803 45.0795 50.6515 45.0795 48.7273V15.4545Z" fill="black"/>
<path d="M232.92 349.545H227.284V316.273C227.284 313.303 227.83 310.78 228.92 308.705C230.011 306.629 231.549 305.053 233.534 303.977C235.519 302.902 237.86 302.364 240.557 302.364C243.102 302.364 245.367 302.826 247.352 303.75C249.337 304.689 250.898 306.023 252.034 307.75C253.17 309.477 253.739 311.53 253.739 313.909H248.193C248.193 312.591 247.867 311.439 247.216 310.455C246.549 309.485 245.64 308.727 244.489 308.182C243.337 307.636 242.027 307.364 240.557 307.364C238.936 307.364 237.557 307.705 236.42 308.386C235.284 309.068 234.42 310.068 233.83 311.386C233.223 312.72 232.92 314.348 232.92 316.273V349.545Z" fill="black"/>
</svg>
