<svg width="278" height="365" viewBox="0 0 278 365" fill="none" xmlns="http://www.w3.org/2000/svg">
<g clip-path="url(#clip0_22_1415)">
<path d="M266.88 0H11.12C4.97859 0 0 4.66903 0 10.4286V354.571C0 360.331 4.97859 365 11.12 365H266.88C273.021 365 278 360.331 278 354.571V10.4286C278 4.66903 273.021 0 266.88 0Z" fill="white"/>
<path d="M66.5388 84.9327C64.4093 73.6586 50.4278 66.6556 38.9198 81.2774C27.4119 66.6556 13.4307 73.6588 11.3011 84.9329C8.50954 99.7118 38.9198 114.261 38.9198 125.143C38.9198 114.261 69.3303 99.7117 66.5388 84.9327Z" fill="#FF0000"/>
<path d="M66.5387 84.9329C64.4091 73.6588 50.4276 69.7846 38.9197 84.4064C36.3133 74.2222 17.6154 74.4023 15.029 84.9329C11.3562 99.8864 38.9197 101.109 38.9197 125.143C38.9197 114.261 69.3303 99.7118 66.5387 84.9329Z" fill="#8C0000"/>
<path d="M211.461 280.068C213.591 291.341 227.572 298.345 239.08 283.723C250.588 298.345 264.569 291.341 266.699 280.068C269.491 265.288 239.08 250.739 239.08 239.857C239.08 250.739 208.67 265.288 211.461 280.068Z" fill="#FF0000"/>
<path d="M211.461 280.068C213.591 291.341 227.572 295.215 239.08 280.593C241.687 290.778 260.385 290.597 262.971 280.068C266.644 265.114 239.08 263.892 239.08 239.857C239.08 250.739 208.67 265.288 211.461 280.068Z" fill="#8C0000"/>
<path d="M241.476 360.154C239.567 360.139 237.658 359.776 235.749 359.064C233.84 358.351 232.098 357.17 230.522 355.518C228.946 353.882 227.681 351.647 226.726 348.814C225.772 345.98 225.295 342.427 225.295 338.154C225.295 334.018 225.688 330.344 226.476 327.132C227.249 323.935 228.37 321.238 229.84 319.041C231.295 316.844 233.067 315.177 235.158 314.041C237.234 312.904 239.582 312.336 242.204 312.336C244.81 312.336 247.135 312.851 249.181 313.882C251.211 314.927 252.878 316.374 254.181 318.223C255.469 320.086 256.295 322.245 256.658 324.7H251.113C250.613 322.564 249.62 320.798 248.135 319.404C246.635 318.026 244.658 317.336 242.204 317.336C238.613 317.336 235.779 318.904 233.704 322.041C231.613 325.177 230.567 329.609 230.567 335.336H230.931C231.779 334.064 232.787 332.965 233.954 332.041C235.12 331.117 236.416 330.404 237.84 329.904C239.264 329.404 240.779 329.154 242.385 329.154C245.052 329.154 247.499 329.814 249.726 331.132C251.938 332.465 253.711 334.291 255.045 336.609C256.363 338.942 257.022 341.609 257.022 344.609C257.022 347.458 256.385 350.064 255.113 352.427C253.825 354.806 252.022 356.7 249.704 358.109C247.37 359.518 244.628 360.2 241.476 360.154ZM241.476 355.154C243.385 355.154 245.105 354.677 246.635 353.723C248.151 352.783 249.355 351.511 250.249 349.904C251.128 348.314 251.567 346.548 251.567 344.609C251.567 342.67 251.143 340.904 250.295 339.314C249.431 337.738 248.257 336.48 246.772 335.541C245.272 334.617 243.567 334.154 241.658 334.154C240.219 334.154 238.878 334.435 237.635 334.995C236.393 335.571 235.31 336.351 234.385 337.336C233.446 338.336 232.711 339.465 232.181 340.723C231.651 341.995 231.385 343.321 231.385 344.7C231.385 346.518 231.825 348.223 232.704 349.814C233.567 351.404 234.764 352.692 236.295 353.677C237.81 354.662 239.537 355.154 241.476 355.154Z" fill="black"/>
<path d="M34.6676 4.81818C36.5767 4.83333 38.4858 5.19697 40.3949 5.90909C42.304 6.62121 44.0464 7.80303 45.6222 9.45454C47.1979 11.0909 48.4631 13.3258 49.4176 16.1591C50.3722 18.9924 50.8494 22.5455 50.8494 26.8182C50.8494 30.9545 50.4555 34.6288 49.6676 37.8409C48.8949 41.0379 47.7737 43.7348 46.304 45.9318C44.8494 48.1288 43.0767 49.7955 40.9858 50.9318C38.91 52.0682 36.5616 52.6364 33.9403 52.6364C31.3343 52.6364 29.0085 52.1212 26.9631 51.0909C24.9328 50.0455 23.2661 48.5985 21.9631 46.75C20.6752 44.8864 19.8494 42.7273 19.4858 40.2727H25.0312C25.5312 42.4091 26.5237 44.1742 28.0085 45.5682C29.5085 46.947 31.4858 47.6364 33.9403 47.6364C37.5313 47.6364 40.3646 46.0682 42.4403 42.9318C44.5313 39.7955 45.5767 35.3636 45.5767 29.6364H45.2131C44.3646 30.9091 43.357 32.0076 42.1903 32.9318C41.0237 33.8561 39.7282 34.5682 38.304 35.0682C36.8797 35.5682 35.3646 35.8182 33.7585 35.8182C31.0919 35.8182 28.6449 35.1591 26.4176 33.8409C24.2055 32.5076 22.4328 30.6818 21.0994 28.3636C19.7812 26.0303 19.1222 23.3636 19.1222 20.3636C19.1222 17.5152 19.7585 14.9091 21.0312 12.5455C22.3191 10.1667 24.1222 8.27273 26.4403 6.86364C28.7737 5.45455 31.5161 4.77273 34.6676 4.81818ZM34.6676 9.81818C32.7585 9.81818 31.0388 10.2955 29.5085 11.25C27.9934 12.1894 26.7888 13.4621 25.8949 15.0682C25.0161 16.6591 24.5767 18.4242 24.5767 20.3636C24.5767 22.303 25.0009 24.0682 25.8494 25.6591C26.7131 27.2348 27.8873 28.4924 29.3722 29.4318C30.8722 30.3561 32.5767 30.8182 34.4858 30.8182C35.9252 30.8182 37.2661 30.5379 38.5085 29.9773C39.7509 29.4015 40.8343 28.6212 41.7585 27.6364C42.6979 26.6364 43.4328 25.5076 43.9631 24.25C44.4934 22.9773 44.7585 21.6515 44.7585 20.2727C44.7585 18.4545 44.3191 16.75 43.4403 15.1591C42.5767 13.5682 41.3797 12.2803 39.8494 11.2955C38.3343 10.3106 36.607 9.81818 34.6676 9.81818Z" fill="black"/>
</g>
<defs>
<clipPath id="clip0_22_1415">
<rect width="278" height="365" fill="white"/>
</clipPath>
</defs>
</svg>
