<svg width="278" height="365" viewBox="0 0 278 365" fill="none" xmlns="http://www.w3.org/2000/svg">
<path d="M266.88 0H11.12C4.97859 0 0 4.66903 0 10.4286V354.571C0 360.331 4.97859 365 11.12 365H266.88C273.021 365 278 360.331 278 354.571V10.4286C278 4.66903 273.021 0 266.88 0Z" fill="white"/>
<path d="M66.5386 84.9327C64.4092 73.6586 50.4277 66.6556 38.9197 81.2774C27.4118 66.6556 13.4305 73.6588 11.3009 84.9329C8.50942 99.7118 38.9197 114.261 38.9197 125.143C38.9197 114.261 69.3302 99.7117 66.5386 84.9327Z" fill="#FF0000"/>
<path d="M66.5388 84.9329C64.4092 73.6588 50.4277 69.7846 38.9198 84.4064C36.3134 74.2222 17.6155 74.4023 15.0291 84.9329C11.3564 99.8864 38.9198 101.109 38.9198 125.143C38.9198 114.261 69.3304 99.7118 66.5388 84.9329Z" fill="#8C0000"/>
<path d="M211.461 280.068C213.591 291.341 227.572 298.345 239.08 283.723C250.588 298.345 264.569 291.341 266.699 280.068C269.491 265.288 239.08 250.739 239.08 239.857C239.08 250.739 208.67 265.288 211.461 280.068Z" fill="#FF0000"/>
<path d="M211.461 280.068C213.591 291.341 227.572 295.215 239.08 280.593C241.687 290.778 260.385 290.597 262.971 280.068C266.644 265.114 239.08 263.892 239.08 239.857C239.08 250.739 208.67 265.288 211.461 280.068Z" fill="#8C0000"/>
<path d="M256.383 303V349.545H250.746V326.455H250.201L229.292 349.545H221.928L241.473 328.545L221.928 303H228.746L244.928 324.636L250.746 318.091V303H256.383Z" fill="black"/>
<path d="M28.9885 62V15.4545H34.6249V38.5455H35.1703L56.0794 15.4545H63.4431L43.8976 36.4545L63.4431 62H56.6249L40.4431 40.3636L34.6249 46.9091V62H28.9885Z" fill="black"/>
</svg>
