<svg width="25" height="35" viewBox="0 0 25 35" fill="none" xmlns="http://www.w3.org/2000/svg">
<rect width="25" height="35" rx="1" fill="white"/>
<path d="M5.9837 8.14423C5.7922 7.06315 4.53487 6.39163 3.49998 7.79372C2.4651 6.39163 1.20779 7.06317 1.01628 8.14425C0.765244 9.5614 3.49998 10.9565 3.49998 12C3.49998 10.9565 6.23474 9.56139 5.9837 8.14423Z" fill="#FF0000"/>
<path d="M5.9837 8.14424C5.79219 7.06316 4.53486 6.69167 3.49998 8.09376C3.26559 7.11719 1.58412 7.13446 1.35153 8.14424C1.02125 9.57814 3.49998 9.69533 3.49998 12C3.49998 10.9565 6.23474 9.5614 5.9837 8.14424Z" fill="#8C0000"/>
<path d="M19.0163 26.8558C19.2078 27.9368 20.4651 28.6084 21.5 27.2063C22.5349 28.6084 23.7922 27.9368 23.9837 26.8558C24.2348 25.4386 21.5 24.0435 21.5 23C21.5 24.0435 18.7653 25.4386 19.0163 26.8558Z" fill="#FF0000"/>
<path d="M19.0163 26.8558C19.2078 27.9368 20.4651 28.3083 21.5 26.9062C21.7344 27.8828 23.4159 27.8655 23.6485 26.8558C23.9788 25.4219 21.5 25.3047 21.5 23C21.5 24.0435 18.7653 25.4386 19.0163 26.8558Z" fill="#8C0000"/>
</svg>
