<svg width="278" height="365" viewBox="0 0 278 365" fill="none" xmlns="http://www.w3.org/2000/svg">
<g clip-path="url(#clip0_22_1397)">
<path d="M266.88 0H11.12C4.97859 0 0 4.66903 0 10.4286V354.571C0 360.331 4.97859 365 11.12 365H266.88C273.021 365 278 360.331 278 354.571V10.4286C278 4.66903 273.021 0 266.88 0Z" fill="white"/>
<path d="M66.5386 84.9327C64.4092 73.6586 50.4277 66.6556 38.9197 81.2774C27.4118 66.6556 13.4305 73.6588 11.3009 84.9329C8.50942 99.7118 38.9197 114.261 38.9197 125.143C38.9197 114.261 69.3302 99.7117 66.5386 84.9327Z" fill="#FF0000"/>
<path d="M66.5388 84.9328C64.4092 73.6586 50.4277 69.7845 38.9198 84.4063C36.3134 74.2221 17.6155 74.4022 15.0291 84.9328C11.3564 99.8863 38.9198 101.108 38.9198 125.143C38.9198 114.261 69.3304 99.7117 66.5388 84.9328Z" fill="#8C0000"/>
<path d="M211.461 280.068C213.591 291.341 227.572 298.345 239.08 283.723C250.588 298.345 264.569 291.341 266.699 280.068C269.491 265.288 239.08 250.739 239.08 239.857C239.08 250.739 208.67 265.288 211.461 280.068Z" fill="#FF0000"/>
<path d="M211.461 280.068C213.591 291.341 227.572 295.215 239.08 280.593C241.687 290.778 260.385 290.597 262.971 280.068C266.644 265.114 239.08 263.892 239.08 239.857C239.08 250.739 208.67 265.288 211.461 280.068Z" fill="#8C0000"/>
<path d="M248.211 310.342C250.12 310.372 252.029 310.736 253.938 311.433C255.847 312.13 257.59 313.304 259.166 314.955C260.741 316.622 262.007 318.872 262.961 321.705C263.916 324.554 264.393 328.13 264.393 332.433C264.393 336.554 264.007 340.205 263.234 343.387C262.461 346.584 261.34 349.274 259.87 351.455C258.4 353.652 256.628 355.319 254.552 356.455C252.461 357.592 250.105 358.16 247.484 358.16C244.878 358.16 242.56 357.637 240.529 356.592C238.484 355.561 236.817 354.122 235.529 352.274C234.241 350.425 233.408 348.296 233.029 345.887H238.575C239.09 347.978 240.09 349.713 241.575 351.092C243.06 352.471 245.029 353.16 247.484 353.16C251.09 353.16 253.931 351.592 256.007 348.455C258.067 345.319 259.105 340.918 259.12 335.251H258.757C257.908 336.539 256.9 337.637 255.734 338.546C254.552 339.471 253.249 340.183 251.825 340.683C250.4 341.183 248.893 341.433 247.302 341.433C244.635 341.433 242.196 340.766 239.984 339.433C237.772 338.115 235.999 336.289 234.666 333.955C233.332 331.637 232.666 328.978 232.666 325.978C232.666 323.099 233.31 320.463 234.597 318.069C235.885 315.69 237.696 313.796 240.029 312.387C242.347 310.993 245.075 310.311 248.211 310.342ZM248.211 315.342C246.302 315.342 244.59 315.819 243.075 316.774C241.544 317.728 240.34 319.008 239.461 320.615C238.567 322.221 238.12 324.008 238.12 325.978C238.12 327.902 238.552 329.652 239.416 331.228C240.264 332.819 241.438 334.084 242.938 335.024C244.423 335.963 246.12 336.433 248.029 336.433C249.469 336.433 250.81 336.145 252.052 335.569C253.294 335.008 254.385 334.236 255.325 333.251C256.249 332.266 256.976 331.137 257.507 329.865C258.037 328.607 258.302 327.281 258.302 325.887C258.302 324.039 257.87 322.311 257.007 320.705C256.128 319.099 254.931 317.804 253.416 316.819C251.885 315.834 250.15 315.342 248.211 315.342Z" fill="black"/>
<path d="M35.304 62.6364C33.3949 62.6061 31.4858 62.2424 29.5767 61.5455C27.6676 60.8485 25.9252 59.6742 24.3494 58.0227C22.7737 56.3561 21.5085 54.1061 20.554 51.2727C19.5994 48.4242 19.1222 44.8485 19.1222 40.5455C19.1222 36.4242 19.5085 32.7727 20.2812 29.5909C21.054 26.3939 22.1752 23.7045 23.6449 21.5227C25.1146 19.3258 26.8873 17.6591 28.9631 16.5227C31.054 15.3864 33.41 14.8182 36.0312 14.8182C38.6373 14.8182 40.9555 15.3409 42.9858 16.3864C45.0313 17.4167 46.6979 18.8561 47.9858 20.7045C49.2737 22.553 50.107 24.6818 50.4858 27.0909H44.9403C44.4252 25 43.4252 23.2652 41.9403 21.8864C40.4555 20.5076 38.4858 19.8182 36.0312 19.8182C32.4252 19.8182 29.5843 21.3864 27.5085 24.5227C25.4479 27.6591 24.41 32.0606 24.3949 37.7273H24.7585C25.607 36.4394 26.6146 35.3409 27.7812 34.4318C28.9631 33.5076 30.2661 32.7955 31.6903 32.2955C33.1146 31.7955 34.6222 31.5455 36.2131 31.5455C38.8797 31.5455 41.3191 32.2121 43.5312 33.5455C45.7434 34.8636 47.5161 36.6894 48.8494 39.0227C50.1828 41.3409 50.8494 44 50.8494 47C50.8494 49.8788 50.2055 52.5152 48.9176 54.9091C47.6297 57.2879 45.8191 59.1818 43.4858 60.5909C41.1676 61.9848 38.4403 62.6667 35.304 62.6364ZM35.304 57.6364C37.2131 57.6364 38.9252 57.1591 40.4403 56.2045C41.9706 55.25 43.1752 53.9697 44.054 52.3636C44.9479 50.7576 45.3949 48.9697 45.3949 47C45.3949 45.0758 44.9631 43.3258 44.0994 41.75C43.2509 40.1591 42.0767 38.8939 40.5767 37.9545C39.0919 37.0152 37.3949 36.5455 35.4858 36.5455C34.0464 36.5455 32.7055 36.8333 31.4631 37.4091C30.2206 37.9697 29.1297 38.7424 28.1903 39.7273C27.2661 40.7121 26.5388 41.8409 26.0085 43.1136C25.4782 44.3712 25.2131 45.697 25.2131 47.0909C25.2131 48.9394 25.6449 50.6667 26.5085 52.2727C27.3873 53.8788 28.5843 55.1742 30.0994 56.1591C31.6297 57.1439 33.3646 57.6364 35.304 57.6364Z" fill="black"/>
</g>
<defs>
<clipPath id="clip0_22_1397">
<rect width="278" height="365" fill="white"/>
</clipPath>
</defs>
</svg>
