<svg width="278" height="365" viewBox="0 0 278 365" fill="none" xmlns="http://www.w3.org/2000/svg">
<g clip-path="url(#clip0_22_1433)">
<path d="M266.88 0H11.12C4.97859 0 0 4.66903 0 10.4286V354.571C0 360.331 4.97859 365 11.12 365H266.88C273.021 365 278 360.331 278 354.571V10.4286C278 4.66903 273.021 0 266.88 0Z" fill="white"/>
<path d="M66.5386 84.9327C64.4092 73.6586 50.4277 66.6556 38.9197 81.2774C27.4118 66.6556 13.4305 73.6588 11.3009 84.9329C8.50942 99.7118 38.9197 114.261 38.9197 125.143C38.9197 114.261 69.3302 99.7117 66.5386 84.9327Z" fill="#FF0000"/>
<path d="M66.5388 84.9329C64.4092 73.6588 50.4277 69.7846 38.9198 84.4064C36.3134 74.2222 17.6155 74.4023 15.0291 84.9329C11.3564 99.8864 38.9198 101.109 38.9198 125.143C38.9198 114.261 69.3304 99.7118 66.5388 84.9329Z" fill="#8C0000"/>
<path d="M211.461 280.068C213.591 291.341 227.572 298.345 239.08 283.723C250.588 298.345 264.569 291.341 266.699 280.068C269.491 265.288 239.08 250.739 239.08 239.857C239.08 250.739 208.67 265.288 211.461 280.068Z" fill="#FF0000"/>
<path d="M211.461 280.068C213.591 291.341 227.572 295.215 239.08 280.593C241.687 290.778 260.385 290.597 262.971 280.068C266.644 265.114 239.08 263.892 239.08 239.857C239.08 250.739 208.67 265.288 211.461 280.068Z" fill="#8C0000"/>
<path d="M238.761 317.545H232.58L227.398 310.727L226.034 308.909L218.307 298.636H224.489L229.58 305.455L230.852 307.182L238.761 317.545ZM216.398 326.273C216.398 321.364 217.284 317.121 219.057 313.545C220.83 309.97 223.261 307.212 226.352 305.273C229.443 303.333 232.973 302.364 236.943 302.364C240.913 302.364 244.443 303.333 247.534 305.273C250.625 307.212 253.057 309.97 254.83 313.545C256.602 317.121 257.489 321.364 257.489 326.273C257.489 331.182 256.602 335.424 254.83 339C253.057 342.576 250.625 345.333 247.534 347.273C244.443 349.212 240.913 350.182 236.943 350.182C232.973 350.182 229.443 349.212 226.352 347.273C223.261 345.333 220.83 342.576 219.057 339C217.284 335.424 216.398 331.182 216.398 326.273ZM221.852 326.273C221.852 330.303 222.526 333.705 223.875 336.477C225.208 339.25 227.019 341.348 229.307 342.773C231.58 344.197 234.125 344.909 236.943 344.909C239.761 344.909 242.314 344.197 244.602 342.773C246.875 341.348 248.686 339.25 250.034 336.477C251.367 333.705 252.034 330.303 252.034 326.273C252.034 322.242 251.367 318.841 250.034 316.068C248.686 313.295 246.875 311.197 244.602 309.773C242.314 308.348 239.761 307.636 236.943 307.636C234.125 307.636 231.58 308.348 229.307 309.773C227.019 311.197 225.208 313.295 223.875 316.068C222.526 318.841 221.852 322.242 221.852 326.273Z" fill="black"/>
<path d="M27.6554 37.4819H33.8372L39.0191 44.3001L40.3827 46.1183L48.11 56.391H41.9282L36.8372 49.5728L35.5645 47.8455L27.6554 37.4819ZM50.0191 28.7546C50.0191 33.6637 49.1327 37.9061 47.36 41.4819C45.5872 45.0576 43.1554 47.8152 40.0645 49.7546C36.9736 51.694 33.4433 52.6637 29.4736 52.6637C25.5039 52.6637 21.9736 51.694 18.8827 49.7546C15.7918 47.8152 13.36 45.0576 11.5872 41.4819C9.81451 37.9061 8.92815 33.6637 8.92815 28.7546C8.92815 23.8455 9.81451 19.6031 11.5872 16.0273C13.36 12.4516 15.7918 9.69401 18.8827 7.75462C21.9736 5.81522 25.5039 4.84552 29.4736 4.84552C33.4433 4.84552 36.9736 5.81522 40.0645 7.75462C43.1554 9.69401 45.5872 12.4516 47.36 16.0273C49.1327 19.6031 50.0191 23.8455 50.0191 28.7546ZM44.5645 28.7546C44.5645 24.7243 43.8903 21.3228 42.5418 18.5501C41.2085 15.7773 39.3978 13.6789 37.11 12.2546C34.8372 10.8304 32.2918 10.1183 29.4736 10.1183C26.6554 10.1183 24.1024 10.8304 21.8145 12.2546C19.5418 13.6789 17.7312 15.7773 16.3827 18.5501C15.0494 21.3228 14.3827 24.7243 14.3827 28.7546C14.3827 32.7849 15.0494 36.1864 16.3827 38.9592C17.7312 41.7319 19.5418 43.8304 21.8145 45.2546C24.1024 46.6789 26.6554 47.391 29.4736 47.391C32.2918 47.391 34.8372 46.6789 37.11 45.2546C39.3978 43.8304 41.2085 41.7319 42.5418 38.9592C43.8903 36.1864 44.5645 32.7849 44.5645 28.7546Z" fill="black"/>
</g>
<defs>
<clipPath id="clip0_22_1433">
<rect width="278" height="365" fill="white"/>
</clipPath>
</defs>
</svg>
