<svg width="278" height="365" viewBox="0 0 278 365" fill="none" xmlns="http://www.w3.org/2000/svg">
<g clip-path="url(#clip0_23_1974)">
<path d="M266.88 0H11.12C4.97859 0 0 4.66903 0 10.4286V354.571C0 360.331 4.97859 365 11.12 365H266.88C273.021 365 278 360.331 278 354.571V10.4286C278 4.66903 273.021 0 266.88 0Z" fill="white"/>
<path d="M66.5388 84.9327C64.4093 73.6586 50.4278 66.6556 38.9198 81.2774C27.4119 66.6556 13.4307 73.6588 11.3011 84.9329C8.50954 99.7118 38.9198 114.261 38.9198 125.143C38.9198 114.261 69.3303 99.7117 66.5388 84.9327Z" fill="#FF0000"/>
<path d="M66.5387 84.9328C64.4091 73.6586 50.4276 69.7845 38.9197 84.4063C36.3133 74.2221 17.6154 74.4022 15.029 84.9328C11.3562 99.8863 38.9197 101.108 38.9197 125.143C38.9197 114.261 69.3303 99.7117 66.5387 84.9328Z" fill="#8C0000"/>
<path d="M211.461 280.068C213.591 291.341 227.572 298.345 239.08 283.723C250.588 298.345 264.569 291.341 266.699 280.068C269.491 265.288 239.08 250.739 239.08 239.857C239.08 250.739 208.67 265.288 211.461 280.068Z" fill="#FF0000"/>
<path d="M211.461 280.068C213.591 291.341 227.572 295.215 239.08 280.593C241.687 290.778 260.385 290.597 262.971 280.068C266.644 265.114 239.08 263.892 239.08 239.857C239.08 250.739 208.67 265.288 211.461 280.068Z" fill="#8C0000"/>
<path d="M240.973 310.342C243.973 310.342 246.648 310.857 248.996 311.887C251.33 312.918 253.186 314.349 254.564 316.183C255.928 318.031 256.67 320.175 256.792 322.615H251.064C250.943 321.115 250.428 319.819 249.519 318.728C248.61 317.652 247.42 316.819 245.951 316.228C244.481 315.637 242.852 315.342 241.064 315.342C239.064 315.342 237.292 315.69 235.746 316.387C234.201 317.084 232.989 318.054 232.11 319.296C231.231 320.539 230.792 321.978 230.792 323.615C230.792 325.327 231.216 326.834 232.064 328.137C232.913 329.455 234.155 330.486 235.792 331.228C237.428 331.971 239.428 332.342 241.792 332.342H245.519V337.342H241.792C239.943 337.342 238.322 337.675 236.928 338.342C235.519 339.008 234.42 339.948 233.633 341.16C232.83 342.372 232.428 343.796 232.428 345.433C232.428 347.008 232.777 348.38 233.473 349.546C234.17 350.713 235.155 351.622 236.428 352.274C237.686 352.925 239.17 353.251 240.883 353.251C242.489 353.251 244.004 352.955 245.428 352.365C246.837 351.789 247.989 350.948 248.883 349.842C249.777 348.751 250.261 347.433 250.337 345.887H255.792C255.701 348.327 254.966 350.463 253.587 352.296C252.208 354.145 250.405 355.584 248.178 356.615C245.936 357.645 243.473 358.16 240.792 358.16C237.913 358.16 235.443 357.577 233.383 356.41C231.322 355.258 229.739 353.736 228.633 351.842C227.527 349.948 226.973 347.902 226.973 345.705C226.973 343.084 227.663 340.849 229.042 339.001C230.405 337.152 232.261 335.872 234.61 335.16V334.796C231.67 334.311 229.375 333.061 227.723 331.046C226.072 329.046 225.246 326.569 225.246 323.615C225.246 321.084 225.936 318.811 227.314 316.796C228.678 314.796 230.542 313.221 232.905 312.069C235.269 310.918 237.958 310.342 240.973 310.342Z" fill="black"/>
<path d="M39.1705 62.6364C36.1705 62.6364 33.4962 62.1212 31.1477 61.0909C28.8144 60.0606 26.9583 58.6288 25.5795 56.7955C24.2159 54.947 23.4735 52.803 23.3523 50.3636H29.0795C29.2008 51.8636 29.7159 53.1591 30.625 54.25C31.5341 55.3258 32.7235 56.1591 34.1932 56.75C35.6629 57.3409 37.2917 57.6364 39.0795 57.6364C41.0795 57.6364 42.8523 57.2879 44.3977 56.5909C45.9432 55.8939 47.1553 54.9242 48.0341 53.6818C48.9129 52.4394 49.3523 51 49.3523 49.3636C49.3523 47.6515 48.928 46.1439 48.0795 44.8409C47.2311 43.5227 45.9886 42.4924 44.3523 41.75C42.7159 41.0076 40.7159 40.6364 38.3523 40.6364H34.625V35.6364H38.3523C40.2008 35.6364 41.822 35.303 43.2159 34.6364C44.625 33.9697 45.7235 33.0303 46.5114 31.8182C47.3144 30.6061 47.7159 29.1818 47.7159 27.5455C47.7159 25.9697 47.3674 24.5985 46.6705 23.4318C45.9735 22.2651 44.9886 21.3561 43.7159 20.7045C42.4583 20.053 40.9735 19.7273 39.2614 19.7273C37.6553 19.7273 36.1402 20.0227 34.7159 20.6136C33.3068 21.1894 32.1553 22.0303 31.2614 23.1364C30.3674 24.2273 29.8826 25.5455 29.8068 27.0909H24.3523C24.4432 24.6515 25.178 22.5151 26.5568 20.6818C27.9356 18.8333 29.7386 17.3939 31.9659 16.3636C34.2083 15.3333 36.6705 14.8182 39.3523 14.8182C42.2311 14.8182 44.7008 15.4015 46.7614 16.5682C48.822 17.7197 50.4053 19.2424 51.5114 21.1364C52.6174 23.0303 53.1705 25.0758 53.1705 27.2727C53.1705 29.8939 52.4811 32.1288 51.1023 33.9773C49.7386 35.8258 47.8826 37.1061 45.5341 37.8182V38.1818C48.4735 38.6667 50.7689 39.9167 52.4205 41.9318C54.072 43.9318 54.8977 46.4091 54.8977 49.3636C54.8977 51.8939 54.2083 54.1667 52.8295 56.1818C51.4659 58.1818 49.6023 59.7576 47.2386 60.9091C44.875 62.0606 42.1856 62.6364 39.1705 62.6364Z" fill="black"/>
</g>
<defs>
<clipPath id="clip0_23_1974">
<rect width="278" height="365" fill="white"/>
</clipPath>
</defs>
</svg>
