<svg width="278" height="365" viewBox="0 0 278 365" fill="none" xmlns="http://www.w3.org/2000/svg">
<g clip-path="url(#clip0_22_1501)">
<path d="M266.88 0H11.12C4.97859 0 0 4.66903 0 10.4286V354.571C0 360.331 4.97859 365 11.12 365H266.88C273.021 365 278 360.331 278 354.571V10.4286C278 4.66903 273.021 0 266.88 0Z" fill="white"/>
<path d="M242.555 231.702C253.239 221.776 264.781 228.787 266.699 239.433C269.491 254.92 239.08 270.167 239.08 281.572C239.08 270.167 208.669 254.921 211.461 239.434C213.38 228.787 224.921 221.776 235.605 231.702C237.197 224.988 237.603 210.962 226.483 208.572H239.08H251.677C240.557 210.962 240.963 224.988 242.555 231.702Z" fill="black"/>
<path d="M211.558 239.433C213.687 227.618 227.67 223.558 239.177 238.881C241.783 228.208 260.482 228.397 263.068 239.433C266.741 255.104 239.177 256.384 239.177 281.571C239.177 270.167 208.767 254.92 211.558 239.433Z" fill="#202020"/>
<path d="M235.605 231.702C236.778 232.792 237.941 234.086 239.08 235.602C240.093 234.471 242.207 232.106 242.555 231.702C240.962 224.988 240.557 210.962 251.677 208.572H239.08H226.483C237.603 210.962 237.197 224.988 235.605 231.702Z" fill="#202020"/>
<path d="M35.4452 133.298C24.7613 143.224 13.2199 136.213 11.3011 125.567C8.50953 110.08 38.9201 94.8327 38.9201 83.4285C38.9201 94.8327 69.3306 110.079 66.539 125.566C64.6201 136.213 53.0789 143.224 42.395 133.298C40.8023 140.012 40.3969 154.038 51.5169 156.428H38.9201H26.3234C37.4434 154.038 37.038 140.012 35.4452 133.298Z" fill="black"/>
<path d="M66.4416 125.567C64.3122 137.382 50.3305 141.442 38.8227 126.119C36.2163 136.792 17.5183 136.603 14.9319 125.567C11.2592 109.896 38.8227 108.616 38.8227 83.4287C38.8227 94.833 69.2332 110.08 66.4416 125.567Z" fill="#202020"/>
<path d="M42.3951 133.298C41.2218 132.208 40.0589 130.914 38.9202 129.398C37.9067 130.529 35.7929 132.894 35.4453 133.298C37.0379 140.012 37.4434 154.038 26.3234 156.429H38.9202H51.5169C40.3969 154.038 40.8024 140.012 42.3951 133.298Z" fill="#202020"/>
<path d="M239.332 350.182C237.423 350.167 235.514 349.803 233.605 349.091C231.696 348.379 229.954 347.197 228.378 345.545C226.802 343.909 225.537 341.674 224.582 338.841C223.628 336.008 223.151 332.455 223.151 328.182C223.151 324.045 223.545 320.371 224.332 317.159C225.105 313.962 226.226 311.265 227.696 309.068C229.151 306.871 230.923 305.205 233.014 304.068C235.09 302.932 237.438 302.364 240.06 302.364C242.666 302.364 244.991 302.879 247.037 303.909C249.067 304.955 250.734 306.402 252.037 308.25C253.325 310.114 254.151 312.273 254.514 314.727H248.969C248.469 312.591 247.476 310.826 245.991 309.432C244.491 308.053 242.514 307.364 240.06 307.364C236.469 307.364 233.635 308.932 231.56 312.068C229.469 315.205 228.423 319.636 228.423 325.364H228.787C229.635 324.091 230.643 322.992 231.81 322.068C232.976 321.144 234.272 320.432 235.696 319.932C237.12 319.432 238.635 319.182 240.241 319.182C242.908 319.182 245.355 319.841 247.582 321.159C249.795 322.492 251.567 324.318 252.901 326.636C254.219 328.97 254.878 331.636 254.878 334.636C254.878 337.485 254.241 340.091 252.969 342.455C251.681 344.833 249.878 346.727 247.56 348.136C245.226 349.545 242.484 350.227 239.332 350.182ZM239.332 345.182C241.241 345.182 242.961 344.705 244.491 343.75C246.007 342.811 247.211 341.538 248.105 339.932C248.984 338.341 249.423 336.576 249.423 334.636C249.423 332.697 248.999 330.932 248.151 329.341C247.287 327.765 246.113 326.508 244.628 325.568C243.128 324.644 241.423 324.182 239.514 324.182C238.075 324.182 236.734 324.462 235.491 325.023C234.249 325.598 233.166 326.379 232.241 327.364C231.302 328.364 230.567 329.492 230.037 330.75C229.507 332.023 229.241 333.348 229.241 334.727C229.241 336.545 229.681 338.25 230.56 339.841C231.423 341.432 232.62 342.72 234.151 343.705C235.666 344.689 237.393 345.182 239.332 345.182Z" fill="black"/>
<path d="M31.6676 14.8182C33.5767 14.8333 35.4858 15.197 37.3949 15.9091C39.304 16.6212 41.0464 17.803 42.6222 19.4545C44.1979 21.0909 45.4631 23.3258 46.4176 26.1591C47.3722 28.9924 47.8494 32.5455 47.8494 36.8182C47.8494 40.9545 47.4555 44.6288 46.6676 47.8409C45.8949 51.0379 44.7737 53.7348 43.304 55.9318C41.8494 58.1288 40.0767 59.7955 37.9858 60.9318C35.91 62.0682 33.5616 62.6364 30.9403 62.6364C28.3343 62.6364 26.0085 62.1212 23.9631 61.0909C21.9328 60.0455 20.2661 58.5985 18.9631 56.75C17.6752 54.8864 16.8494 52.7273 16.4858 50.2727H22.0312C22.5312 52.4091 23.5237 54.1742 25.0085 55.5682C26.5085 56.947 28.4858 57.6364 30.9403 57.6364C34.5313 57.6364 37.3646 56.0682 39.4403 52.9318C41.5313 49.7955 42.5767 45.3636 42.5767 39.6364H42.2131C41.3646 40.9091 40.357 42.0076 39.1903 42.9318C38.0237 43.8561 36.7282 44.5682 35.304 45.0682C33.8797 45.5682 32.3646 45.8182 30.7585 45.8182C28.0919 45.8182 25.6449 45.1591 23.4176 43.8409C21.2055 42.5076 19.4328 40.6818 18.0994 38.3636C16.7812 36.0303 16.1222 33.3636 16.1222 30.3636C16.1222 27.5152 16.7585 24.9091 18.0312 22.5455C19.3191 20.1667 21.1222 18.2727 23.4403 16.8636C25.7737 15.4545 28.5161 14.7727 31.6676 14.8182ZM31.6676 19.8182C29.7585 19.8182 28.0388 20.2955 26.5085 21.25C24.9934 22.1894 23.7888 23.4621 22.8949 25.0682C22.0161 26.6591 21.5767 28.4242 21.5767 30.3636C21.5767 32.303 22.0009 34.0682 22.8494 35.6591C23.7131 37.2348 24.8873 38.4924 26.3722 39.4318C27.8722 40.3561 29.5767 40.8182 31.4858 40.8182C32.9252 40.8182 34.2661 40.5379 35.5085 39.9773C36.7509 39.4015 37.8343 38.6212 38.7585 37.6364C39.6979 36.6364 40.4328 35.5076 40.9631 34.25C41.4934 32.9773 41.7585 31.6515 41.7585 30.2727C41.7585 28.4545 41.3191 26.75 40.4403 25.1591C39.5767 23.5682 38.3797 22.2803 36.8494 21.2955C35.3343 20.3106 33.607 19.8182 31.6676 19.8182Z" fill="black"/>
</g>
<defs>
<clipPath id="clip0_22_1501">
<rect width="278" height="365" fill="white"/>
</clipPath>
</defs>
</svg>
