<svg width="278" height="365" viewBox="0 0 278 365" fill="none" xmlns="http://www.w3.org/2000/svg">
<path d="M266.88 0H11.12C4.97859 0 0 4.66903 0 10.4286V354.571C0 360.331 4.97859 365 11.12 365H266.88C273.021 365 278 360.331 278 354.571V10.4286C278 4.66903 273.021 0 266.88 0Z" fill="white"/>
<path d="M242.555 231.702C253.239 221.776 264.78 228.787 266.699 239.433C269.491 254.92 239.08 270.167 239.08 281.572C239.08 270.167 208.669 254.921 211.461 239.434C213.379 228.787 224.921 221.776 235.605 231.702C237.197 224.988 237.603 210.962 226.483 208.572H239.08H251.677C240.557 210.962 240.963 224.988 242.555 231.702Z" fill="black"/>
<path d="M211.558 239.433C213.687 227.618 227.67 223.558 239.177 238.881C241.783 228.208 260.482 228.397 263.068 239.433C266.741 255.104 239.177 256.384 239.177 281.571C239.177 270.167 208.767 254.92 211.558 239.433Z" fill="#202020"/>
<path d="M235.605 231.702C236.778 232.792 237.941 234.086 239.08 235.602C240.093 234.471 242.207 232.106 242.555 231.702C240.961 224.988 240.557 210.962 251.677 208.572H239.08H226.483C237.603 210.962 237.197 224.988 235.605 231.702Z" fill="#202020"/>
<path d="M35.4452 133.298C24.7613 143.224 13.2199 136.213 11.3011 125.567C8.50953 110.08 38.9201 94.8327 38.9201 83.4285C38.9201 94.8327 69.3306 110.079 66.539 125.566C64.6201 136.213 53.0789 143.224 42.395 133.298C40.8023 140.012 40.3969 154.038 51.5169 156.428H38.9201H26.3234C37.4434 154.038 37.038 140.012 35.4452 133.298Z" fill="black"/>
<path d="M66.4416 125.567C64.3122 137.382 50.3305 141.442 38.8227 126.119C36.2163 136.792 17.5183 136.603 14.9319 125.567C11.2592 109.896 38.8227 108.616 38.8227 83.4287C38.8227 94.833 69.2332 110.08 66.4416 125.567Z" fill="#202020"/>
<path d="M42.3951 133.298C41.2218 132.208 40.0589 130.914 38.9202 129.398C37.9067 130.529 35.7929 132.894 35.4453 133.298C37.0379 140.012 37.4434 154.038 26.3234 156.429H38.9202H51.5169C40.3969 154.038 40.8024 140.012 42.3951 133.298Z" fill="#202020"/>
<path d="M245.693 349.545V303H251.33V343.636H251.602L262.966 336.091V341.818L251.33 349.545H245.693ZM217.125 302.364C220.549 302.364 223.466 303.295 225.875 305.159C228.284 307.038 230.125 309.758 231.398 313.318C232.67 316.894 233.307 321.212 233.307 326.273C233.307 331.303 232.67 335.598 231.398 339.159C230.11 342.735 228.261 345.462 225.852 347.341C223.428 349.235 220.519 350.182 217.125 350.182C213.731 350.182 210.83 349.235 208.42 347.341C205.996 345.462 204.148 342.735 202.875 339.159C201.587 335.598 200.943 331.303 200.943 326.273C200.943 321.212 201.58 316.894 202.852 313.318C204.125 309.758 205.966 307.038 208.375 305.159C210.784 303.295 213.701 302.364 217.125 302.364ZM217.125 307.364C213.731 307.364 211.095 309 209.216 312.273C207.337 315.545 206.398 320.212 206.398 326.273C206.398 330.303 206.83 333.735 207.693 336.568C208.542 339.402 209.769 341.561 211.375 343.045C212.966 344.53 214.883 345.273 217.125 345.273C220.489 345.273 223.117 343.614 225.011 340.295C226.905 336.992 227.852 332.318 227.852 326.273C227.852 322.242 227.428 318.818 226.58 316C225.731 313.182 224.511 311.038 222.92 309.568C221.314 308.098 219.383 307.364 217.125 307.364Z" fill="black"/>
<path d="M27.3068 15.4545V62H21.6705V21.3636H21.3977L10.0341 28.9091V23.1818L21.6705 15.4545H27.3068ZM55.875 62.6364C52.4508 62.6364 49.5341 61.7045 47.125 59.8409C44.7159 57.9621 42.875 55.2424 41.6023 51.6818C40.3295 48.1061 39.6932 43.7879 39.6932 38.7273C39.6932 33.697 40.3295 29.4015 41.6023 25.8409C42.8902 22.2652 44.7386 19.5379 47.1477 17.6591C49.572 15.7651 52.4811 14.8182 55.875 14.8182C59.2689 14.8182 62.1705 15.7651 64.5795 17.6591C67.0038 19.5379 68.8523 22.2652 70.125 25.8409C71.4129 29.4015 72.0568 33.697 72.0568 38.7273C72.0568 43.7879 71.4205 48.1061 70.1477 51.6818C68.875 55.2424 67.0341 57.9621 64.625 59.8409C62.2159 61.7045 59.2992 62.6364 55.875 62.6364ZM55.875 57.6364C59.2689 57.6364 61.9053 56 63.7841 52.7273C65.6629 49.4545 66.6023 44.7879 66.6023 38.7273C66.6023 34.697 66.1705 31.2652 65.3068 28.4318C64.4583 25.5985 63.2311 23.4394 61.625 21.9545C60.0341 20.4697 58.1174 19.7273 55.875 19.7273C52.5114 19.7273 49.8826 21.3864 47.9886 24.7045C46.0947 28.0076 45.1477 32.6818 45.1477 38.7273C45.1477 42.7576 45.572 46.1818 46.4205 49C47.2689 51.8182 48.4886 53.9621 50.0795 55.4318C51.6856 56.9015 53.6174 57.6364 55.875 57.6364Z" fill="black"/>
</svg>
