<svg width="278" height="365" viewBox="0 0 278 365" fill="none" xmlns="http://www.w3.org/2000/svg">
<path d="M266.88 0H11.12C4.97859 0 0 4.66903 0 10.4286V354.571C0 360.331 4.97859 365 11.12 365H266.88C273.021 365 278 360.331 278 354.571V10.4286C278 4.66903 273.021 0 266.88 0Z" fill="white"/>
<path d="M242.555 231.702C253.239 221.776 264.78 228.787 266.699 239.433C269.491 254.92 239.08 270.167 239.08 281.572C239.08 270.167 208.669 254.921 211.461 239.434C213.379 228.787 224.921 221.776 235.605 231.702C237.197 224.988 237.603 210.962 226.483 208.572H239.08H251.677C240.557 210.962 240.963 224.988 242.555 231.702Z" fill="black"/>
<path d="M211.558 239.433C213.687 227.618 227.67 223.558 239.177 238.881C241.783 228.208 260.482 228.397 263.068 239.433C266.741 255.104 239.177 256.384 239.177 281.571C239.177 270.167 208.767 254.92 211.558 239.433Z" fill="#202020"/>
<path d="M235.605 231.702C236.778 232.792 237.941 234.086 239.08 235.602C240.093 234.471 242.207 232.106 242.555 231.702C240.961 224.988 240.557 210.962 251.677 208.572H239.08H226.483C237.603 210.962 237.197 224.988 235.605 231.702Z" fill="#202020"/>
<path d="M35.4451 133.298C24.7611 143.224 13.2198 136.213 11.3009 125.567C8.50941 110.08 38.92 94.8327 38.92 83.4285C38.92 94.8327 69.3304 110.079 66.5389 125.566C64.62 136.213 53.0788 143.224 42.3949 133.298C40.8022 140.012 40.3968 154.038 51.5168 156.428H38.92H26.3233C37.4433 154.038 37.0378 140.012 35.4451 133.298Z" fill="black"/>
<path d="M66.4416 125.567C64.3122 137.382 50.3305 141.442 38.8227 126.119C36.2163 136.792 17.5183 136.603 14.9319 125.567C11.2592 109.896 38.8227 108.616 38.8227 83.4287C38.8227 94.833 69.2332 110.08 66.4416 125.567Z" fill="#202020"/>
<path d="M42.3952 133.298C41.222 132.208 40.059 130.914 38.9203 129.398C37.9069 130.529 35.7931 132.894 35.4454 133.298C37.0381 140.012 37.4435 154.038 26.3235 156.429H38.9203H51.5171C40.3971 154.038 40.8025 140.012 42.3952 133.298Z" fill="#202020"/>
<path d="M231.696 302.364C233.605 302.394 235.514 302.758 237.423 303.455C239.332 304.152 241.075 305.326 242.651 306.977C244.226 308.644 245.491 310.894 246.446 313.727C247.401 316.576 247.878 320.152 247.878 324.455C247.878 328.576 247.491 332.227 246.719 335.409C245.946 338.606 244.825 341.295 243.355 343.477C241.885 345.674 240.113 347.341 238.037 348.477C235.946 349.614 233.59 350.182 230.969 350.182C228.363 350.182 226.045 349.659 224.014 348.614C221.969 347.583 220.302 346.144 219.014 344.295C217.726 342.447 216.893 340.318 216.514 337.909H222.06C222.575 340 223.575 341.735 225.06 343.114C226.545 344.492 228.514 345.182 230.969 345.182C234.575 345.182 237.416 343.614 239.491 340.477C241.552 337.341 242.59 332.939 242.605 327.273H242.241C241.393 328.561 240.385 329.659 239.219 330.568C238.037 331.492 236.734 332.205 235.31 332.705C233.885 333.205 232.378 333.455 230.787 333.455C228.12 333.455 225.681 332.788 223.469 331.455C221.257 330.136 219.484 328.311 218.151 325.977C216.817 323.659 216.151 321 216.151 318C216.151 315.121 216.795 312.485 218.082 310.091C219.37 307.712 221.181 305.818 223.514 304.409C225.832 303.015 228.56 302.333 231.696 302.364ZM231.696 307.364C229.787 307.364 228.075 307.841 226.56 308.795C225.029 309.75 223.825 311.03 222.946 312.636C222.052 314.242 221.605 316.03 221.605 318C221.605 319.924 222.037 321.674 222.901 323.25C223.749 324.841 224.923 326.106 226.423 327.045C227.908 327.985 229.605 328.455 231.514 328.455C232.954 328.455 234.295 328.167 235.537 327.591C236.779 327.03 237.87 326.258 238.81 325.273C239.734 324.288 240.461 323.159 240.991 321.886C241.522 320.629 241.787 319.303 241.787 317.909C241.787 316.061 241.355 314.333 240.491 312.727C239.613 311.121 238.416 309.826 236.901 308.841C235.37 307.856 233.635 307.364 231.696 307.364Z" fill="black"/>
<path d="M39.304 62.6364C37.3949 62.6061 35.4858 62.2424 33.5767 61.5455C31.6676 60.8485 29.9252 59.6742 28.3494 58.0227C26.7737 56.3561 25.5085 54.1061 24.554 51.2727C23.5994 48.4242 23.1222 44.8485 23.1222 40.5455C23.1222 36.4242 23.5085 32.7727 24.2812 29.5909C25.054 26.3939 26.1752 23.7045 27.6449 21.5227C29.1146 19.3258 30.8873 17.6591 32.9631 16.5227C35.054 15.3864 37.41 14.8182 40.0312 14.8182C42.6373 14.8182 44.9555 15.3409 46.9858 16.3864C49.0313 17.4167 50.6979 18.8561 51.9858 20.7045C53.2737 22.553 54.107 24.6818 54.4858 27.0909H48.9403C48.4252 25 47.4252 23.2652 45.9403 21.8864C44.4555 20.5076 42.4858 19.8182 40.0312 19.8182C36.4252 19.8182 33.5843 21.3864 31.5085 24.5227C29.4479 27.6591 28.41 32.0606 28.3949 37.7273H28.7585C29.607 36.4394 30.6146 35.3409 31.7812 34.4318C32.9631 33.5076 34.2661 32.7955 35.6903 32.2955C37.1146 31.7955 38.6222 31.5455 40.2131 31.5455C42.8797 31.5455 45.3191 32.2121 47.5312 33.5455C49.7434 34.8636 51.5161 36.6894 52.8494 39.0227C54.1828 41.3409 54.8494 44 54.8494 47C54.8494 49.8788 54.2055 52.5152 52.9176 54.9091C51.6297 57.2879 49.8191 59.1818 47.4858 60.5909C45.1676 61.9848 42.4403 62.6667 39.304 62.6364ZM39.304 57.6364C41.2131 57.6364 42.9252 57.1591 44.4403 56.2045C45.9706 55.25 47.1752 53.9697 48.054 52.3636C48.9479 50.7576 49.3949 48.9697 49.3949 47C49.3949 45.0758 48.9631 43.3258 48.0994 41.75C47.2509 40.1591 46.0767 38.8939 44.5767 37.9545C43.0919 37.0152 41.3949 36.5455 39.4858 36.5455C38.0464 36.5455 36.7055 36.8333 35.4631 37.4091C34.2206 37.9697 33.1297 38.7424 32.1903 39.7273C31.2661 40.7121 30.5388 41.8409 30.0085 43.1136C29.4782 44.3712 29.2131 45.697 29.2131 47.0909C29.2131 48.9394 29.6449 50.6667 30.5085 52.2727C31.3873 53.8788 32.5843 55.1742 34.0994 56.1591C35.6297 57.1439 37.3646 57.6364 39.304 57.6364Z" fill="black"/>
</svg>
