<svg width="25" height="35" viewBox="0 0 25 35" fill="none" xmlns="http://www.w3.org/2000/svg">
<rect width="25" height="35" rx="1" fill="white"/>
<path d="M3.80766 12.7861C3.70378 12.6818 3.6008 12.5579 3.49998 12.4128C3.41024 12.5212 3.22308 12.7475 3.1923 12.7861C3.33332 13.4288 3.36922 14.7712 2.3846 15H3.49998H4.61535C3.63074 14.7712 3.66664 13.4288 3.80766 12.7861Z" fill="#202020"/>
<ellipse cx="4.61539" cy="11.5956" rx="1.38462" ry="1.47094" fill="black"/>
<ellipse cx="2.38462" cy="11.5956" rx="1.38462" ry="1.47094" fill="black"/>
<ellipse cx="3.46152" cy="9.47094" rx="1.38462" ry="1.47094" fill="black"/>
<ellipse cx="4.61063" cy="11.4348" rx="1.2355" ry="1.30486" fill="#202020"/>
<ellipse cx="2.62009" cy="11.4348" rx="1.2355" ry="1.30486" fill="#202020"/>
<ellipse cx="3.58108" cy="9.55003" rx="1.2355" ry="1.30486" fill="#202020"/>
<path d="M21.1923 22.2139C21.2962 22.3182 21.3992 22.4421 21.5 22.5872C21.5898 22.4788 21.7769 22.2525 21.8077 22.2139C21.6667 21.5712 21.6308 20.2288 22.6154 20H21.5H20.3846C21.3693 20.2288 21.3334 21.5712 21.1923 22.2139Z" fill="#202020"/>
<ellipse cx="20.3846" cy="23.4044" rx="1.38462" ry="1.47094" transform="rotate(-180 20.3846 23.4044)" fill="black"/>
<ellipse cx="22.6154" cy="23.4044" rx="1.38462" ry="1.47094" transform="rotate(-180 22.6154 23.4044)" fill="black"/>
<ellipse cx="21.5385" cy="25.5291" rx="1.38462" ry="1.47094" transform="rotate(-180 21.5385 25.5291)" fill="black"/>
<ellipse cx="20.3894" cy="23.5652" rx="1.2355" ry="1.30486" transform="rotate(-180 20.3894 23.5652)" fill="#202020"/>
<ellipse cx="22.3799" cy="23.5652" rx="1.2355" ry="1.30486" transform="rotate(-180 22.3799 23.5652)" fill="#202020"/>
<ellipse cx="21.4189" cy="25.45" rx="1.2355" ry="1.30486" transform="rotate(-180 21.4189 25.45)" fill="#202020"/>
</svg>
