<svg width="278" height="365" viewBox="0 0 278 365" fill="none" xmlns="http://www.w3.org/2000/svg">
<path d="M266.88 0H11.12C4.97859 0 0 4.66903 0 10.4286V354.571C0 360.331 4.97859 365 11.12 365H266.88C273.021 365 278 360.331 278 354.571V10.4286C278 4.66903 273.021 0 266.88 0Z" fill="white"/>
<path d="M42.3412 133.341C41.186 132.253 40.0409 130.961 38.9197 129.448C37.9218 130.578 35.8406 132.938 35.4983 133.341C37.0665 140.043 37.4657 154.042 26.5167 156.429H38.9197H51.3227C40.3738 154.042 40.773 140.043 42.3412 133.341Z" fill="#202020"/>
<path d="M51.3231 136.266C59.8266 136.266 66.7201 129.398 66.7201 120.926C66.7201 112.454 59.8266 105.586 51.3231 105.586C42.8196 105.586 35.9261 112.454 35.9261 120.926C35.9261 129.398 42.8196 136.266 51.3231 136.266Z" fill="black"/>
<path d="M26.517 136.266C35.0205 136.266 41.9139 129.398 41.9139 120.926C41.9139 112.454 35.0205 105.586 26.517 105.586C18.0135 105.586 11.12 112.454 11.12 120.926C11.12 129.398 18.0135 136.266 26.517 136.266Z" fill="black"/>
<path d="M38.4921 114.108C46.9956 114.108 53.8891 107.24 53.8891 98.7685C53.8891 90.2966 46.9956 83.4287 38.4921 83.4287C29.9886 83.4287 23.0952 90.2966 23.0952 98.7685C23.0952 107.24 29.9886 114.108 38.4921 114.108Z" fill="black"/>
<path d="M51.2702 132.856C58.8579 132.856 65.009 126.764 65.009 119.248C65.009 111.733 58.8579 105.641 51.2702 105.641C43.6825 105.641 37.5314 111.733 37.5314 119.248C37.5314 126.764 43.6825 132.856 51.2702 132.856Z" fill="#202020"/>
<path d="M29.1354 132.856C36.7231 132.856 42.8742 126.764 42.8742 119.248C42.8742 111.733 36.7231 105.641 29.1354 105.641C21.5477 105.641 15.3967 111.733 15.3967 119.248C15.3967 126.764 21.5477 132.856 29.1354 132.856Z" fill="#202020"/>
<path d="M39.8216 113.201C47.4093 113.201 53.5603 107.109 53.5603 99.5932C53.5603 92.0778 47.4093 85.9854 39.8216 85.9854C32.2339 85.9854 26.0828 92.0778 26.0828 99.5932C26.0828 107.109 32.2339 113.201 39.8216 113.201Z" fill="#202020"/>
<path d="M235.658 231.659C236.814 232.747 237.959 234.039 239.08 235.552C240.079 234.422 242.159 232.062 242.502 231.659C240.934 224.957 240.535 210.957 251.483 208.571H239.08H226.677C237.627 210.957 237.227 224.957 235.658 231.659Z" fill="#202020"/>
<path d="M226.677 228.734C218.173 228.734 211.28 235.602 211.28 244.074C211.28 252.546 218.173 259.414 226.677 259.414C235.18 259.414 242.074 252.546 242.074 244.074C242.074 235.602 235.18 228.734 226.677 228.734Z" fill="black"/>
<path d="M251.483 228.734C242.98 228.734 236.086 235.602 236.086 244.074C236.086 252.546 242.98 259.414 251.483 259.414C259.987 259.414 266.88 252.546 266.88 244.074C266.88 235.602 259.987 228.734 251.483 228.734Z" fill="black"/>
<path d="M239.508 250.892C231.005 250.892 224.111 257.76 224.111 266.232C224.111 274.704 231.005 281.572 239.508 281.572C248.012 281.572 254.905 274.704 254.905 266.232C254.905 257.76 248.012 250.892 239.508 250.892Z" fill="black"/>
<path d="M226.73 232.144C219.142 232.144 212.991 238.236 212.991 245.752C212.991 253.267 219.142 259.359 226.73 259.359C234.318 259.359 240.469 253.267 240.469 245.752C240.469 238.236 234.318 232.144 226.73 232.144Z" fill="#202020"/>
<path d="M248.865 232.144C241.277 232.144 235.126 238.236 235.126 245.752C235.126 253.267 241.277 259.359 248.865 259.359C256.452 259.359 262.603 253.267 262.603 245.752C262.603 238.236 256.452 232.144 248.865 232.144Z" fill="#202020"/>
<path d="M238.178 251.799C230.59 251.799 224.439 257.892 224.439 265.407C224.439 272.923 230.59 279.015 238.178 279.015C245.766 279.015 251.917 272.923 251.917 265.407C251.917 257.892 245.766 251.799 238.178 251.799Z" fill="#202020"/>
<path d="M234.991 299.364C238.113 299.364 240.87 299.917 243.264 301.023C245.643 302.144 247.499 303.682 248.832 305.636C250.166 307.606 250.825 309.848 250.81 312.364C250.825 314.333 250.438 316.152 249.651 317.818C248.863 319.5 247.787 320.902 246.423 322.023C245.045 323.159 243.507 323.879 241.81 324.182V324.455C244.037 325.03 245.81 326.28 247.128 328.205C248.446 330.144 249.098 332.348 249.082 334.818C249.098 337.182 248.499 339.295 247.287 341.159C246.075 343.023 244.408 344.492 242.287 345.568C240.151 346.644 237.719 347.182 234.991 347.182C232.295 347.182 229.885 346.644 227.764 345.568C225.643 344.492 223.976 343.023 222.764 341.159C221.537 339.295 220.916 337.182 220.901 334.818C220.916 332.348 221.59 330.144 222.923 328.205C224.241 326.28 225.991 325.03 228.173 324.455V324.182C226.491 323.879 224.976 323.159 223.628 322.023C222.279 320.902 221.204 319.5 220.401 317.818C219.598 316.152 219.188 314.333 219.173 312.364C219.188 309.848 219.87 307.606 221.219 305.636C222.552 303.682 224.408 302.144 226.787 301.023C229.151 299.917 231.885 299.364 234.991 299.364ZM234.991 304.364C232.885 304.364 231.067 304.705 229.537 305.386C228.007 306.068 226.825 307.03 225.991 308.273C225.158 309.515 224.734 310.97 224.719 312.636C224.734 314.394 225.188 315.947 226.082 317.295C226.976 318.644 228.196 319.705 229.741 320.477C231.272 321.25 233.022 321.636 234.991 321.636C236.976 321.636 238.749 321.25 240.31 320.477C241.855 319.705 243.075 318.644 243.969 317.295C244.848 315.947 245.279 314.394 245.264 312.636C245.279 310.97 244.878 309.515 244.06 308.273C243.226 307.03 242.037 306.068 240.491 305.386C238.946 304.705 237.113 304.364 234.991 304.364ZM234.991 326.455C233.325 326.455 231.848 326.788 230.56 327.455C229.257 328.121 228.234 329.053 227.491 330.25C226.749 331.447 226.37 332.848 226.355 334.455C226.37 336.03 226.741 337.402 227.469 338.568C228.196 339.75 229.204 340.659 230.491 341.295C231.779 341.947 233.279 342.273 234.991 342.273C236.734 342.273 238.257 341.947 239.56 341.295C240.863 340.659 241.87 339.75 242.582 338.568C243.295 337.402 243.643 336.03 243.628 334.455C243.643 332.848 243.287 331.447 242.56 330.25C241.817 329.053 240.795 328.121 239.491 327.455C238.188 326.788 236.688 326.455 234.991 326.455Z" fill="black"/>
<path d="M36.0085 65.6364C32.8873 65.6364 30.1297 65.0833 27.7358 63.9773C25.357 62.8561 23.5009 61.3182 22.1676 59.3636C20.8343 57.3939 20.1752 55.1515 20.1903 52.6364C20.1752 50.6667 20.5616 48.8485 21.3494 47.1818C22.1373 45.5 23.2131 44.0985 24.5767 42.9773C25.9555 41.8409 27.4934 41.1212 29.1903 40.8182V40.5455C26.9631 39.9697 25.1903 38.7197 23.8722 36.7955C22.554 34.8561 21.9025 32.6515 21.9176 30.1818C21.9025 27.8182 22.5009 25.7045 23.7131 23.8409C24.9252 21.9773 26.5919 20.5076 28.7131 19.4318C30.8494 18.3561 33.2813 17.8182 36.0085 17.8182C38.7055 17.8182 41.1146 18.3561 43.2358 19.4318C45.357 20.5076 47.0237 21.9773 48.2358 23.8409C49.4631 25.7045 50.0843 27.8182 50.0994 30.1818C50.0843 32.6515 49.41 34.8561 48.0767 36.7955C46.7585 38.7197 45.0085 39.9697 42.8267 40.5455V40.8182C44.5085 41.1212 46.0237 41.8409 47.3722 42.9773C48.7206 44.0985 49.7964 45.5 50.5994 47.1818C51.4025 48.8485 51.8116 50.6667 51.8267 52.6364C51.8116 55.1515 51.1297 57.3939 49.7812 59.3636C48.4479 61.3182 46.5919 62.8561 44.2131 63.9773C41.8494 65.0833 39.1146 65.6364 36.0085 65.6364ZM36.0085 60.6364C38.1146 60.6364 39.9328 60.2955 41.4631 59.6136C42.9934 58.9318 44.1752 57.9697 45.0085 56.7273C45.8419 55.4848 46.2661 54.0303 46.2812 52.3636C46.2661 50.6061 45.8116 49.053 44.9176 47.7045C44.0237 46.3561 42.804 45.2955 41.2585 44.5227C39.7282 43.75 37.9782 43.3636 36.0085 43.3636C34.0237 43.3636 32.2509 43.75 30.6903 44.5227C29.1449 45.2955 27.9252 46.3561 27.0312 47.7045C26.1525 49.053 25.7206 50.6061 25.7358 52.3636C25.7206 54.0303 26.1222 55.4848 26.9403 56.7273C27.7737 57.9697 28.9631 58.9318 30.5085 59.6136C32.054 60.2955 33.8873 60.6364 36.0085 60.6364ZM36.0085 38.5455C37.6752 38.5455 39.1525 38.2121 40.4403 37.5455C41.7434 36.8788 42.7661 35.947 43.5085 34.75C44.2509 33.553 44.6297 32.1515 44.6449 30.5455C44.6297 28.9697 44.2585 27.5985 43.5312 26.4318C42.804 25.25 41.7964 24.3409 40.5085 23.7045C39.2206 23.053 37.7206 22.7273 36.0085 22.7273C34.2661 22.7273 32.7434 23.053 31.4403 23.7045C30.1373 24.3409 29.1297 25.25 28.4176 26.4318C27.7055 27.5985 27.357 28.9697 27.3722 30.5455C27.357 32.1515 27.7131 33.553 28.4403 34.75C29.1828 35.947 30.2055 36.8788 31.5085 37.5455C32.8116 38.2121 34.3116 38.5455 36.0085 38.5455Z" fill="black"/>
</svg>
