<svg width="278" height="365" viewBox="0 0 278 365" fill="none" xmlns="http://www.w3.org/2000/svg">
<g clip-path="url(#clip0_22_1750)">
<path d="M266.88 0H11.12C4.97859 0 0 4.66903 0 10.4286V354.571C0 360.331 4.97859 365 11.12 365H266.88C273.021 365 278 360.331 278 354.571V10.4286C278 4.66903 273.021 0 266.88 0Z" fill="white"/>
<path d="M42.3412 133.341C41.186 132.253 40.0409 130.961 38.9197 129.448C37.9218 130.578 35.8406 132.938 35.4983 133.341C37.0665 140.043 37.4657 154.042 26.5167 156.429H38.9197H51.3227C40.3738 154.042 40.773 140.043 42.3412 133.341Z" fill="#202020"/>
<path d="M51.3231 136.266C59.8266 136.266 66.7201 129.398 66.7201 120.926C66.7201 112.454 59.8266 105.586 51.3231 105.586C42.8196 105.586 35.9261 112.454 35.9261 120.926C35.9261 129.398 42.8196 136.266 51.3231 136.266Z" fill="black"/>
<path d="M26.517 136.266C35.0205 136.266 41.9139 129.398 41.9139 120.926C41.9139 112.454 35.0205 105.586 26.517 105.586C18.0135 105.586 11.12 112.454 11.12 120.926C11.12 129.398 18.0135 136.266 26.517 136.266Z" fill="black"/>
<path d="M38.4921 114.108C46.9956 114.108 53.889 107.24 53.889 98.7685C53.889 90.2966 46.9956 83.4287 38.4921 83.4287C29.9886 83.4287 23.0951 90.2966 23.0951 98.7685C23.0951 107.24 29.9886 114.108 38.4921 114.108Z" fill="black"/>
<path d="M51.2703 132.856C58.858 132.856 65.009 126.764 65.009 119.248C65.009 111.733 58.858 105.641 51.2703 105.641C43.6825 105.641 37.5315 111.733 37.5315 119.248C37.5315 126.764 43.6825 132.856 51.2703 132.856Z" fill="#202020"/>
<path d="M29.1354 132.856C36.7231 132.856 42.8741 126.764 42.8741 119.248C42.8741 111.733 36.7231 105.641 29.1354 105.641C21.5477 105.641 15.3966 111.733 15.3966 119.248C15.3966 126.764 21.5477 132.856 29.1354 132.856Z" fill="#202020"/>
<path d="M39.8216 113.201C47.4094 113.201 53.5604 107.109 53.5604 99.5932C53.5604 92.0778 47.4094 85.9854 39.8216 85.9854C32.2339 85.9854 26.0829 92.0778 26.0829 99.5932C26.0829 107.109 32.2339 113.201 39.8216 113.201Z" fill="#202020"/>
<path d="M235.658 231.659C236.814 232.747 237.959 234.039 239.08 235.552C240.079 234.422 242.159 232.062 242.502 231.659C240.934 224.957 240.535 210.957 251.483 208.571H239.08H226.677C237.627 210.957 237.227 224.957 235.658 231.659Z" fill="#202020"/>
<path d="M226.677 228.734C218.173 228.734 211.28 235.602 211.28 244.074C211.28 252.546 218.173 259.414 226.677 259.414C235.18 259.414 242.074 252.546 242.074 244.074C242.074 235.602 235.18 228.734 226.677 228.734Z" fill="black"/>
<path d="M251.483 228.734C242.98 228.734 236.086 235.602 236.086 244.074C236.086 252.546 242.98 259.414 251.483 259.414C259.987 259.414 266.88 252.546 266.88 244.074C266.88 235.602 259.987 228.734 251.483 228.734Z" fill="black"/>
<path d="M239.508 250.892C231.005 250.892 224.111 257.76 224.111 266.232C224.111 274.704 231.005 281.572 239.508 281.572C248.012 281.572 254.905 274.704 254.905 266.232C254.905 257.76 248.012 250.892 239.508 250.892Z" fill="black"/>
<path d="M226.73 232.144C219.142 232.144 212.991 238.236 212.991 245.752C212.991 253.267 219.142 259.359 226.73 259.359C234.318 259.359 240.469 253.267 240.469 245.752C240.469 238.236 234.318 232.144 226.73 232.144Z" fill="#202020"/>
<path d="M248.865 232.144C241.277 232.144 235.126 238.236 235.126 245.752C235.126 253.267 241.277 259.359 248.865 259.359C256.452 259.359 262.603 253.267 262.603 245.752C262.603 238.236 256.452 232.144 248.865 232.144Z" fill="#202020"/>
<path d="M238.178 251.799C230.59 251.799 224.439 257.892 224.439 265.407C224.439 272.923 230.59 279.015 238.178 279.015C245.766 279.015 251.917 272.923 251.917 265.407C251.917 257.892 245.766 251.799 238.178 251.799Z" fill="#202020"/>
<path d="M249.557 303V307.091L234.193 323.909C232.39 325.879 230.905 327.591 229.739 329.045C228.572 330.515 227.708 331.894 227.148 333.182C226.572 334.485 226.284 335.848 226.284 337.273C226.284 338.909 226.678 340.326 227.466 341.523C228.239 342.72 229.299 343.644 230.648 344.295C231.996 344.947 233.511 345.273 235.193 345.273C236.981 345.273 238.542 344.902 239.875 344.159C241.193 343.432 242.216 342.409 242.943 341.091C243.655 339.773 244.011 338.227 244.011 336.455H249.375C249.375 339.182 248.746 341.576 247.489 343.636C246.231 345.697 244.519 347.303 242.352 348.455C240.17 349.606 237.723 350.182 235.011 350.182C232.284 350.182 229.867 349.606 227.761 348.455C225.655 347.303 224.004 345.75 222.807 343.795C221.61 341.841 221.011 339.667 221.011 337.273C221.011 335.561 221.322 333.886 221.943 332.25C222.549 330.629 223.61 328.818 225.125 326.818C226.625 324.833 228.708 322.409 231.375 319.545L241.83 308.364V308H220.193V303H249.557Z" fill="black"/>
<path d="M17.4432 62V57.9091L32.8068 41.0909C34.6098 39.1212 36.0947 37.4091 37.2614 35.9545C38.428 34.4848 39.2917 33.1061 39.8523 31.8182C40.428 30.5152 40.7159 29.1515 40.7159 27.7273C40.7159 26.0909 40.322 24.6742 39.5341 23.4773C38.7614 22.2803 37.7008 21.3561 36.3523 20.7045C35.0038 20.053 33.4886 19.7273 31.8068 19.7273C30.0189 19.7273 28.4583 20.0985 27.125 20.8409C25.8068 21.5682 24.7841 22.5909 24.0568 23.9091C23.3447 25.2273 22.9886 26.7727 22.9886 28.5455H17.625C17.625 25.8182 18.2538 23.4242 19.5114 21.3636C20.7689 19.303 22.4811 17.697 24.6477 16.5455C26.8295 15.3939 29.2765 14.8182 31.9886 14.8182C34.7159 14.8182 37.1326 15.3939 39.2386 16.5455C41.3447 17.697 42.9962 19.25 44.1932 21.2045C45.3902 23.1591 45.9886 25.3333 45.9886 27.7273C45.9886 29.4394 45.678 31.1136 45.0568 32.75C44.4508 34.3712 43.3902 36.1818 41.875 38.1818C40.375 40.1667 38.2917 42.5909 35.625 45.4545L25.1705 56.6364V57H46.8068V62H17.4432Z" fill="black"/>
</g>
<defs>
<clipPath id="clip0_22_1750">
<rect width="278" height="365" fill="white"/>
</clipPath>
</defs>
</svg>
