<svg width="278" height="365" viewBox="0 0 278 365" fill="none" xmlns="http://www.w3.org/2000/svg">
<path d="M266.88 0H11.12C4.97859 0 0 4.66903 0 10.4286V354.571C0 360.331 4.97859 365 11.12 365H266.88C273.021 365 278 360.331 278 354.571V10.4286C278 4.66903 273.021 0 266.88 0Z" fill="white"/>
<path d="M22.2402 114.714L38.9201 83.4286L55.6001 114.714L38.9201 156.429L22.2402 114.714Z" fill="#FF0000"/>
<path d="M22.2402 114.714L38.9201 83.4286L55.6001 114.714L38.9201 156.429L22.2402 114.714Z" fill="#FF0000"/>
<path d="M33.3601 119.929L38.9201 83.4287L55.6001 114.714L38.9201 156.429L33.3601 119.929Z" fill="#8C0000"/>
<path d="M255.76 250.286L239.08 281.571L222.4 250.286L239.08 208.571L255.76 250.286Z" fill="#FF0000"/>
<path d="M255.76 250.286L239.08 281.571L222.4 250.286L239.08 208.571L255.76 250.286Z" fill="#FF0000"/>
<path d="M244.64 245.071L239.08 281.571L222.4 250.286L239.08 208.571L244.64 245.071Z" fill="#8C0000"/>
<path d="M36.1705 62.6364C33.1705 62.6364 30.4962 62.1212 28.1477 61.0909C25.8144 60.0606 23.9583 58.6288 22.5795 56.7955C21.2159 54.947 20.4735 52.803 20.3523 50.3636H26.0795C26.2008 51.8636 26.7159 53.1591 27.625 54.25C28.5341 55.3258 29.7235 56.1591 31.1932 56.75C32.6629 57.3409 34.2917 57.6364 36.0795 57.6364C38.0795 57.6364 39.8523 57.2879 41.3977 56.5909C42.9432 55.8939 44.1553 54.9242 45.0341 53.6818C45.9129 52.4394 46.3523 51 46.3523 49.3636C46.3523 47.6515 45.928 46.1439 45.0795 44.8409C44.2311 43.5227 42.9886 42.4924 41.3523 41.75C39.7159 41.0076 37.7159 40.6364 35.3523 40.6364H31.625V35.6364H35.3523C37.2008 35.6364 38.822 35.303 40.2159 34.6364C41.625 33.9697 42.7235 33.0303 43.5114 31.8182C44.3144 30.6061 44.7159 29.1818 44.7159 27.5455C44.7159 25.9697 44.3674 24.5985 43.6705 23.4318C42.9735 22.2651 41.9886 21.3561 40.7159 20.7045C39.4583 20.053 37.9735 19.7273 36.2614 19.7273C34.6553 19.7273 33.1402 20.0227 31.7159 20.6136C30.3068 21.1894 29.1553 22.0303 28.2614 23.1364C27.3674 24.2273 26.8826 25.5455 26.8068 27.0909H21.3523C21.4432 24.6515 22.178 22.5151 23.5568 20.6818C24.9356 18.8333 26.7386 17.3939 28.9659 16.3636C31.2083 15.3333 33.6705 14.8182 36.3523 14.8182C39.2311 14.8182 41.7008 15.4015 43.7614 16.5682C45.822 17.7197 47.4053 19.2424 48.5114 21.1364C49.6174 23.0303 50.1705 25.0758 50.1705 27.2727C50.1705 29.8939 49.4811 32.1288 48.1023 33.9773C46.7386 35.8258 44.8826 37.1061 42.5341 37.8182V38.1818C45.4735 38.6667 47.7689 39.9167 49.4205 41.9318C51.072 43.9318 51.8977 46.4091 51.8977 49.3636C51.8977 51.8939 51.2083 54.1667 49.8295 56.1818C48.4659 58.1818 46.6023 59.7576 44.2386 60.9091C41.875 62.0606 39.1856 62.6364 36.1705 62.6364Z" fill="black"/>
<path d="M249.83 302.364C252.83 302.364 255.504 302.879 257.852 303.909C260.186 304.939 262.042 306.371 263.42 308.205C264.784 310.053 265.527 312.197 265.648 314.636H259.92C259.799 313.136 259.284 311.841 258.375 310.75C257.466 309.674 256.277 308.841 254.807 308.25C253.337 307.659 251.708 307.364 249.92 307.364C247.92 307.364 246.148 307.712 244.602 308.409C243.057 309.106 241.845 310.076 240.966 311.318C240.087 312.561 239.648 314 239.648 315.636C239.648 317.348 240.072 318.856 240.92 320.159C241.769 321.477 243.011 322.508 244.648 323.25C246.284 323.992 248.284 324.364 250.648 324.364H254.375V329.364H250.648C248.799 329.364 247.178 329.697 245.784 330.364C244.375 331.03 243.277 331.97 242.489 333.182C241.686 334.394 241.284 335.818 241.284 337.455C241.284 339.03 241.633 340.402 242.33 341.568C243.027 342.735 244.011 343.644 245.284 344.295C246.542 344.947 248.027 345.273 249.739 345.273C251.345 345.273 252.86 344.977 254.284 344.386C255.693 343.811 256.845 342.97 257.739 341.864C258.633 340.773 259.117 339.455 259.193 337.909H264.648C264.557 340.348 263.822 342.485 262.443 344.318C261.064 346.167 259.261 347.606 257.034 348.636C254.792 349.667 252.33 350.182 249.648 350.182C246.769 350.182 244.299 349.598 242.239 348.432C240.178 347.28 238.595 345.758 237.489 343.864C236.383 341.97 235.83 339.924 235.83 337.727C235.83 335.106 236.519 332.871 237.898 331.023C239.261 329.174 241.117 327.894 243.466 327.182V326.818C240.527 326.333 238.231 325.083 236.58 323.068C234.928 321.068 234.102 318.591 234.102 315.636C234.102 313.106 234.792 310.833 236.17 308.818C237.534 306.818 239.398 305.242 241.761 304.091C244.125 302.939 246.814 302.364 249.83 302.364Z" fill="black"/>
</svg>
