<svg width="278" height="365" viewBox="0 0 278 365" fill="none" xmlns="http://www.w3.org/2000/svg">
<g clip-path="url(#clip0_22_1199)">
<path d="M266.88 0H11.12C4.97859 0 0 4.66903 0 10.4286V354.571C0 360.331 4.97859 365 11.12 365H266.88C273.021 365 278 360.331 278 354.571V10.4286C278 4.66903 273.021 0 266.88 0Z" fill="white"/>
<path d="M22.2401 114.714L38.92 83.4286L55.6 114.714L38.92 156.429L22.2401 114.714Z" fill="#FF0000"/>
<path d="M22.2401 114.714L38.92 83.4286L55.6 114.714L38.92 156.429L22.2401 114.714Z" fill="#FF0000"/>
<path d="M33.36 119.929L38.92 83.4287L55.6 114.714L38.92 156.429L33.36 119.929Z" fill="#8C0000"/>
<path d="M255.76 250.286L239.08 281.571L222.4 250.286L239.08 208.571L255.76 250.286Z" fill="#FF0000"/>
<path d="M255.76 250.286L239.08 281.571L222.4 250.286L239.08 208.571L255.76 250.286Z" fill="#FF0000"/>
<path d="M244.64 245.071L239.08 281.571L222.4 250.286L239.08 208.571L244.64 245.071Z" fill="#8C0000"/>
<path d="M26.9915 62L47.8097 20.8182V20.4545H23.8097V15.4545H53.6278V20.7273L32.9006 62H26.9915Z" fill="black"/>
<path d="M257.009 303L236.19 344.182V344.545H260.19V349.545H230.372V344.273L251.099 303H257.009Z" fill="black"/>
</g>
<defs>
<clipPath id="clip0_22_1199">
<rect width="278" height="365" fill="white"/>
</clipPath>
</defs>
</svg>
