<svg width="278" height="365" viewBox="0 0 278 365" fill="none" xmlns="http://www.w3.org/2000/svg">
<g opacity="0.65" clip-path="url(#clip0_22_1373)">
<path d="M266.88 0H11.12C4.97859 0 0 4.66903 0 10.4286V354.571C0 360.331 4.97859 365 11.12 365H266.88C273.021 365 278 360.331 278 354.571V10.4286C278 4.66903 273.021 0 266.88 0Z" fill="white"/>
<path d="M66.5388 84.9327C64.4093 73.6586 50.4278 66.6556 38.9198 81.2774C27.4119 66.6556 13.4307 73.6588 11.3011 84.9329C8.50954 99.7118 38.9198 114.261 38.9198 125.143C38.9198 114.261 69.3303 99.7117 66.5388 84.9327Z" fill="#FF0000"/>
<path d="M66.5387 84.9328C64.4091 73.6586 50.4276 69.7845 38.9197 84.4063C36.3133 74.2221 17.6154 74.4022 15.029 84.9328C11.3562 99.8863 38.9197 101.108 38.9197 125.143C38.9197 114.261 69.3303 99.7117 66.5387 84.9328Z" fill="#8C0000"/>
<path d="M211.461 280.068C213.591 291.341 227.572 298.345 239.08 283.723C250.588 298.345 264.569 291.341 266.699 280.068C269.491 265.288 239.08 250.739 239.08 239.857C239.08 250.739 208.67 265.288 211.461 280.068Z" fill="#FF0000"/>
<path d="M211.461 280.068C213.591 291.341 227.572 295.215 239.08 280.593C241.687 290.778 260.385 290.597 262.971 280.068C266.644 265.114 239.08 263.892 239.08 239.857C239.08 250.739 208.67 265.288 211.461 280.068Z" fill="#8C0000"/>
<path d="M260.966 312.973V317.064L245.602 333.882C243.799 335.851 242.314 337.564 241.148 339.018C239.981 340.488 239.117 341.867 238.557 343.154C237.981 344.458 237.693 345.821 237.693 347.245C237.693 348.882 238.087 350.298 238.875 351.495C239.648 352.692 240.708 353.617 242.057 354.268C243.405 354.92 244.92 355.245 246.602 355.245C248.39 355.245 249.951 354.874 251.284 354.132C252.602 353.404 253.625 352.382 254.352 351.064C255.064 349.745 255.42 348.2 255.42 346.427H260.784C260.784 349.154 260.155 351.548 258.898 353.609C257.64 355.67 255.928 357.276 253.761 358.427C251.58 359.579 249.133 360.154 246.42 360.154C243.693 360.154 241.277 359.579 239.17 358.427C237.064 357.276 235.413 355.723 234.216 353.768C233.019 351.814 232.42 349.639 232.42 347.245C232.42 345.533 232.731 343.859 233.352 342.223C233.958 340.601 235.019 338.791 236.534 336.791C238.034 334.806 240.117 332.382 242.784 329.518L253.239 318.336V317.973H231.602V312.973H260.966Z" fill="black"/>
<path d="M26.4432 62V57.9091L41.8068 41.0909C43.6098 39.1212 45.0947 37.4091 46.2614 35.9545C47.428 34.4848 48.2917 33.1061 48.8523 31.8182C49.428 30.5152 49.7159 29.1515 49.7159 27.7273C49.7159 26.0909 49.322 24.6742 48.5341 23.4773C47.7614 22.2803 46.7008 21.3561 45.3523 20.7045C44.0038 20.053 42.4886 19.7273 40.8068 19.7273C39.0189 19.7273 37.4583 20.0985 36.125 20.8409C34.8068 21.5682 33.7841 22.5909 33.0568 23.9091C32.3447 25.2273 31.9886 26.7727 31.9886 28.5455H26.625C26.625 25.8182 27.2538 23.4242 28.5114 21.3636C29.7689 19.303 31.4811 17.697 33.6477 16.5455C35.8295 15.3939 38.2765 14.8182 40.9886 14.8182C43.7159 14.8182 46.1326 15.3939 48.2386 16.5455C50.3447 17.697 51.9962 19.25 53.1932 21.2045C54.3902 23.1591 54.9886 25.3333 54.9886 27.7273C54.9886 29.4394 54.678 31.1136 54.0568 32.75C53.4508 34.3712 52.3902 36.1818 50.875 38.1818C49.375 40.1667 47.2917 42.5909 44.625 45.4545L34.1705 56.6364V57H55.8068V62H26.4432Z" fill="black"/>
</g>
<defs>
<clipPath id="clip0_22_1373">
<rect width="278" height="365" fill="white"/>
</clipPath>
</defs>
</svg>
