<svg width="278" height="365" viewBox="0 0 278 365" fill="none" xmlns="http://www.w3.org/2000/svg">
<g opacity="0.78" clip-path="url(#clip0_22_1379)">
<path d="M266.88 0H11.12C4.97859 0 0 4.66903 0 10.4286V354.571C0 360.331 4.97859 365 11.12 365H266.88C273.021 365 278 360.331 278 354.571V10.4286C278 4.66903 273.021 0 266.88 0Z" fill="white"/>
<path d="M66.5388 84.9327C64.4093 73.6586 50.4278 66.6556 38.9198 81.2774C27.4119 66.6556 13.4307 73.6588 11.3011 84.9329C8.50954 99.7118 38.9198 114.261 38.9198 125.143C38.9198 114.261 69.3303 99.7117 66.5388 84.9327Z" fill="#FF0000"/>
<path d="M66.5387 84.9328C64.4091 73.6586 50.4276 69.7845 38.9197 84.4063C36.3133 74.2221 17.6154 74.4022 15.029 84.9328C11.3562 99.8863 38.9197 101.108 38.9197 125.143C38.9197 114.261 69.3303 99.7117 66.5387 84.9328Z" fill="#8C0000"/>
<path d="M211.461 280.068C213.591 291.341 227.572 298.345 239.08 283.723C250.588 298.345 264.569 291.341 266.699 280.068C269.491 265.288 239.08 250.739 239.08 239.857C239.08 250.739 208.67 265.288 211.461 280.068Z" fill="#FF0000"/>
<path d="M211.461 280.068C213.591 291.341 227.572 295.215 239.08 280.593C241.687 290.778 260.385 290.597 262.971 280.068C266.644 265.114 239.08 263.892 239.08 239.857C239.08 250.739 208.67 265.288 211.461 280.068Z" fill="#8C0000"/>
<path d="M236.761 312.336C239.761 312.336 242.436 312.851 244.784 313.882C247.117 314.912 248.973 316.344 250.352 318.177C251.716 320.026 252.458 322.17 252.58 324.609H246.852C246.731 323.109 246.216 321.814 245.307 320.723C244.398 319.647 243.208 318.814 241.739 318.223C240.269 317.632 238.64 317.336 236.852 317.336C234.852 317.336 233.08 317.685 231.534 318.382C229.989 319.079 228.776 320.048 227.898 321.291C227.019 322.533 226.58 323.973 226.58 325.609C226.58 327.321 227.004 328.829 227.852 330.132C228.701 331.45 229.943 332.48 231.58 333.223C233.216 333.965 235.216 334.336 237.58 334.336H241.307V339.336H237.58C235.731 339.336 234.11 339.67 232.716 340.336C231.307 341.003 230.208 341.942 229.42 343.154C228.617 344.367 228.216 345.791 228.216 347.427C228.216 349.003 228.564 350.374 229.261 351.541C229.958 352.708 230.943 353.617 232.216 354.268C233.473 354.92 234.958 355.245 236.67 355.245C238.276 355.245 239.792 354.95 241.216 354.359C242.625 353.783 243.777 352.942 244.67 351.836C245.564 350.745 246.049 349.427 246.125 347.882H251.58C251.489 350.321 250.754 352.458 249.375 354.291C247.996 356.139 246.193 357.579 243.966 358.609C241.723 359.639 239.261 360.154 236.58 360.154C233.701 360.154 231.231 359.571 229.17 358.404C227.11 357.253 225.526 355.73 224.42 353.836C223.314 351.942 222.761 349.897 222.761 347.7C222.761 345.079 223.451 342.844 224.83 340.995C226.193 339.147 228.049 337.867 230.398 337.154V336.791C227.458 336.306 225.163 335.056 223.511 333.041C221.86 331.041 221.034 328.564 221.034 325.609C221.034 323.079 221.723 320.806 223.102 318.791C224.466 316.791 226.33 315.215 228.693 314.064C231.057 312.912 233.746 312.336 236.761 312.336Z" fill="black"/>
<path d="M35.1705 62.6364C32.1705 62.6364 29.4962 62.1212 27.1477 61.0909C24.8144 60.0606 22.9583 58.6288 21.5795 56.7955C20.2159 54.947 19.4735 52.803 19.3523 50.3636H25.0795C25.2008 51.8636 25.7159 53.1591 26.625 54.25C27.5341 55.3258 28.7235 56.1591 30.1932 56.75C31.6629 57.3409 33.2917 57.6364 35.0795 57.6364C37.0795 57.6364 38.8523 57.2879 40.3977 56.5909C41.9432 55.8939 43.1553 54.9242 44.0341 53.6818C44.9129 52.4394 45.3523 51 45.3523 49.3636C45.3523 47.6515 44.928 46.1439 44.0795 44.8409C43.2311 43.5227 41.9886 42.4924 40.3523 41.75C38.7159 41.0076 36.7159 40.6364 34.3523 40.6364H30.625V35.6364H34.3523C36.2008 35.6364 37.822 35.303 39.2159 34.6364C40.625 33.9697 41.7235 33.0303 42.5114 31.8182C43.3144 30.6061 43.7159 29.1818 43.7159 27.5455C43.7159 25.9697 43.3674 24.5985 42.6705 23.4318C41.9735 22.2651 40.9886 21.3561 39.7159 20.7045C38.4583 20.053 36.9735 19.7273 35.2614 19.7273C33.6553 19.7273 32.1402 20.0227 30.7159 20.6136C29.3068 21.1894 28.1553 22.0303 27.2614 23.1364C26.3674 24.2273 25.8826 25.5455 25.8068 27.0909H20.3523C20.4432 24.6515 21.178 22.5151 22.5568 20.6818C23.9356 18.8333 25.7386 17.3939 27.9659 16.3636C30.2083 15.3333 32.6705 14.8182 35.3523 14.8182C38.2311 14.8182 40.7008 15.4015 42.7614 16.5682C44.822 17.7197 46.4053 19.2424 47.5114 21.1364C48.6174 23.0303 49.1705 25.0758 49.1705 27.2727C49.1705 29.8939 48.4811 32.1288 47.1023 33.9773C45.7386 35.8258 43.8826 37.1061 41.5341 37.8182V38.1818C44.4735 38.6667 46.7689 39.9167 48.4205 41.9318C50.072 43.9318 50.8977 46.4091 50.8977 49.3636C50.8977 51.8939 50.2083 54.1667 48.8295 56.1818C47.4659 58.1818 45.6023 59.7576 43.2386 60.9091C40.875 62.0606 38.1856 62.6364 35.1705 62.6364Z" fill="black"/>
</g>
<defs>
<clipPath id="clip0_22_1379">
<rect width="278" height="365" fill="white"/>
</clipPath>
</defs>
</svg>
