<svg width="278" height="365" viewBox="0 0 278 365" fill="none" xmlns="http://www.w3.org/2000/svg">
<g clip-path="url(#clip0_22_1385)">
<path d="M266.88 0H11.12C4.97859 0 0 4.66903 0 10.4286V354.571C0 360.331 4.97859 365 11.12 365H266.88C273.021 365 278 360.331 278 354.571V10.4286C278 4.66903 273.021 0 266.88 0Z" fill="white"/>
<path d="M66.5388 84.9327C64.4093 73.6586 50.4278 66.6556 38.9198 81.2774C27.4119 66.6556 13.4307 73.6588 11.3011 84.9329C8.50954 99.7118 38.9198 114.261 38.9198 125.143C38.9198 114.261 69.3303 99.7117 66.5388 84.9327Z" fill="#FF0000"/>
<path d="M66.5387 84.9328C64.4091 73.6586 50.4276 69.7845 38.9197 84.4063C36.3133 74.2221 17.6154 74.4022 15.029 84.9328C11.3562 99.8863 38.9197 101.108 38.9197 125.143C38.9197 114.261 69.3303 99.7117 66.5387 84.9328Z" fill="#8C0000"/>
<path d="M211.461 280.068C213.591 291.341 227.572 298.345 239.08 283.723C250.588 298.345 264.569 291.341 266.699 280.068C269.491 265.288 239.08 250.739 239.08 239.857C239.08 250.739 208.67 265.288 211.461 280.068Z" fill="#FF0000"/>
<path d="M211.461 280.068C213.591 291.341 227.572 295.215 239.08 280.593C241.687 290.778 260.385 290.597 262.971 280.068C266.644 265.114 239.08 263.892 239.08 239.857C239.08 250.739 208.67 265.288 211.461 280.068Z" fill="#8C0000"/>
<path d="M257.948 322.518V327.154L237.493 359.518H234.13V352.336H236.402L251.857 327.882V327.518H224.312V322.518H257.948ZM236.039 312.973V323.927V326.086V359.518H230.675V312.973H236.039Z" fill="black"/>
<path d="M22.196 52.4545V47.8182L42.6506 15.4545H46.0142V22.6364H43.7415L28.2869 47.0909V47.4545H55.8324V52.4545H22.196ZM44.1051 62V51.0455V48.8864V15.4545H49.4688V62H44.1051Z" fill="black"/>
</g>
<defs>
<clipPath id="clip0_22_1385">
<rect width="278" height="365" fill="white"/>
</clipPath>
</defs>
</svg>
