<svg width="278" height="365" viewBox="0 0 278 365" fill="none" xmlns="http://www.w3.org/2000/svg">
<path d="M266.88 0H11.12C4.97859 0 0 4.66903 0 10.4286V354.571C0 360.331 4.97859 365 11.12 365H266.88C273.021 365 278 360.331 278 354.571V10.4286C278 4.66903 273.021 0 266.88 0Z" fill="white"/>
<path d="M66.5388 84.9327C64.4093 73.6586 50.4278 66.6556 38.9198 81.2774C27.4119 66.6556 13.4307 73.6588 11.3011 84.9329C8.50954 99.7118 38.9198 114.261 38.9198 125.143C38.9198 114.261 69.3303 99.7117 66.5388 84.9327Z" fill="#FF0000"/>
<path d="M66.5387 84.9329C64.4091 73.6588 50.4276 69.7846 38.9197 84.4064C36.3133 74.2222 17.6154 74.4023 15.029 84.9329C11.3562 99.8864 38.9197 101.109 38.9197 125.143C38.9197 114.261 69.3303 99.7118 66.5387 84.9329Z" fill="#8C0000"/>
<path d="M211.461 280.068C213.591 291.341 227.572 298.345 239.08 283.723C250.588 298.345 264.569 291.341 266.699 280.068C269.491 265.288 239.08 250.739 239.08 239.857C239.08 250.739 208.67 265.288 211.461 280.068Z" fill="#FF0000"/>
<path d="M211.461 280.068C213.591 291.341 227.572 295.215 239.08 280.593C241.687 290.778 260.385 290.597 262.971 280.068C266.644 265.114 239.08 263.892 239.08 239.857C239.08 250.739 208.67 265.288 211.461 280.068Z" fill="#8C0000"/>
<path d="M254.837 349.545V303H260.473V343.636H260.746L272.11 336.091V341.818L260.473 349.545H254.837ZM226.269 302.364C229.693 302.364 232.61 303.295 235.019 305.159C237.428 307.038 239.269 309.758 240.542 313.318C241.814 316.894 242.451 321.212 242.451 326.273C242.451 331.303 241.814 335.598 240.542 339.159C239.254 342.735 237.405 345.462 234.996 347.341C232.572 349.235 229.663 350.182 226.269 350.182C222.875 350.182 219.973 349.235 217.564 347.341C215.14 345.462 213.292 342.735 212.019 339.159C210.731 335.598 210.087 331.303 210.087 326.273C210.087 321.212 210.723 316.894 211.996 313.318C213.269 309.758 215.11 307.038 217.519 305.159C219.928 303.295 222.845 302.364 226.269 302.364ZM226.269 307.364C222.875 307.364 220.239 309 218.36 312.273C216.481 315.545 215.542 320.212 215.542 326.273C215.542 330.303 215.973 333.735 216.837 336.568C217.686 339.402 218.913 341.561 220.519 343.045C222.11 344.53 224.027 345.273 226.269 345.273C229.633 345.273 232.261 343.614 234.155 340.295C236.049 336.992 236.996 332.318 236.996 326.273C236.996 322.242 236.572 318.818 235.723 316C234.875 313.182 233.655 311.038 232.064 309.568C230.458 308.098 228.527 307.364 226.269 307.364Z" fill="black"/>
<path d="M27.375 15.4545V62H21.7387V21.3636H21.4659L10.1023 28.9091V23.1818L21.7387 15.4545H27.375ZM55.9432 62.6364C52.519 62.6364 49.6023 61.7045 47.1932 59.8409C44.7841 57.9621 42.9432 55.2424 41.6705 51.6818C40.3978 48.1061 39.7614 43.7879 39.7614 38.7273C39.7614 33.697 40.3978 29.4015 41.6705 25.8409C42.9584 22.2652 44.8069 19.5379 47.2159 17.6591C49.6402 15.7651 52.5493 14.8182 55.9432 14.8182C59.3372 14.8182 62.2387 15.7651 64.6478 17.6591C67.072 19.5379 68.9205 22.2652 70.1932 25.8409C71.4811 29.4015 72.125 33.697 72.125 38.7273C72.125 43.7879 71.4887 48.1061 70.2159 51.6818C68.9432 55.2424 67.1023 57.9621 64.6932 59.8409C62.2841 61.7045 59.3675 62.6364 55.9432 62.6364ZM55.9432 57.6364C59.3372 57.6364 61.9735 56 63.8523 52.7273C65.7311 49.4545 66.6705 44.7879 66.6705 38.7273C66.6705 34.697 66.2387 31.2652 65.375 28.4318C64.5266 25.5985 63.2993 23.4394 61.6932 21.9545C60.1023 20.4697 58.1856 19.7273 55.9432 19.7273C52.5796 19.7273 49.9508 21.3864 48.0569 24.7045C46.1629 28.0076 45.2159 32.6818 45.2159 38.7273C45.2159 42.7576 45.6402 46.1818 46.4887 49C47.3372 51.8182 48.5569 53.9621 50.1478 55.4318C51.7538 56.9015 53.6856 57.6364 55.9432 57.6364Z" fill="black"/>
</svg>
