<svg width="278" height="365" viewBox="0 0 278 365" fill="none" xmlns="http://www.w3.org/2000/svg">
<g clip-path="url(#clip0_22_1391)">
<path d="M266.88 0H11.12C4.97859 0 0 4.66903 0 10.4286V354.571C0 360.331 4.97859 365 11.12 365H266.88C273.021 365 278 360.331 278 354.571V10.4286C278 4.66903 273.021 0 266.88 0Z" fill="white"/>
<path d="M66.5386 84.9327C64.4092 73.6586 50.4277 66.6556 38.9197 81.2774C27.4118 66.6556 13.4305 73.6588 11.3009 84.9329C8.50942 99.7118 38.9197 114.261 38.9197 125.143C38.9197 114.261 69.3302 99.7117 66.5386 84.9327Z" fill="#FF0000"/>
<path d="M66.5388 84.9328C64.4092 73.6586 50.4277 69.7845 38.9198 84.4063C36.3134 74.2221 17.6155 74.4022 15.0291 84.9328C11.3564 99.8863 38.9198 101.108 38.9198 125.143C38.9198 114.261 69.3304 99.7117 66.5388 84.9328Z" fill="#8C0000"/>
<path d="M211.461 280.068C213.591 291.341 227.572 298.345 239.08 283.723C250.588 298.345 264.569 291.341 266.699 280.068C269.491 265.288 239.08 250.739 239.08 239.857C239.08 250.739 208.67 265.288 211.461 280.068Z" fill="#FF0000"/>
<path d="M211.461 280.068C213.591 291.341 227.572 295.215 239.08 280.593C241.687 290.778 260.385 290.597 262.971 280.068C266.644 265.114 239.08 263.892 239.08 239.857C239.08 250.739 208.67 265.288 211.461 280.068Z" fill="#8C0000"/>
<path d="M237.037 312.336C239.704 312.336 242.105 312.867 244.241 313.927C246.378 314.988 248.09 316.442 249.378 318.291C250.666 320.139 251.37 322.245 251.491 324.609H246.037C245.825 322.503 244.87 320.761 243.173 319.382C241.461 318.018 239.416 317.336 237.037 317.336C235.128 317.336 233.431 317.783 231.946 318.677C230.446 319.571 229.272 320.798 228.423 322.359C227.56 323.935 227.128 325.715 227.128 327.7C227.128 329.73 227.575 331.541 228.469 333.132C229.347 334.738 230.56 336.003 232.105 336.927C233.651 337.851 235.416 338.321 237.401 338.336C238.825 338.351 240.287 338.132 241.787 337.677C243.287 337.238 244.522 336.67 245.491 335.973L250.764 336.609L247.946 359.518H223.764V354.518H243.219L244.855 340.791H244.582C243.628 341.548 242.431 342.177 240.991 342.677C239.552 343.177 238.052 343.427 236.491 343.427C233.643 343.427 231.105 342.745 228.878 341.382C226.635 340.033 224.878 338.185 223.605 335.836C222.317 333.488 221.673 330.806 221.673 327.791C221.673 324.821 222.34 322.17 223.673 319.836C224.991 317.518 226.81 315.685 229.128 314.336C231.446 313.003 234.082 312.336 237.037 312.336Z" fill="black"/>
<path d="M34.8949 62.6364C32.2282 62.6364 29.8267 62.1061 27.6903 61.0455C25.554 59.9848 23.8419 58.5303 22.554 56.6818C21.2661 54.8333 20.5616 52.7273 20.4403 50.3636H25.8949C26.107 52.4697 27.0616 54.2121 28.7585 55.5909C30.4706 56.9545 32.5161 57.6364 34.8949 57.6364C36.804 57.6364 38.5009 57.1894 39.9858 56.2955C41.4858 55.4015 42.66 54.1742 43.5085 52.6136C44.3722 51.0379 44.804 49.2576 44.804 47.2727C44.804 45.2424 44.357 43.4318 43.4631 41.8409C42.5843 40.2348 41.3722 38.9697 39.8267 38.0455C38.2813 37.1212 36.5161 36.6515 34.5312 36.6364C33.107 36.6212 31.6449 36.8409 30.1449 37.2955C28.6449 37.7348 27.41 38.303 26.4403 39L21.1676 38.3636L23.9858 15.4545H48.1676V20.4545H28.7131L27.0767 34.1818H27.3494C28.304 33.4242 29.5009 32.7955 30.9403 32.2955C32.3797 31.7955 33.8797 31.5455 35.4403 31.5455C38.2888 31.5455 40.8267 32.2273 43.054 33.5909C45.2964 34.9394 47.054 36.7879 48.3267 39.1364C49.6146 41.4848 50.2585 44.1667 50.2585 47.1818C50.2585 50.1515 49.5919 52.803 48.2585 55.1364C46.9403 57.4545 45.1222 59.2879 42.804 60.6364C40.4858 61.9697 37.8494 62.6364 34.8949 62.6364Z" fill="black"/>
</g>
<defs>
<clipPath id="clip0_22_1391">
<rect width="278" height="365" fill="white"/>
</clipPath>
</defs>
</svg>
