<svg width="278" height="365" viewBox="0 0 278 365" fill="none" xmlns="http://www.w3.org/2000/svg">
<g clip-path="url(#clip0_22_1517)">
<path d="M266.88 0H11.12C4.97859 0 0 4.66903 0 10.4286V354.571C0 360.331 4.97859 365 11.12 365H266.88C273.021 365 278 360.331 278 354.571V10.4286C278 4.66903 273.021 0 266.88 0Z" fill="white"/>
<path d="M242.555 231.702C253.239 221.776 264.78 228.787 266.699 239.433C269.491 254.92 239.08 270.167 239.08 281.572C239.08 270.167 208.669 254.921 211.461 239.434C213.379 228.787 224.921 221.776 235.605 231.702C237.197 224.988 237.603 210.962 226.483 208.572H239.08H251.677C240.557 210.962 240.963 224.988 242.555 231.702Z" fill="black"/>
<path d="M211.558 239.433C213.687 227.618 227.67 223.558 239.177 238.881C241.783 228.208 260.482 228.397 263.068 239.433C266.741 255.104 239.177 256.384 239.177 281.571C239.177 270.167 208.767 254.92 211.558 239.433Z" fill="#202020"/>
<path d="M235.605 231.702C236.778 232.792 237.941 234.086 239.08 235.602C240.093 234.471 242.207 232.106 242.555 231.702C240.961 224.988 240.557 210.962 251.677 208.572H239.08H226.483C237.603 210.962 237.197 224.988 235.605 231.702Z" fill="#202020"/>
<path d="M35.4451 133.298C24.7611 143.224 13.2198 136.213 11.3009 125.567C8.50941 110.08 38.92 94.8327 38.92 83.4285C38.92 94.8327 69.3304 110.079 66.5389 125.566C64.62 136.213 53.0788 143.224 42.3949 133.298C40.8022 140.012 40.3968 154.038 51.5168 156.428H38.92H26.3233C37.4433 154.038 37.0378 140.012 35.4451 133.298Z" fill="black"/>
<path d="M66.4416 125.567C64.3122 137.382 50.3305 141.442 38.8227 126.119C36.2163 136.792 17.5183 136.603 14.9319 125.567C11.2592 109.896 38.8227 108.616 38.8227 83.4287C38.8227 94.833 69.2332 110.08 66.4416 125.567Z" fill="#202020"/>
<path d="M42.3952 133.298C41.222 132.208 40.059 130.914 38.9203 129.398C37.9069 130.529 35.7931 132.894 35.4454 133.298C37.0381 140.012 37.4435 154.038 26.3235 156.429H38.9203H51.5171C40.3971 154.038 40.8025 140.012 42.3952 133.298Z" fill="#202020"/>
<path d="M239.92 349.545H234.284V316.273C234.284 313.303 234.83 310.78 235.92 308.705C237.011 306.629 238.549 305.053 240.534 303.977C242.519 302.902 244.86 302.364 247.557 302.364C250.102 302.364 252.367 302.826 254.352 303.75C256.337 304.689 257.898 306.023 259.034 307.75C260.17 309.477 260.739 311.53 260.739 313.909H255.193C255.193 312.591 254.867 311.439 254.216 310.455C253.549 309.485 252.64 308.727 251.489 308.182C250.337 307.636 249.027 307.364 247.557 307.364C245.936 307.364 244.557 307.705 243.42 308.386C242.284 309.068 241.42 310.068 240.83 311.386C240.223 312.72 239.92 314.348 239.92 316.273V349.545Z" fill="black"/>
<path d="M38.0795 15.4545H43.7159V48.7273C43.7159 51.697 43.1705 54.2197 42.0795 56.2955C40.9886 58.3712 39.4508 59.947 37.4659 61.0227C35.4811 62.0985 33.1402 62.6364 30.4432 62.6364C27.8977 62.6364 25.6326 62.1742 23.6477 61.25C21.6629 60.3106 20.1023 58.9773 18.9659 57.25C17.8295 55.5227 17.2614 53.4697 17.2614 51.0909H22.8068C22.8068 52.4091 23.1326 53.5606 23.7841 54.5455C24.4508 55.5152 25.3598 56.2727 26.5114 56.8182C27.6629 57.3636 28.9735 57.6364 30.4432 57.6364C32.0644 57.6364 33.4432 57.2955 34.5795 56.6136C35.7159 55.9318 36.5795 54.9318 37.1705 53.6136C37.7765 52.2803 38.0795 50.6515 38.0795 48.7273V15.4545Z" fill="black"/>
</g>
<defs>
<clipPath id="clip0_22_1517">
<rect width="278" height="365" fill="white"/>
</clipPath>
</defs>
</svg>
