<svg width="278" height="365" viewBox="0 0 278 365" fill="none" xmlns="http://www.w3.org/2000/svg">
<path d="M266.88 0H11.12C4.97859 0 0 4.66903 0 10.4286V354.571C0 360.331 4.97859 365 11.12 365H266.88C273.021 365 278 360.331 278 354.571V10.4286C278 4.66903 273.021 0 266.88 0Z" fill="white"/>
<path d="M242.555 231.702C253.239 221.776 264.781 228.787 266.699 239.433C269.491 254.92 239.08 270.167 239.08 281.572C239.08 270.167 208.669 254.921 211.461 239.434C213.38 228.787 224.921 221.776 235.605 231.702C237.197 224.988 237.603 210.962 226.483 208.572H239.08H251.677C240.557 210.962 240.963 224.988 242.555 231.702Z" fill="black"/>
<path d="M211.558 239.433C213.687 227.618 227.67 223.558 239.177 238.881C241.783 228.208 260.482 228.397 263.068 239.433C266.741 255.104 239.177 256.384 239.177 281.571C239.177 270.167 208.767 254.92 211.558 239.433Z" fill="#202020"/>
<path d="M235.605 231.702C236.778 232.792 237.941 234.086 239.08 235.602C240.093 234.471 242.207 232.106 242.555 231.702C240.962 224.988 240.557 210.962 251.677 208.572H239.08H226.483C237.603 210.962 237.197 224.988 235.605 231.702Z" fill="#202020"/>
<path d="M35.4452 133.298C24.7613 143.224 13.2199 136.213 11.3011 125.567C8.50953 110.08 38.9201 94.8327 38.9201 83.4285C38.9201 94.8327 69.3306 110.079 66.539 125.566C64.6201 136.213 53.0789 143.224 42.395 133.298C40.8023 140.012 40.3969 154.038 51.5169 156.428H38.9201H26.3234C37.4434 154.038 37.038 140.012 35.4452 133.298Z" fill="black"/>
<path d="M66.4416 125.567C64.3122 137.382 50.3305 141.442 38.8227 126.119C36.2163 136.792 17.5183 136.603 14.9319 125.567C11.2592 109.896 38.8227 108.616 38.8227 83.4287C38.8227 94.833 69.2332 110.08 66.4416 125.567Z" fill="#202020"/>
<path d="M42.3951 133.298C41.2218 132.208 40.0589 130.914 38.9202 129.398C37.9067 130.529 35.7929 132.894 35.4453 133.298C37.0379 140.012 37.4434 154.038 26.3234 156.429H38.9202H51.5169C40.3969 154.038 40.8024 140.012 42.3951 133.298Z" fill="#202020"/>
<path d="M231.83 302.364C234.83 302.364 237.504 302.879 239.852 303.909C242.186 304.939 244.042 306.371 245.42 308.205C246.784 310.053 247.527 312.197 247.648 314.636H241.92C241.799 313.136 241.284 311.841 240.375 310.75C239.466 309.674 238.277 308.841 236.807 308.25C235.337 307.659 233.708 307.364 231.92 307.364C229.92 307.364 228.148 307.712 226.602 308.409C225.057 309.106 223.845 310.076 222.966 311.318C222.087 312.561 221.648 314 221.648 315.636C221.648 317.348 222.072 318.856 222.92 320.159C223.769 321.477 225.011 322.508 226.648 323.25C228.284 323.992 230.284 324.364 232.648 324.364H236.375V329.364H232.648C230.799 329.364 229.178 329.697 227.784 330.364C226.375 331.03 225.277 331.97 224.489 333.182C223.686 334.394 223.284 335.818 223.284 337.455C223.284 339.03 223.633 340.402 224.33 341.568C225.027 342.735 226.011 343.644 227.284 344.295C228.542 344.947 230.027 345.273 231.739 345.273C233.345 345.273 234.86 344.977 236.284 344.386C237.693 343.811 238.845 342.97 239.739 341.864C240.633 340.773 241.117 339.455 241.193 337.909H246.648C246.557 340.348 245.822 342.485 244.443 344.318C243.064 346.167 241.261 347.606 239.034 348.636C236.792 349.667 234.33 350.182 231.648 350.182C228.769 350.182 226.299 349.598 224.239 348.432C222.178 347.28 220.595 345.758 219.489 343.864C218.383 341.97 217.83 339.924 217.83 337.727C217.83 335.106 218.519 332.871 219.898 331.023C221.261 329.174 223.117 327.894 225.466 327.182V326.818C222.527 326.333 220.231 325.083 218.58 323.068C216.928 321.068 216.102 318.591 216.102 315.636C216.102 313.106 216.792 310.833 218.17 308.818C219.534 306.818 221.398 305.242 223.761 304.091C226.125 302.939 228.814 302.364 231.83 302.364Z" fill="black"/>
<path d="M41.1705 62.6364C38.1705 62.6364 35.4962 62.1212 33.1477 61.0909C30.8144 60.0606 28.9583 58.6288 27.5795 56.7955C26.2159 54.947 25.4735 52.803 25.3523 50.3636H31.0795C31.2008 51.8636 31.7159 53.1591 32.625 54.25C33.5341 55.3258 34.7235 56.1591 36.1932 56.75C37.6629 57.3409 39.2917 57.6364 41.0795 57.6364C43.0795 57.6364 44.8523 57.2879 46.3977 56.5909C47.9432 55.8939 49.1553 54.9242 50.0341 53.6818C50.9129 52.4394 51.3523 51 51.3523 49.3636C51.3523 47.6515 50.928 46.1439 50.0795 44.8409C49.2311 43.5227 47.9886 42.4924 46.3523 41.75C44.7159 41.0076 42.7159 40.6364 40.3523 40.6364H36.625V35.6364H40.3523C42.2008 35.6364 43.822 35.303 45.2159 34.6364C46.625 33.9697 47.7235 33.0303 48.5114 31.8182C49.3144 30.6061 49.7159 29.1818 49.7159 27.5455C49.7159 25.9697 49.3674 24.5985 48.6705 23.4318C47.9735 22.2651 46.9886 21.3561 45.7159 20.7045C44.4583 20.053 42.9735 19.7273 41.2614 19.7273C39.6553 19.7273 38.1402 20.0227 36.7159 20.6136C35.3068 21.1894 34.1553 22.0303 33.2614 23.1364C32.3674 24.2273 31.8826 25.5455 31.8068 27.0909H26.3523C26.4432 24.6515 27.178 22.5151 28.5568 20.6818C29.9356 18.8333 31.7386 17.3939 33.9659 16.3636C36.2083 15.3333 38.6705 14.8182 41.3523 14.8182C44.2311 14.8182 46.7008 15.4015 48.7614 16.5682C50.822 17.7197 52.4053 19.2424 53.5114 21.1364C54.6174 23.0303 55.1705 25.0758 55.1705 27.2727C55.1705 29.8939 54.4811 32.1288 53.1023 33.9773C51.7386 35.8258 49.8826 37.1061 47.5341 37.8182V38.1818C50.4735 38.6667 52.7689 39.9167 54.4205 41.9318C56.072 43.9318 56.8977 46.4091 56.8977 49.3636C56.8977 51.8939 56.2083 54.1667 54.8295 56.1818C53.4659 58.1818 51.6023 59.7576 49.2386 60.9091C46.875 62.0606 44.1856 62.6364 41.1705 62.6364Z" fill="black"/>
</svg>
