<svg width="278" height="365" viewBox="0 0 278 365" fill="none" xmlns="http://www.w3.org/2000/svg">
<path d="M266.88 0H11.12C4.97859 0 0 4.66903 0 10.4286V354.571C0 360.331 4.97859 365 11.12 365H266.88C273.021 365 278 360.331 278 354.571V10.4286C278 4.66903 273.021 0 266.88 0Z" fill="white"/>
<path d="M242.555 231.702C253.239 221.776 264.78 228.787 266.699 239.433C269.491 254.92 239.08 270.167 239.08 281.572C239.08 270.167 208.669 254.921 211.461 239.434C213.379 228.787 224.921 221.776 235.605 231.702C237.197 224.988 237.603 210.962 226.483 208.572H239.08H251.677C240.557 210.962 240.963 224.988 242.555 231.702Z" fill="black"/>
<path d="M211.558 239.433C213.687 227.618 227.67 223.558 239.177 238.881C241.783 228.208 260.482 228.397 263.068 239.433C266.741 255.104 239.177 256.384 239.177 281.571C239.177 270.167 208.767 254.92 211.558 239.433Z" fill="#202020"/>
<path d="M235.605 231.702C236.778 232.792 237.941 234.086 239.08 235.602C240.093 234.471 242.207 232.106 242.555 231.702C240.961 224.988 240.557 210.962 251.677 208.572H239.08H226.483C237.603 210.962 237.197 224.988 235.605 231.702Z" fill="#202020"/>
<path d="M35.4451 133.298C24.7611 143.224 13.2198 136.213 11.3009 125.567C8.50941 110.08 38.92 94.8327 38.92 83.4285C38.92 94.8327 69.3304 110.079 66.5389 125.566C64.62 136.213 53.0788 143.224 42.3949 133.298C40.8022 140.012 40.3968 154.038 51.5168 156.428H38.92H26.3233C37.4433 154.038 37.0378 140.012 35.4451 133.298Z" fill="black"/>
<path d="M66.4416 125.567C64.3122 137.382 50.3305 141.442 38.8227 126.119C36.2163 136.792 17.5183 136.603 14.9319 125.567C11.2592 109.896 38.8227 108.616 38.8227 83.4287C38.8227 94.833 69.2332 110.08 66.4416 125.567Z" fill="#202020"/>
<path d="M42.3952 133.298C41.222 132.208 40.059 130.914 38.9203 129.398C37.9069 130.529 35.7931 132.894 35.4454 133.298C37.0381 140.012 37.4435 154.038 26.3235 156.429H38.9203H51.5171C40.3971 154.038 40.8025 140.012 42.3952 133.298Z" fill="#202020"/>
<path d="M232.105 302.364C234.772 302.364 237.173 302.894 239.31 303.955C241.446 305.015 243.158 306.47 244.446 308.318C245.734 310.167 246.438 312.273 246.56 314.636H241.105C240.893 312.53 239.938 310.788 238.241 309.409C236.529 308.045 234.484 307.364 232.105 307.364C230.196 307.364 228.499 307.811 227.014 308.705C225.514 309.598 224.34 310.826 223.491 312.386C222.628 313.962 222.196 315.742 222.196 317.727C222.196 319.758 222.643 321.568 223.537 323.159C224.416 324.765 225.628 326.03 227.173 326.955C228.719 327.879 230.484 328.348 232.469 328.364C233.893 328.379 235.355 328.159 236.855 327.705C238.355 327.265 239.59 326.697 240.56 326L245.832 326.636L243.014 349.545H218.832V344.545H238.287L239.923 330.818H239.651C238.696 331.576 237.499 332.205 236.06 332.705C234.62 333.205 233.12 333.455 231.56 333.455C228.711 333.455 226.173 332.773 223.946 331.409C221.704 330.061 219.946 328.212 218.673 325.864C217.385 323.515 216.741 320.833 216.741 317.818C216.741 314.848 217.408 312.197 218.741 309.864C220.06 307.545 221.878 305.712 224.196 304.364C226.514 303.03 229.151 302.364 232.105 302.364Z" fill="black"/>
<path d="M38.8949 62.6364C36.2282 62.6364 33.8267 62.1061 31.6903 61.0455C29.554 59.9848 27.8419 58.5303 26.554 56.6818C25.2661 54.8333 24.5616 52.7273 24.4403 50.3636H29.8949C30.107 52.4697 31.0616 54.2121 32.7585 55.5909C34.4706 56.9545 36.5161 57.6364 38.8949 57.6364C40.804 57.6364 42.5009 57.1894 43.9858 56.2955C45.4858 55.4015 46.66 54.1742 47.5085 52.6136C48.3722 51.0379 48.804 49.2576 48.804 47.2727C48.804 45.2424 48.357 43.4318 47.4631 41.8409C46.5843 40.2348 45.3722 38.9697 43.8267 38.0455C42.2813 37.1212 40.5161 36.6515 38.5312 36.6364C37.107 36.6212 35.6449 36.8409 34.1449 37.2955C32.6449 37.7348 31.41 38.303 30.4403 39L25.1676 38.3636L27.9858 15.4545H52.1676V20.4545H32.7131L31.0767 34.1818H31.3494C32.304 33.4242 33.5009 32.7955 34.9403 32.2955C36.3797 31.7955 37.8797 31.5455 39.4403 31.5455C42.2888 31.5455 44.8267 32.2273 47.054 33.5909C49.2964 34.9394 51.054 36.7879 52.3267 39.1364C53.6146 41.4848 54.2585 44.1667 54.2585 47.1818C54.2585 50.1515 53.5919 52.803 52.2585 55.1364C50.9403 57.4545 49.1222 59.2879 46.804 60.6364C44.4858 61.9697 41.8494 62.6364 38.8949 62.6364Z" fill="black"/>
</svg>
