<svg width="278" height="365" viewBox="0 0 278 365" fill="none" xmlns="http://www.w3.org/2000/svg">
<path d="M266.88 0H11.12C4.97859 0 0 4.66903 0 10.4286V354.571C0 360.331 4.97859 365 11.12 365H266.88C273.021 365 278 360.331 278 354.571V10.4286C278 4.66903 273.021 0 266.88 0Z" fill="white"/>
<path d="M242.555 231.702C253.239 221.776 264.78 228.787 266.699 239.433C269.491 254.92 239.08 270.167 239.08 281.572C239.08 270.167 208.669 254.921 211.461 239.434C213.379 228.787 224.921 221.776 235.605 231.702C237.197 224.988 237.603 210.962 226.483 208.572H239.08H251.677C240.557 210.962 240.963 224.988 242.555 231.702Z" fill="black"/>
<path d="M211.558 239.433C213.687 227.618 227.67 223.558 239.177 238.881C241.783 228.208 260.482 228.397 263.068 239.433C266.741 255.104 239.177 256.384 239.177 281.571C239.177 270.167 208.767 254.92 211.558 239.433Z" fill="#202020"/>
<path d="M235.605 231.702C236.778 232.792 237.941 234.086 239.08 235.602C240.093 234.471 242.207 232.106 242.555 231.702C240.961 224.988 240.557 210.962 251.677 208.572H239.08H226.483C237.603 210.962 237.197 224.988 235.605 231.702Z" fill="#202020"/>
<path d="M35.4451 133.298C24.7611 143.224 13.2198 136.213 11.3009 125.567C8.50941 110.08 38.92 94.8327 38.92 83.4285C38.92 94.8327 69.3304 110.079 66.5389 125.566C64.62 136.213 53.0788 143.224 42.3949 133.298C40.8022 140.012 40.3968 154.038 51.5168 156.428H38.92H26.3233C37.4433 154.038 37.0378 140.012 35.4451 133.298Z" fill="black"/>
<path d="M66.4416 125.567C64.3122 137.382 50.3305 141.442 38.8227 126.119C36.2163 136.792 17.5183 136.603 14.9319 125.567C11.2592 109.896 38.8227 108.616 38.8227 83.4287C38.8227 94.833 69.2332 110.08 66.4416 125.567Z" fill="#202020"/>
<path d="M42.3952 133.298C41.222 132.208 40.059 130.914 38.9203 129.398C37.9069 130.529 35.7931 132.894 35.4454 133.298C37.0381 140.012 37.4435 154.038 26.3235 156.429H38.9203H51.5171C40.3971 154.038 40.8025 140.012 42.3952 133.298Z" fill="#202020"/>
<path d="M238.696 302.364C240.605 302.394 242.514 302.758 244.423 303.455C246.332 304.152 248.075 305.326 249.651 306.977C251.226 308.644 252.491 310.894 253.446 313.727C254.401 316.576 254.878 320.152 254.878 324.455C254.878 328.576 254.491 332.227 253.719 335.409C252.946 338.606 251.825 341.295 250.355 343.477C248.885 345.674 247.113 347.341 245.037 348.477C242.946 349.614 240.59 350.182 237.969 350.182C235.363 350.182 233.045 349.659 231.014 348.614C228.969 347.583 227.302 346.144 226.014 344.295C224.726 342.447 223.893 340.318 223.514 337.909H229.06C229.575 340 230.575 341.735 232.06 343.114C233.545 344.492 235.514 345.182 237.969 345.182C241.575 345.182 244.416 343.614 246.491 340.477C248.552 337.341 249.59 332.939 249.605 327.273H249.241C248.393 328.561 247.385 329.659 246.219 330.568C245.037 331.492 243.734 332.205 242.31 332.705C240.885 333.205 239.378 333.455 237.787 333.455C235.12 333.455 232.681 332.788 230.469 331.455C228.257 330.136 226.484 328.311 225.151 325.977C223.817 323.659 223.151 321 223.151 318C223.151 315.121 223.795 312.485 225.082 310.091C226.37 307.712 228.181 305.818 230.514 304.409C232.832 303.015 235.56 302.333 238.696 302.364ZM238.696 307.364C236.787 307.364 235.075 307.841 233.56 308.795C232.029 309.75 230.825 311.03 229.946 312.636C229.052 314.242 228.605 316.03 228.605 318C228.605 319.924 229.037 321.674 229.901 323.25C230.749 324.841 231.923 326.106 233.423 327.045C234.908 327.985 236.605 328.455 238.514 328.455C239.954 328.455 241.295 328.167 242.537 327.591C243.779 327.03 244.87 326.258 245.81 325.273C246.734 324.288 247.461 323.159 247.991 321.886C248.522 320.629 248.787 319.303 248.787 317.909C248.787 316.061 248.355 314.333 247.491 312.727C246.613 311.121 245.416 309.826 243.901 308.841C242.37 307.856 240.635 307.364 238.696 307.364Z" fill="black"/>
</svg>
