<svg width="25" height="35" viewBox="0 0 25 35" fill="none" xmlns="http://www.w3.org/2000/svg">
<rect width="25" height="35" rx="1" fill="white"/>
<path d="M21.8125 22.218C22.7733 21.2662 23.8112 21.9385 23.9837 22.9593C24.2348 24.4444 21.5 25.9064 21.5 27C21.5 25.9064 18.7652 24.4445 19.0163 22.9594C19.1888 21.9385 20.2267 21.2662 21.1875 22.218C21.3307 21.5742 21.3672 20.2292 20.3672 20H21.5H22.6328C21.6328 20.2292 21.6693 21.5742 21.8125 22.218Z" fill="black"/>
<path d="M19.025 22.9593C19.2165 21.8264 20.4739 21.4371 21.5087 22.9064C21.7431 21.883 23.4246 21.9011 23.6572 22.9593C23.9875 24.462 21.5087 24.5848 21.5087 27C21.5087 25.9064 18.774 24.4444 19.025 22.9593Z" fill="#202020"/>
<path d="M21.1875 22.218C21.293 22.3225 21.3976 22.4466 21.5 22.592C21.5911 22.4835 21.7812 22.2567 21.8125 22.218C21.6692 21.5742 21.6328 20.2292 22.6328 20H21.5H20.3672C21.3672 20.2292 21.3307 21.5742 21.1875 22.218Z" fill="#202020"/>
<path d="M3.18752 12.782C2.22673 13.7338 1.18884 13.0615 1.01628 12.0407C0.765243 10.5556 3.50001 9.09356 3.50001 8C3.50001 9.09356 6.23476 10.5555 5.98372 12.0406C5.81116 13.0615 4.77328 13.7338 3.8125 12.782C3.66927 13.4258 3.63281 14.7708 4.63281 15H3.50001H2.36721C3.36721 14.7708 3.33075 13.4258 3.18752 12.782Z" fill="black"/>
<path d="M5.97497 12.0407C5.78347 13.1736 4.52613 13.5629 3.49125 12.0936C3.25686 13.117 1.57539 13.0989 1.3428 12.0407C1.01252 10.538 3.49125 10.4152 3.49125 8.00001C3.49125 9.09357 6.22601 10.5556 5.97497 12.0407Z" fill="#202020"/>
<path d="M3.81251 12.782C3.707 12.6775 3.60242 12.5534 3.50002 12.408C3.40888 12.5165 3.21879 12.7433 3.18753 12.782C3.33075 13.4258 3.36721 14.7708 2.36721 15H3.50002H4.63282C3.63282 14.7708 3.66928 13.4258 3.81251 12.782Z" fill="#202020"/>
</svg>
